<?xml version="1.0" encoding="UTF-8"?>
<svg width="93px" height="34px" viewBox="0 0 93 34" version="1.1" xmlns="http://www.w3.org/2000/svg" xmlns:xlink="http://www.w3.org/1999/xlink">
    <!-- Generator: Sketch 41.2 (35397) - http://www.bohemiancoding.com/sketch -->
    <title>logo-nos</title>
    <desc>Created with Sketch.</desc>
    <defs></defs>
    <g id="ðŸ‘¶ðŸ»-current" stroke="none" stroke-width="1" fill="none" fill-rule="evenodd">
        <g id="home---1280" transform="translate(-462.000000, -3452.000000)" fill="#838997">
            <g id="row---clients" transform="translate(145.000000, 3065.000000)">
                <g id="logos" transform="translate(14.000000, 119.000000)">
                    <g id="row-3" transform="translate(2.000000, 264.000000)">
                        <g id="logo-nos" transform="translate(301.000000, 4.000000)">
                            <path d="M7.72693665,0.935639539 L-1.62303663e-05,0.935639539 L-1.62303663e-05,32.3102965 L8.36203089,32.3102965 C8.36203089,32.3102965 8.36203089,15.9316714 8.15038691,14.7617347 C8.15038691,14.7617347 12.6549628,21.7643948 20.3765597,32.3034472 L27.4286539,32.3034472 L27.4286539,0.955372232 L19.1268215,0.955372232 C19.1268215,0.955372232 19.260722,15.9791277 19.349989,17.4589167 C19.349989,17.4589167 17.1183136,13.2434588 7.72693665,0.935639539" id="Fill-1"></path>
                            <path d="M48.1684492,8.47467013 C43.7148366,8.47467013 40.1045539,12.1022242 40.1045539,16.5771425 C40.1045539,21.0518978 43.7148366,24.6794518 48.1684492,24.6794518 C52.6218995,24.6794518 56.2321822,21.0518978 56.2321822,16.5771425 C56.2321822,12.1022242 52.6218995,8.47467013 48.1684492,8.47467013 M64.6232817,16.6069862 C64.6232817,25.6887547 57.296245,33.0510064 48.2577162,33.0510064 C39.2191874,33.0510064 31.8919885,25.6887547 31.8919885,16.6069862 C31.8919885,7.52521771 39.2191874,0.162965958 48.2577162,0.162965958 C57.296245,0.162965958 64.6232817,7.52521771 64.6232817,16.6069862" id="Fill-4" opacity="0.600000024"></path>
                            <path d="M92.5341723,4.10956995 L88.3089209,10.9861691 C88.3089209,10.9861691 84.738078,7.99625831 79.679722,7.99625831 C76.1090414,7.99625831 76.4362455,9.64075818 76.4362455,9.87983363 C76.4362455,10.1190722 76.123811,11.4494797 82.2983293,12.7800504 C88.4397377,14.1032824 92.9506435,16.3378061 92.8912403,22.9453231 C92.8331356,29.4029695 87.9518529,32.8715204 79.9178215,32.8715204 C71.8837901,32.8715204 66.9442403,28.9848321 66.9442403,28.9848321 L71.0506853,22.2276075 C71.0506853,22.2276075 75.2168581,25.2608977 80.4532613,25.3372192 C84.559544,25.3970696 84.3214445,23.5433379 84.3214445,23.5433379 C84.3214445,21.9885321 82.4172979,21.0914284 76.763612,19.8955619 C71.1100885,18.6996954 67.7179419,15.7697981 67.7179419,10.9263187 C67.7179419,5.75390674 70.8283293,0.4343965 80.0515597,0.417110008 C88.0260257,0.402269717 92.5341723,4.10956995 92.5341723,4.10956995" id="Fill-7"></path>
                        </g>
                    </g>
                </g>
            </g>
        </g>
    </g>
</svg>