
<svg width="173" height="42" viewBox="0 0 173 42" xmlns="http://www.w3.org/2000/svg" xmlns:xlink="http://www.w3.org/1999/xlink">
    <path fill="#686B77" fill-rule="evenodd" d="M30.697 38.04c-3.86-3.967-8.468-5.93-12.72-6.666-1.735 5.621-4.372 10.549-10.906 10.549-4.477 0-7.071-2.305-7.071-5.51 0-4.86 6.716-8.056 14.1-8.262.502-1.945 1.119-4.713 1.353-6.778-1.519 2.46-4.234 4.327-6.386 4.327-2.43 0-4.434-1.345-5.267-5.476C2.733 14.928 3.627 3.6 2.586.848 3.245.497 4.408 0 5.622 0c2.1 0 2.178 1.388 2.334 4.482.191 3.856-.251 10.79.408 14.234.39 2.057 1.258 2.905 2.43 2.905 1.63 0 4.251-2.94 5.266-6.264 1.215-3.96 2.386-11.93 2.369-14.697.538-.3 1.822-.489 2.637-.489 1.883 0 2.213 1.054 2.126 2.614-.182 3.394-2.811 18.888-4.399 25.58 5.223.575 9.544 2.229 12.737 4.054 1.11.634 1.51 1.311 1.51 2.168-.009 1.054-1.12 2.7-2.343 3.454zM4.616 36.534c0 1.636.841 2.828 2.724 2.828 2.508 0 4.226-2.983 5.918-8.322-3.879.215-8.642 2.34-8.642 5.494zm60.058-11.167c.078 1.251.339 2.923.911 3.788-.572.677-1.822 1.277-3.15 1.277-1.518 0-1.969-1.131-2.099-2.957-.2-2.733 1.093-13.557 1.05-15.716-.009-.6-.06-1.012-.495-1.012-.954 0-3.314 2.974-4 5.15-.763 2.435-1.396 8.896-1.093 11.458-.91.403-2.23.652-3.062.652-.99 0-1.467-.454-1.467-1.843 0-2.254 1.293-12.409 1.293-14.431 0-.334-.078-.9-.495-.9-.832 0-3.609 3.72-4.26 5.939-.642 2.22-.893 7.91-1.015 9.34-.087 1.072-.243 1.475-.928 1.723-.52.189-2.091.42-3.002.403-.651-.017-.738-.634-.686-1.2.026-.274.078-.797.13-1.482-1.093 1.114-3.062 2.605-4.598 2.605-2.395 0-3.557-2.108-3.35-5.562-1.3 2.811-3.895 5.51-6.663 5.51-2.43 0-3.21-1.73-3.305-4.319-.105-2.665 1.24-14.26.798-16.213.685-.24 1.596-.463 2.516-.463 1.12 0 2.178.497 2.16 1.902-.017 1.406-1.145 10.987-1.075 13.746.026 1.054.086 1.825.893 1.825 1.302 0 3.627-3.556 4.356-5.716.685-2.022 1.492-8.818 1.11-11.08 1.033-.3 1.623-.403 2.69-.403s1.918.497 1.909 2.108c-.026 2.734-.868 11.09-.885 13.155-.009 1.388.13 2.065.894 2.065.72 0 1.934-1.114 2.81-2.254.148-1.825.304-3.84.409-5.339.19-2.742.607-7.635.338-9.212 1.024-.412 1.562-.454 2.282-.454s1.935.377 2.204 1.43c.225.9-.035 2.443-.157 3.874 1.024-2.142 4.677-6.016 6.994-6.016 2.169 0 2.585 2.177 2.36 4.962 1.596-2.485 4.147-4.885 6.394-4.885 1.978 0 2.534 1.466 2.534 3.086 0 2.27-1.45 12.151-1.25 15.46zm42.446 6.282c-1.31 3.933-3.879 6.479-8.338 6.479-2.76 0-6.16-1.577-6.16-4.388 0-1.157.607-2.177 1.821-2.785.608 1.482 2.36 3.205 4.79 3.205 3.6 0 4.685-5.862 5.197-10.567-1.215 1.877-3.965 4.86-6.533 4.86-1.614 0-2.681-.798-3.176-2.417-1.319 1.285-3.384 2.7-5.345 2.7-2.394 0-2.967-2.066-2.967-4.551 0-2.486.833-10.901.954-12.144.078-.822-.112-1.2-.46-1.2-.91 0-2.81 2.486-3.8 4.928-.902 2.22-1.9 7.781-1.44 11.466-.72.378-1.866.677-3.037.677-1.18 0-1.518-.71-1.518-2.065 0-3.95 1.18-12.254 1.18-14.251 0-.592-.026-1.08-.46-1.08-.86 0-3.61 3.18-4.217 5.63-.607 2.443-1.327 9.067-1.51 10.335-.104.729-.173 1.251-1.015 1.457-.72.172-2.178.249-2.69.154-.46-.094-.754-.437-.659-1.525.321-3.496 1.189-11.612 1.345-14.474.07-1.38.078-2.897-.19-4.474.763-.222 1.63-.377 2.394-.377 2.238 0 2.733 2.083 2.507 4.534 1.397-2.708 4.356-5.142 6.638-5.142s2.368 3.23 2.143 5.904c1.44-2.759 4.39-6.015 6.941-6.015 1.822 0 2.395 1.13 2.395 3.153 0 2.742-1.25 10.035-1.25 13.386 0 1.543.217 2.297 1.094 2.297.65 0 1.76-.874 2.655-1.851.008-4.071 1.492-12.992.876-15.871.581-.275 1.544-.48 2.308-.48 1.293 0 2.343.702 2.43 2.408.13 2.382-1.354 11.312-1.155 13.574.096 1.071.339 1.543.955 1.543 1.405 0 3.41-2.52 4.225-4.602.807-2.083 1.657-8.981 1.38-12.066.79-.326 1.544-.523 2.23-.523 1.422 0 2.203.874 2.203 2.16 0 5.587-1.752 19.024-2.741 21.998zm63.425-4.628c.373 1.611 1.24 2.485 2.455 3.137-.764.95-2.412 1.98-4.017 1.542-1.276-.351-2.265-1.362-2.612-2.948-1.197-5.544 1.388-14.585 1.033-17.216-.078-.6-.33-.763-.764-.763-.954 0-3.418 2.914-4.095 5.099-.807 2.605-1.466 8.673-1.137 11.38-.867.43-2.134.729-3.063.652-.989-.077-1.449-.454-1.466-1.843-.043-3.093 1.284-12.28 1.284-14.311 0-.334-.078-.9-.494-.9-.833 0-3.61 3.72-4.26 5.939-.643 2.22-.885 7.781-1.007 9.212-.087 1.072-.243 1.474-.928 1.723-.52.188-2.091.42-3.002.403-.651-.017-.738-.634-.686-1.2.026-.283.078-.823.139-1.525-1.215 1.208-3.132 2.613-4.685 2.613-2.43 0-3.34-2.545-3.237-6.05-.989 2.605-3.453 6.076-6.49 6.076-2.56 0-3.28-2.04-3.4-4.396-.13-2.503.763-10.738.763-11.99 0-1.525-.078-2.724-1.484-2.724-.763 0-1.848.668-2.664 1.345.955 1.611 1.493 3.625 1.458 5.862-.087 5.347-4.182 10.172-9.145 10.172-1.406 0-2.646-.309-3.687-.874-.347.36-.66.805-.66 1.242-.009 1.277 3.202 1.903 6.481 2.691 3.54.849 6.577 1.954 6.551 5.888C127.7 39.163 123.51 42 118.573 42c-4.512 0-9.076-1.663-9.05-5.39.017-2.357 2.065-4.174 3.93-5.142-1.449-.746-2.264-1.748-2.255-3.437.008-1.748 1.249-3.145 2.368-4.062-1.319-1.525-2.021-3.745-1.987-6.47.07-5.596 3.523-10.986 8.876-10.986 1.822 0 3.436.677 4.72 1.842 1.588-1.38 3.879-2.46 5.657-2.46 3.08 0 4.425 1.998 4.373 5.331-.043 3.008-.98 9.89-.833 11.715.061.677.304 1.328 1.068 1.328 1.067 0 2.35-2.305 3.418-4.559 1.588-3.36 2.143-9.71 1.822-11.98.86-.249 1.57-.429 2.404-.429 1.466 0 2.316.874 2.316 2.434 0 1.877-1.128 11.004-.954 13.197.078 1.012.2 1.466.859 1.466.78 0 2.047-1.174 2.863-2.134.139-1.748.286-3.65.39-5.116.191-2.742.608-7.627.339-9.212 1.024-.412 1.562-.455 2.282-.455s1.935.377 2.204 1.431c.225.9.078 2.357-.035 3.788 1.024-2.142 4.564-5.93 6.88-5.93 2.17 0 2.586 2.177 2.36 4.962 1.597-2.485 4.304-4.885 6.542-4.885 1.979 0 2.716 1.217 2.907 2.991.347 3.06-2.577 12.546-1.492 17.182zM118.59 39.54c2.785 0 4.512-1.26 4.52-3.213.018-1.954-1.5-2.417-5.553-3.47a35.625 35.625 0 0 1-1.7-.472c-1.362 1.191-2.03 2.46-2.04 3.933-.017 2.28 2.413 3.223 4.773 3.223zm1.84-30.559c-2.283 0-3.957 4.636-4.018 8.261-.052 3.47.816 6.376 2.837 6.376 2.43 0 4.113-4.122 4.156-7.25.052-3.256-.624-7.387-2.976-7.387z"></path>
</svg>
