<svg width="36" height="43" viewBox="0 0 36 43" class="nuts nuts-one" xmlns="http://www.w3.org/2000/svg" xmlns:xlink="http://www.w3.org/1999/xlink">
    <path fill="#fff" fill-opacity=".2" fill-rule="evenodd" d="M452.772058,63.0678419 L451.25963,63.0678419 L451.043304,61.8193731 C450.995543,61.5439122 449.92195,55.0161349 454.097958,50.082545 C456.783431,46.9098927 460.946799,45.1830958 466.484503,44.9376427 C466.829848,42.6752872 467.968357,40.8219005 469.626915,39.9260685 L471.069056,42.5699903 C470.491224,42.8821075 469.840803,43.6651856 469.550803,44.9495021 C474.956148,45.237631 479.028959,46.960295 481.671546,50.082006 C485.848005,55.0156856 484.775134,61.5435528 484.727283,61.8191935 L484.511047,63.0678419 L482.736988,63.0678419 L482.738284,63.0333727 L452.773353,63.0333727 L452.772058,63.0678419 Z M453.849238,65.1218042 C453.866278,68.528825 454.235548,74.1967877 456.671115,78.1907013 C460.066869,83.7569708 467.18702,85.7372169 467.488576,85.818795 L467.885294,85.9260685 L468.282011,85.8187052 C468.583387,85.7372169 475.702003,83.756881 479.099382,78.1902521 C481.533917,74.1966581 481.902767,68.5287528 481.91968,65.1218042 L453.849238,65.1218042 Z M476.953911,68.2856075 L473.932212,68.3754513 C474.00408,70.7657442 473.509853,73.9515138 470.747457,75.5548653 L472.270495,78.1534161 C475.4269,76.3215021 477.090153,72.8170567 476.953911,68.2856075 Z" transform="rotate(24 341.182 -1018.968)"></path>
</svg>
