<svg xmlns="http://www.w3.org/2000/svg" viewBox="182 68 142.83 24">
  <defs>
    <style>
      .cls-1, .cls-2 {
        fill: #fff;
      }

      .cls-1 {
        fill-rule: evenodd;
      }
    </style>
  </defs>
  <g id="logo" transform="translate(155.523 41.957)">
    <path id="Path_1" data-name="Path 1" class="cls-1" d="M301.308,84.237a9.354,9.354,0,0,1-6.818-2.528c-2.052-2.2-2.273-4.184-2.273-7.077V60.615h5.3V74.634c0,2.043,1.01,4.374,3.788,4.3,2.715.078,3.535-2.167,3.535-4.3V60.615h5.3V74.634c0,2.7-.316,5.066-2.273,7.077A9,9,0,0,1,301.308,84.237Z" transform="translate(-178.742 -34.195)"/>
    <path id="Path_2" data-name="Path 2" class="cls-1" d="M406.166,75.022H399.1v8.846h-5.3V60.615h5.3v9.1h7.071v-9.1h5.3V83.868h-5.3Z" transform="translate(-242.163 -34.195)"/>
    <rect id="Rectangle_3" data-name="Rectangle 3" class="cls-2" width="5.303" height="23.253" transform="translate(46.173 26.42)"/>
    <path id="Path_3" data-name="Path 3" class="cls-2" d="M244.413,65.67v6.066h3.03c2.013,0,3.788-.7,3.788-3.033,0-2.463-2-3.033-4.04-3.033h-2.777ZM247.7,76.538h-3.283v7.33h-5.3V60.615h8.081c2.3,0,5.176.094,7.07,1.77a7.56,7.56,0,0,1,2.778,6.066,8.06,8.06,0,0,1-2.525,6.066C252.556,76.327,250.379,76.577,247.7,76.538Z" transform="translate(-145.582 -34.195)"/>
    <path id="Path_4" data-name="Path 4" class="cls-2" d="M65.906,73.758v10.11H60.6V60.615h5.3v10.11l6.565-10.11h6.061L71.208,72.241l7.323,11.627H72.471Z" transform="translate(-34.126 -34.195)"/>
    <path id="Path_5" data-name="Path 5" class="cls-1" d="M191.977,73.746v10.11h-5.3V60.6h5.3v10.11l6.565-10.11h6.06L197.279,72.23,204.6,83.857h-6.06Z" transform="translate(-112.842 -34.187)"/>
    <path id="Path_6" data-name="Path 6" class="cls-1" d="M134.24,76.027c0,4.875,4.193,7.583,8.838,7.583,4.625,0,8.444-2.169,8.838-7.835h-5.125a3.345,3.345,0,0,1-3.713,3.286c-3.535,0-3.535-2.78-3.535-2.78V66.94s0-2.78,3.535-2.78a3.345,3.345,0,0,1,3.713,3.286h5.125c-.394-5.666-4.213-7.835-8.838-7.835-4.645,0-8.838,2.708-8.838,7.583v8.834Z" transform="translate(-80.104 -33.567)"/>
    <path id="Path_7" data-name="Path 7" class="cls-2" d="M355.3,69.369c-.276-.133-.567-.262-.875-.4-1.616-.718-3.449-1.532-3.449-3.031a2.291,2.291,0,0,1,2.326-1.952,3.182,3.182,0,0,1,2.89,3h5.422a7.99,7.99,0,0,0-8.293-7.37,8.54,8.54,0,0,0-5.247,1.632,5.917,5.917,0,0,0-2.416,4.689,6.577,6.577,0,0,0,4.352,6.455l.517.222c2.812,1.2,5.469,2.341,5.469,3.946a2.2,2.2,0,0,1-2.164,2.415c-1.6,0-2.584-1-2.881-2.731h-5.457a8.028,8.028,0,0,0,8.054,7.369c4.778,0,8.115-2.971,8.115-7.428C361.66,72.424,358.132,70.73,355.3,69.369Z" transform="translate(-212.004 -33.573)"/>
  </g>
</svg>
