<?xml version="1.0" encoding="utf-8"?>
<!-- Generator: Adobe Illustrator 21.0.2, SVG Export Plug-In . SVG Version: 6.00 Build 0)  -->
<svg version="1.1" id="Layer_1" xmlns="http://www.w3.org/2000/svg" xmlns:xlink="http://www.w3.org/1999/xlink" x="0px" y="0px"
	 viewBox="0 0 112 112" style="enable-background:new 0 0 112 112;" xml:space="preserve">
<style type="text/css">
	.st0{fill:#231F20;}
</style>
<rect x="74" y="99.1" class="st0" width="36" height="3"/>
<rect x="2" y="108.1" class="st0" width="108" height="3"/>
<rect x="54.5" y="19.6" class="st0" width="3" height="63"/>
<rect x="11" y="18.1" class="st0" width="27" height="3"/>
<rect x="11" y="27.1" class="st0" width="27" height="3"/>
<rect x="29" y="63.1" class="st0" width="9" height="3"/>
<rect x="29" y="72.1" class="st0" width="9" height="3"/>
<path class="st0" d="M56.8,102.1H2v-3h53.2c5-7.5,10.9-9,18.8-9h34.5v-87H74c-7.2,0-10.9,2.5-16.9,8.6L56,12.7l-1.1-1.1
	c-6-6-9.7-8.6-16.9-8.6H3.5V90L47,90.1l0,3L0.5,93V0.1H38c8.4,0,12.9,3.4,18,8.4c5.1-5,9.6-8.4,18-8.4h37.5v93H74
	c-7.5,0-12.3,1.3-16.7,8.3L56.8,102.1z"/>
<rect x="92" y="18.1" class="st0" width="9" height="3"/>
<rect x="92" y="36.1" class="st0" width="9" height="3"/>
<rect x="92" y="27.1" class="st0" width="9" height="3"/>
<rect x="74" y="54.1" class="st0" width="27" height="3"/>
<rect x="74" y="45.1" class="st0" width="27" height="3"/>
<rect x="74" y="63.1" class="st0" width="27" height="3"/>
<rect x="74" y="72.1" class="st0" width="18" height="3"/>
<path class="st0" d="M84.5,37.6h-12v-21h12V37.6z M75.5,34.6h6v-15h-6V34.6z"/>
<path class="st0" d="M39.5,48.1h-12v-12h12V48.1z M30.5,45.1h6v-6h-6V45.1z"/>
<rect x="11" y="35.8" class="st0" width="9" height="3"/>
<rect x="11" y="45.1" class="st0" width="9" height="3"/>
<rect x="11" y="54.1" class="st0" width="26.5" height="3"/>
<path class="st0" d="M21.5,75.1h-12v-12h12V75.1z M12.5,72.1h6v-6h-6V72.1z"/>
</svg>
