<?xml version="1.0" encoding="utf-8"?>
<!-- Generator: Adobe Illustrator 21.0.2, SVG Export Plug-In . SVG Version: 6.00 Build 0)  -->
<svg version="1.1" id="Layer_1" xmlns="http://www.w3.org/2000/svg" xmlns:xlink="http://www.w3.org/1999/xlink" x="0px" y="0px"
	 viewBox="0 0 92 110" style="enable-background:new 0 0 92 110;" xml:space="preserve">
<style type="text/css">
	.st0{fill:#231F20;}
</style>
<path class="st0" d="M93.6,110.1H14.4l12-12h55.2L93.6,110.1z M21.6,107.1h64.8l-6-6H27.6L21.6,107.1z"/>
<rect y="71.1" class="st0" width="36" height="3"/>
<path class="st0" d="M54.6,101.1c-3.3,0-6-2.7-6-6s2.7-6,6-6s6,2.7,6,6S57.9,101.1,54.6,101.1z M54.6,92.1c-1.7,0-3,1.3-3,3
	s1.3,3,3,3s3-1.3,3-3S56.2,92.1,54.6,92.1z"/>
<path class="st0" d="M54,38.1c-3.3,0-6-2.7-6-6s2.7-6,6-6s6,2.7,6,6S57.3,38.1,54,38.1z M54,29.1c-1.7,0-3,1.3-3,3s1.3,3,3,3
	s3-1.3,3-3S55.7,29.1,54,29.1z"/>
<path class="st0" d="M31.3,47.2L16.4,32.3l32-32l14.8,14.8L31.3,47.2z M20.7,32.3l10.6,10.6L59,15.2L48.4,4.6L20.7,32.3z"/>
<rect x="40.6" y="12.5" transform="matrix(0.7071 -0.7071 0.7071 0.7071 -2.9069 36.046)" class="st0" width="3" height="18"/>
<polygon class="st0" points="22.8,49.3 20.7,47.2 26,41.9 21.7,37.6 16.4,42.9 14.3,40.8 21.7,33.4 30.2,41.9 "/>
<rect x="10.7" y="46.9" transform="matrix(0.7071 -0.7071 0.7071 0.7071 -32.7817 23.6691)" class="st0" width="3" height="9"/>
<path class="st0" d="M54,92.1v-3c14.1,0,25.5-11.4,25.5-25.5h3C82.5,79.3,69.7,92.1,54,92.1z"/>
<path class="st0" d="M35,84.8c-3.6-3.2-6.3-7.3-7.9-11.7l2.8-1c1.4,4,3.9,7.6,7,10.5L35,84.8z"/>
<path class="st0" d="M54,101.1c-17.1,0-32.1-11.6-36.3-28.1l2.9-0.7C24.5,87.5,38.2,98.1,54,98.1c19,0,34.5-15.5,34.5-34.5
	S73,29.1,54,29.1v-3c20.7,0,37.5,16.8,37.5,37.5S74.7,101.1,54,101.1z"/>
</svg>
