<?xml version="1.0" encoding="utf-8"?>
<!-- Generator: Adobe Illustrator 21.0.2, SVG Export Plug-In . SVG Version: 6.00 Build 0)  -->
<svg version="1.1" id="Layer_1" xmlns="http://www.w3.org/2000/svg" xmlns:xlink="http://www.w3.org/1999/xlink" x="0px" y="0px"
	 viewBox="0 0 112 112" style="enable-background:new 0 0 112 112;" xml:space="preserve">
<style type="text/css">
	.st0{fill:#231F20;}
</style>
<path class="st0" d="M15.5,12.1c-3.3,0-6-2.7-6-6s2.7-6,6-6s6,2.7,6,6S18.8,12.1,15.5,12.1z M15.5,3.1c-1.7,0-3,1.3-3,3s1.3,3,3,3
	s3-1.3,3-3S17.2,3.1,15.5,3.1z"/>
<path class="st0" d="M51.5,12.1c-3.3,0-6-2.7-6-6s2.7-6,6-6s6,2.7,6,6S54.8,12.1,51.5,12.1z M51.5,3.1c-1.7,0-3,1.3-3,3s1.3,3,3,3
	s3-1.3,3-3S53.2,3.1,51.5,3.1z"/>
<path class="st0" d="M33.5,75.1c-18.2,0-33-14.8-33-33v-27C0.5,9.3,5.2,4.6,11,4.6v3c-4.1,0-7.5,3.4-7.5,7.5v27
	c0,16.5,13.5,30,30,30s30-13.5,30-30v-27c0-4.1-3.4-7.5-7.5-7.5l0-3c5.8,0,10.5,4.7,10.5,10.5v27C66.5,60.3,51.7,75.1,33.5,75.1z"/>
<polygon class="st0" points="39.5,82.6 36.5,82.6 36.5,75.1 30.5,75.1 30.5,82.6 27.5,82.6 27.5,72.1 39.5,72.1 "/>
<path class="st0" d="M58.2,111.1C43.8,111.1,32,99.3,32,84.8v-2.2h3v2.2c0,12.8,10.4,23.2,23.2,23.2s23.2-10.4,23.2-23.2V19.6
	c0-5.8,4.7-10.5,10.5-10.5s10.5,4.7,10.5,10.5v72h-3v-72c0-4.1-3.4-7.5-7.5-7.5s-7.5,3.4-7.5,7.5v65.2
	C84.5,99.3,72.7,111.1,58.2,111.1z"/>
<path class="st0" d="M101,111.1c-5.8,0-10.5-4.7-10.5-10.5s4.7-10.5,10.5-10.5s10.5,4.7,10.5,10.5S106.8,111.1,101,111.1z M101,93.1
	c-4.1,0-7.5,3.4-7.5,7.5s3.4,7.5,7.5,7.5s7.5-3.4,7.5-7.5S105.1,93.1,101,93.1z"/>
<path class="st0" d="M101,103.9c-1.8,0-3.3-1.5-3.3-3.3s1.5-3.3,3.3-3.3s3.3,1.5,3.3,3.3S102.8,103.9,101,103.9z M101,100.3
	c-0.2,0-0.3,0.1-0.3,0.3s0.1,0.3,0.3,0.3s0.3-0.1,0.3-0.3S101.2,100.3,101,100.3z"/>
<path class="st0" d="M33.5,66.1c-13.2,0-24-10.8-24-24V19.6h3v22.5c0,11.6,9.4,21,21,21V66.1z"/>
<rect x="54.5" y="19.6" class="st0" width="3" height="22.5"/>
</svg>
