<?xml version="1.0" encoding="UTF-8"?>
<svg width="400px" height="231px" viewBox="0 0 400 231" version="1.1" xmlns="http://www.w3.org/2000/svg" xmlns:xlink="http://www.w3.org/1999/xlink">
    <!-- Generator: Sketch 43.1 (39012) - http://www.bohemiancoding.com/sketch -->
    <title>Group 22</title>
    <desc>Created with Sketch.</desc>
    <defs>
        <ellipse id="path-1" cx="19.8757764" cy="19.8709677" rx="19.8757764" ry="19.8709677"></ellipse>
    </defs>
    <g id="Features" stroke="none" stroke-width="1" fill="none" fill-rule="evenodd">
        <g id="Group-22">
            <rect id="Rectangle" fill="#0095FF" x="0" y="0" width="400" height="231"></rect>
            <g id="Group-14" transform="translate(52.173913, 79.483871)">
                <g id="Group-13">
                    <path d="M4.54747351e-13,16.1418145 C4.54747351e-13,7.22693653 7.22272472,0 16.1428262,0 L278.267112,0 C287.182548,0 294.409938,7.23543141 294.409938,16.1418145 L294.409938,40.9872177 C294.409938,49.9020957 287.18543,57.1290323 278.260559,57.1290323 L63.6063665,57.1290323 L50.9450214,66.1609596 L50.9450214,57.1290323 L16.1543134,57.1290323 C7.23253248,57.1290323 4.54747351e-13,49.8936008 4.54747351e-13,40.9872177 L4.54747351e-13,16.1418145 Z" id="Rectangle-11" fill="#FFFFFF"></path>
                    <path d="M44.2956522,21.1417752 L44.2956522,26.7989181 L37.3863354,26.7989181 L37.3863354,21.1417752 L35.0608696,21.1417752 L35.0608696,34.8709677 L37.3863354,34.8709677 L37.3863354,28.8560609 L44.2956522,28.8560609 L44.2956522,34.8709677 L46.621118,34.8709677 L46.621118,21.1417752 L44.2956522,21.1417752 Z M55.6546584,31.7852535 L57.7118012,31.7852535 C57.3763975,33.7529553 55.9229814,35.0945702 53.5304348,35.0945702 C50.757764,35.0945702 48.8347826,32.9927069 48.8347826,29.9293528 C48.8347826,26.9554398 50.7801242,24.7194149 53.4857143,24.7194149 C56.2807453,24.7194149 57.8012422,26.7094771 57.8012422,29.6163094 L57.8012422,30.4212783 L51.026087,30.4212783 C51.0931677,32.1653777 52.0993789,33.2163094 53.5304348,33.2163094 C54.6037267,33.2163094 55.4086957,32.7467441 55.6546584,31.7852535 Z M53.5080745,26.5976758 C52.2782609,26.5976758 51.3614907,27.3579243 51.0931677,28.7889802 L55.5875776,28.7889802 C55.5652174,27.5815267 54.8720497,26.5976758 53.5080745,26.5976758 Z M62.0944099,20.3368063 L59.8583851,20.3368063 L59.8583851,34.8709677 L62.0944099,34.8709677 L62.0944099,20.3368063 Z M67.1031056,20.3368063 L64.8670807,20.3368063 L64.8670807,34.8709677 L67.1031056,34.8709677 L67.1031056,20.3368063 Z M78.6186335,29.9069926 C78.6186335,32.9479864 76.6956522,35.0945702 73.9006211,35.0945702 C71.1055901,35.0945702 69.1826087,32.9479864 69.1826087,29.9069926 C69.1826087,26.8659988 71.1055901,24.7194149 73.9006211,24.7194149 C76.6956522,24.7194149 78.6186335,26.8659988 78.6186335,29.9069926 Z M76.3826087,29.9069926 C76.3826087,28.0287317 75.510559,26.6423963 73.9006211,26.6423963 C72.2906832,26.6423963 71.4186335,28.0287317 71.4186335,29.9069926 C71.4186335,31.7852535 72.2906832,33.1715889 73.9006211,33.1715889 C75.510559,33.1715889 76.3826087,31.7852535 76.3826087,29.9069926 Z M79.6695652,37.3976758 L81.1229814,37.3976758 L82.4198758,35.4523342 C82.7776398,34.9156882 83.068323,34.2448808 83.068323,33.6635143 C83.068323,32.5678622 82.3975155,31.9864957 81.5478261,31.9864957 C80.6981366,31.9864957 80.0273292,32.6125826 80.0273292,33.4846323 C80.0273292,34.2896013 80.5639752,34.803887 81.2795031,34.9156882 L79.6695652,37.3976758 Z M90.1118012,34.8709677 L92.3478261,34.8709677 L92.3478261,28.3417752 C92.5937888,27.3579243 93.4658385,26.7541976 94.4273292,26.7541976 C95.7018634,26.7541976 96.3055901,27.5591665 96.3055901,28.7889802 L96.3055901,34.8709677 L98.5416149,34.8709677 L98.5416149,28.4088559 C98.5416149,26.2175516 97.289441,24.7194149 95.0310559,24.7194149 C93.868323,24.7194149 92.884472,25.2560609 92.3478261,25.8821479 L92.3478261,20.3368063 L90.1118012,20.3368063 L90.1118012,34.8709677 Z M109.922981,29.9069926 C109.922981,32.9479864 108,35.0945702 105.204969,35.0945702 C102.409938,35.0945702 100.486957,32.9479864 100.486957,29.9069926 C100.486957,26.8659988 102.409938,24.7194149 105.204969,24.7194149 C108,24.7194149 109.922981,26.8659988 109.922981,29.9069926 Z M107.686957,29.9069926 C107.686957,28.0287317 106.814907,26.6423963 105.204969,26.6423963 C103.595031,26.6423963 102.722981,28.0287317 102.722981,29.9069926 C102.722981,31.7852535 103.595031,33.1715889 105.204969,33.1715889 C106.814907,33.1715889 107.686957,31.7852535 107.686957,29.9069926 Z M118.956522,24.9430174 L116.921739,24.9430174 L115.17764,31.9864957 L113.254658,24.9430174 L111.018634,24.9430174 L113.903106,34.8709677 L116.13913,34.8709677 L117.90559,27.961651 L119.67205,34.8709677 L121.908075,34.8709677 L124.792547,24.9430174 L122.623602,24.9430174 L120.700621,31.9864957 L118.956522,24.9430174 Z M130.829814,29.9069926 C130.829814,32.9927069 132.775155,35.0945702 135.458385,35.0945702 C137.828571,35.0945702 139.326708,33.7529553 139.617391,31.7628932 L137.381366,31.7628932 C137.202484,32.6573031 136.464596,33.1492286 135.480745,33.1492286 C133.982609,33.1492286 133.065839,31.7852535 133.065839,29.9069926 C133.065839,28.0287317 133.982609,26.6647566 135.480745,26.6647566 C136.464596,26.6647566 137.202484,27.156682 137.381366,28.051092 L139.617391,28.051092 C139.326708,26.0610299 137.828571,24.7194149 135.458385,24.7194149 C132.775155,24.7194149 130.829814,26.8212783 130.829814,29.9069926 Z M149.254658,34.8709677 L147.130435,34.8709677 L147.130435,34.3119615 C146.795031,34.6473653 145.78882,35.0498497 144.670807,35.0498497 C142.636025,35.0498497 140.959006,33.8423963 140.959006,31.8076137 C140.959006,29.9293528 142.636025,28.6100982 144.827329,28.6100982 C145.721739,28.6100982 146.72795,28.9231417 147.130435,29.2138249 L147.130435,28.4088559 C147.130435,27.4026448 146.504348,26.6200361 145.229814,26.6200361 C144.335404,26.6200361 143.776398,27.0001603 143.530435,27.693328 L141.383851,27.693328 C141.674534,25.9939491 143.239752,24.7194149 145.274534,24.7194149 C147.778882,24.7194149 149.254658,26.1057504 149.254658,28.3641354 L149.254658,34.8709677 Z M147.130435,32.2324584 L147.130435,31.4051292 C146.884472,30.7790423 145.990062,30.3989181 145.095652,30.3989181 C144.089441,30.3989181 143.038509,30.8237628 143.038509,31.8076137 C143.038509,32.8138249 144.089441,33.2386696 145.095652,33.2386696 C145.990062,33.2386696 146.884472,32.8585454 147.130435,32.2324584 Z M151.893168,34.8709677 L154.129193,34.8709677 L154.129193,28.3417752 C154.375155,27.3579243 155.247205,26.7541976 156.208696,26.7541976 C157.48323,26.7541976 158.086957,27.5591665 158.086957,28.7889802 L158.086957,34.8709677 L160.322981,34.8709677 L160.322981,28.4088559 C160.322981,26.2175516 159.070807,24.7194149 156.812422,24.7194149 C155.649689,24.7194149 154.665839,25.2560609 154.129193,25.8821479 L154.129193,24.9430174 L151.893168,24.9430174 L151.893168,34.8709677 Z M170.362733,21.1417752 L168.037267,21.1417752 L168.037267,34.8709677 L170.362733,34.8709677 L170.362733,21.1417752 Z M178.21118,34.8709677 L180.447205,34.8709677 L180.447205,28.3417752 C180.693168,27.3579243 181.565217,26.7541976 182.526708,26.7541976 C183.801242,26.7541976 184.404969,27.5591665 184.404969,28.7889802 L184.404969,34.8709677 L186.640994,34.8709677 L186.640994,28.4088559 C186.640994,26.2175516 185.38882,24.7194149 183.130435,24.7194149 C181.967702,24.7194149 180.983851,25.2560609 180.447205,25.8821479 L180.447205,20.3368063 L178.21118,20.3368063 L178.21118,34.8709677 Z M195.406211,31.7852535 L197.463354,31.7852535 C197.12795,33.7529553 195.674534,35.0945702 193.281988,35.0945702 C190.509317,35.0945702 188.586335,32.9927069 188.586335,29.9293528 C188.586335,26.9554398 190.531677,24.7194149 193.237267,24.7194149 C196.032298,24.7194149 197.552795,26.7094771 197.552795,29.6163094 L197.552795,30.4212783 L190.77764,30.4212783 C190.84472,32.1653777 191.850932,33.2163094 193.281988,33.2163094 C194.35528,33.2163094 195.160248,32.7467441 195.406211,31.7852535 Z M193.259627,26.5976758 C192.029814,26.5976758 191.113043,27.3579243 190.84472,28.7889802 L195.33913,28.7889802 C195.31677,27.5815267 194.623602,26.5976758 193.259627,26.5976758 Z M201.845963,20.3368063 L199.609938,20.3368063 L199.609938,34.8709677 L201.845963,34.8709677 L201.845963,20.3368063 Z M206.854658,34.0212783 L206.854658,38.67221 L204.618634,38.67221 L204.618634,24.9430174 L206.854658,24.9430174 L206.854658,25.7927069 C207.301863,25.2337007 208.285714,24.7194149 209.381366,24.7194149 C212.288199,24.7194149 213.987578,27.1343218 213.987578,29.9069926 C213.987578,32.6796634 212.288199,35.0945702 209.381366,35.0945702 C208.285714,35.0945702 207.301863,34.5802845 206.854658,34.0212783 Z M206.854658,28.0287317 L206.854658,31.7852535 C207.234783,32.5678622 208.084472,33.1045081 209.001242,33.1045081 C210.722981,33.1045081 211.751553,31.740533 211.751553,29.9069926 C211.751553,28.0734522 210.722981,26.7094771 209.001242,26.7094771 C208.084472,26.7094771 207.234783,27.246123 206.854658,28.0287317 Z M224.631056,38.67221 L229.863354,24.9430174 L227.560248,24.9430174 L225.01118,32.2548187 L222.417391,24.9430174 L220.024845,24.9430174 L223.870807,35.1392907 L222.462112,38.67221 L224.631056,38.67221 Z M240.395031,29.9069926 C240.395031,32.9479864 238.47205,35.0945702 235.677019,35.0945702 C232.881988,35.0945702 230.959006,32.9479864 230.959006,29.9069926 C230.959006,26.8659988 232.881988,24.7194149 235.677019,24.7194149 C238.47205,24.7194149 240.395031,26.8659988 240.395031,29.9069926 Z M238.159006,29.9069926 C238.159006,28.0287317 237.286957,26.6423963 235.677019,26.6423963 C234.067081,26.6423963 233.195031,28.0287317 233.195031,29.9069926 C233.195031,31.7852535 234.067081,33.1715889 235.677019,33.1715889 C237.286957,33.1715889 238.159006,31.7852535 238.159006,29.9069926 Z M250.725466,24.9430174 L248.489441,24.9430174 L248.489441,31.47221 C248.243478,32.4560609 247.393789,33.0597876 246.432298,33.0597876 C245.157764,33.0597876 244.576398,32.2548187 244.576398,31.025005 L244.576398,24.9430174 L242.340373,24.9430174 L242.340373,31.4051292 C242.340373,33.5964336 243.570186,35.0945702 245.828571,35.0945702 C246.991304,35.0945702 247.952795,34.5579243 248.489441,33.9318373 L248.489441,34.8709677 L250.725466,34.8709677 L250.725466,24.9430174 Z M255.6,33.4846323 C255.6,34.356682 256.270807,35.0274895 257.120497,35.0274895 C257.970186,35.0274895 258.640994,34.356682 258.640994,33.4846323 C258.640994,32.6125826 257.970186,31.9417752 257.120497,31.9417752 C256.270807,31.9417752 255.6,32.6125826 255.6,33.4846323 Z M261.525466,24.8982969 C261.525466,22.4610299 259.915528,20.9181727 257.165217,20.9181727 C254.616149,20.9181727 252.827329,22.7069926 252.559006,25.2560609 L254.973913,25.2560609 C255.063354,23.9591665 255.778882,22.9753156 257.165217,22.9753156 C258.462112,22.9753156 259.24472,23.7802845 259.24472,24.9206572 C259.24472,26.1057504 258.238509,26.8212783 257.478261,27.6709677 C256.49441,28.7442597 256.181366,29.3256261 256.114286,30.5554398 L258.30559,30.5554398 C258.30559,30.0858746 258.462112,29.5939491 259.24472,28.7889802 C260.295652,27.7156882 261.525466,26.5753156 261.525466,24.8982969 Z" id="Hello,-how-can-I-hel" fill="#0095FF"></path>
                </g>
                <path d="M183.869565,79.5483871 L189.713043,79.5483871 L189.713043,78.490002 L185.047205,78.490002 L185.047205,70.3955921 L183.869565,70.3955921 L183.869565,79.5483871 Z M196.093168,79.5483871 L195.019876,79.5483871 L195.019876,79.0564616 C194.76646,79.3247846 194.065839,79.6676418 193.275776,79.6676418 C191.934161,79.6676418 190.816149,78.8626728 190.816149,77.5508716 C190.816149,76.3136045 191.934161,75.4788219 193.350311,75.4788219 C194.036025,75.4788219 194.736646,75.7620517 195.019876,76.0154678 L195.019876,75.1806852 C195.019876,74.3608095 194.513043,73.7645362 193.559006,73.7645362 C192.858385,73.7645362 192.41118,74.0626728 192.202484,74.6738529 L191.099379,74.6738529 C191.322981,73.5558405 192.306832,72.7955921 193.573913,72.7955921 C195.154037,72.7955921 196.093168,73.690002 196.093168,75.1359647 L196.093168,79.5483871 Z M195.019876,77.9086355 L195.019876,77.2229213 C194.826087,76.7309958 194.15528,76.4030455 193.469565,76.4030455 C192.664596,76.4030455 191.889441,76.7608095 191.889441,77.5508716 C191.889441,78.3558405 192.664596,78.7285113 193.469565,78.7285113 C194.15528,78.7285113 194.826087,78.400561 195.019876,77.9086355 Z M197.449689,77.7297536 C197.658385,78.9521138 198.71677,79.6825486 200.162733,79.6825486 C201.578882,79.6825486 202.62236,78.937207 202.62236,77.6850331 C202.62236,76.7608095 202.070807,76.1347225 200.937888,75.8365859 L199.655901,75.5235424 C199.029814,75.3446604 198.731677,75.1359647 198.731677,74.6887598 C198.731677,74.047766 199.342857,73.7347225 199.998758,73.7347225 C200.803727,73.7347225 201.265839,74.0775796 201.459627,74.6738529 L202.57764,74.6738529 C202.33913,73.51112 201.474534,72.7955921 200.013665,72.7955921 C198.67205,72.7955921 197.643478,73.5707473 197.643478,74.7483871 C197.643478,75.7769585 198.299379,76.2539772 199.238509,76.4924865 L200.550311,76.8353436 C201.236025,77.0142256 201.534161,77.2974554 201.534161,77.7595672 C201.534161,78.4303747 200.967702,78.7434182 200.17764,78.7434182 C199.402484,78.7434182 198.821118,78.4154678 198.612422,77.7297536 L197.449689,77.7297536 Z M204.485714,77.8788219 C204.485714,79.1011821 205.231056,79.6825486 206.304348,79.6825486 C206.706832,79.6825486 207.09441,79.5931076 207.347826,79.4589461 L207.347826,78.4154678 C207.124224,78.5645362 206.796273,78.6837908 206.48323,78.6837908 C205.91677,78.6837908 205.603727,78.400561 205.603727,77.7595672 L205.603727,73.8837908 L207.198758,73.8837908 L207.198758,72.9297536 L205.603727,72.9297536 L205.603727,71.1856542 L204.485714,71.1856542 L204.485714,72.9297536 L203.412422,72.9297536 L203.412422,73.8837908 L204.485714,73.8837908 L204.485714,77.8788219 Z M211.640994,77.7297536 C211.849689,78.9521138 212.908075,79.6825486 214.354037,79.6825486 C215.770186,79.6825486 216.813665,78.937207 216.813665,77.6850331 C216.813665,76.7608095 216.262112,76.1347225 215.129193,75.8365859 L213.847205,75.5235424 C213.221118,75.3446604 212.922981,75.1359647 212.922981,74.6887598 C212.922981,74.047766 213.534161,73.7347225 214.190062,73.7347225 C214.995031,73.7347225 215.457143,74.0775796 215.650932,74.6738529 L216.768944,74.6738529 C216.530435,73.51112 215.665839,72.7955921 214.204969,72.7955921 C212.863354,72.7955921 211.834783,73.5707473 211.834783,74.7483871 C211.834783,75.7769585 212.490683,76.2539772 213.429814,76.4924865 L214.741615,76.8353436 C215.427329,77.0142256 215.725466,77.2974554 215.725466,77.7595672 C215.725466,78.4303747 215.159006,78.7434182 214.368944,78.7434182 C213.593789,78.7434182 213.012422,78.4154678 212.803727,77.7297536 L211.640994,77.7297536 Z M222.537888,77.5657784 L223.596273,77.5657784 C223.357764,78.8179523 222.418634,79.6825486 220.92795,79.6825486 C219.124224,79.6825486 217.886957,78.2962132 217.886957,76.2539772 C217.886957,74.2713685 219.09441,72.7955921 220.898137,72.7955921 C222.71677,72.7955921 223.685714,74.1223001 223.685714,76.0452815 L223.685714,76.447766 L219.004969,76.447766 C219.019876,77.863915 219.809938,78.7285113 220.92795,78.7285113 C221.747826,78.7285113 222.359006,78.31112 222.537888,77.5657784 Z M220.913043,73.7496293 C219.914286,73.7496293 219.198758,74.4353436 219.034783,75.5980765 L222.552795,75.5980765 C222.537888,74.6142256 222.016149,73.7496293 220.913043,73.7496293 Z M229.350311,77.5657784 L230.408696,77.5657784 C230.170186,78.8179523 229.231056,79.6825486 227.740373,79.6825486 C225.936646,79.6825486 224.699379,78.2962132 224.699379,76.2539772 C224.699379,74.2713685 225.906832,72.7955921 227.710559,72.7955921 C229.529193,72.7955921 230.498137,74.1223001 230.498137,76.0452815 L230.498137,76.447766 L225.817391,76.447766 C225.832298,77.863915 226.62236,78.7285113 227.740373,78.7285113 C228.560248,78.7285113 229.171429,78.31112 229.350311,77.5657784 Z M227.725466,73.7496293 C226.726708,73.7496293 226.01118,74.4353436 225.847205,75.5980765 L229.365217,75.5980765 C229.350311,74.6142256 228.828571,73.7496293 227.725466,73.7496293 Z M231.98882,79.5483871 L233.106832,79.5483871 L233.106832,75.0614306 C233.345342,74.3459026 234.016149,73.8241635 234.791304,73.8241635 C235.790062,73.8241635 236.252174,74.4651573 236.252174,75.3893809 L236.252174,79.5483871 L237.385093,79.5483871 L237.385093,75.2104989 C237.385093,73.7645362 236.565217,72.7955921 235.059627,72.7955921 C234.209938,72.7955921 233.49441,73.242797 233.106832,73.7645362 L233.106832,72.9297536 L231.98882,72.9297536 L231.98882,79.5483871 Z M238.473292,81.1434182 L239.23354,81.1434182 L240.023602,79.8316169 C240.202484,79.5483871 240.351553,79.20553 240.351553,78.8924865 C240.351553,78.3409337 240.008696,78.0278902 239.561491,78.0278902 C239.114286,78.0278902 238.756522,78.3558405 238.756522,78.8179523 C238.756522,79.2502505 239.039752,79.5036666 239.412422,79.5632939 L238.473292,81.1434182 Z M246.239752,72.9297536 L245.121739,72.9297536 L245.121739,80.2341014 C245.121739,80.979443 244.808696,81.247766 244.227329,81.247766 C244.093168,81.247766 243.929193,81.2179523 243.839752,81.2030455 L243.839752,82.1570827 C243.959006,82.2018032 244.182609,82.2167101 244.31677,82.2167101 C245.554037,82.2167101 246.239752,81.5459026 246.239752,80.3086355 L246.239752,72.9297536 Z M246.403727,70.932238 C246.403727,70.5297536 246.075776,70.2167101 245.673292,70.2167101 C245.285714,70.2167101 244.957764,70.5297536 244.957764,70.932238 C244.957764,71.3198157 245.285714,71.647766 245.673292,71.647766 C246.075776,71.647766 246.403727,71.3198157 246.403727,70.932238 Z M253.484472,72.9297536 L252.351553,72.9297536 L252.351553,77.4167101 C252.113043,78.132238 251.47205,78.6539772 250.696894,78.6539772 C249.698137,78.6539772 249.250932,78.0129834 249.250932,77.0887598 L249.250932,72.9297536 L248.118012,72.9297536 L248.118012,77.2676418 C248.118012,78.7136045 248.922981,79.6825486 250.428571,79.6825486 C251.278261,79.6825486 251.978882,79.2353436 252.351553,78.7136045 L252.351553,79.5483871 L253.484472,79.5483871 L253.484472,72.9297536 Z M254.915528,77.7297536 C255.124224,78.9521138 256.182609,79.6825486 257.628571,79.6825486 C259.04472,79.6825486 260.088199,78.937207 260.088199,77.6850331 C260.088199,76.7608095 259.536646,76.1347225 258.403727,75.8365859 L257.121739,75.5235424 C256.495652,75.3446604 256.197516,75.1359647 256.197516,74.6887598 C256.197516,74.047766 256.808696,73.7347225 257.464596,73.7347225 C258.269565,73.7347225 258.731677,74.0775796 258.925466,74.6738529 L260.043478,74.6738529 C259.804969,73.51112 258.940373,72.7955921 257.479503,72.7955921 C256.137888,72.7955921 255.109317,73.5707473 255.109317,74.7483871 C255.109317,75.7769585 255.765217,76.2539772 256.704348,76.4924865 L258.016149,76.8353436 C258.701863,77.0142256 259,77.2974554 259,77.7595672 C259,78.4303747 258.43354,78.7434182 257.643478,78.7434182 C256.868323,78.7434182 256.286957,78.4154678 256.078261,77.7297536 L254.915528,77.7297536 Z M261.951553,77.8788219 C261.951553,79.1011821 262.696894,79.6825486 263.770186,79.6825486 C264.172671,79.6825486 264.560248,79.5931076 264.813665,79.4589461 L264.813665,78.4154678 C264.590062,78.5645362 264.262112,78.6837908 263.949068,78.6837908 C263.382609,78.6837908 263.069565,78.400561 263.069565,77.7595672 L263.069565,73.8837908 L264.664596,73.8837908 L264.664596,72.9297536 L263.069565,72.9297536 L263.069565,71.1856542 L261.951553,71.1856542 L261.951553,72.9297536 L260.878261,72.9297536 L260.878261,73.8837908 L261.951553,73.8837908 L261.951553,77.8788219 Z M269.658385,79.5483871 L270.776398,79.5483871 L270.776398,75.0614306 C271.014907,74.3459026 271.685714,73.8241635 272.46087,73.8241635 C273.459627,73.8241635 273.921739,74.4651573 273.921739,75.3893809 L273.921739,79.5483871 L275.054658,79.5483871 L275.054658,75.2104989 C275.054658,73.7645362 274.234783,72.7955921 272.729193,72.7955921 C271.879503,72.7955921 271.163975,73.242797 270.776398,73.7645362 L270.776398,72.9297536 L269.658385,72.9297536 L269.658385,79.5483871 Z M282.552795,76.2390703 C282.552795,78.2663995 281.315528,79.6825486 279.511801,79.6825486 C277.693168,79.6825486 276.470807,78.2663995 276.470807,76.2390703 C276.470807,74.2117411 277.693168,72.7955921 279.511801,72.7955921 C281.315528,72.7955921 282.552795,74.2117411 282.552795,76.2390703 Z M281.419876,76.2390703 C281.419876,74.7931076 280.704348,73.779443 279.511801,73.779443 C278.319255,73.779443 277.603727,74.7931076 277.603727,76.2390703 C277.603727,77.6850331 278.319255,78.6986977 279.511801,78.6986977 C280.704348,78.6986977 281.419876,77.6850331 281.419876,76.2390703 Z M288.277019,72.9297536 L287.278261,72.9297536 L285.921739,77.9831697 L284.46087,72.9297536 L283.342857,72.9297536 L285.295652,79.5483871 L286.383851,79.5483871 L287.770186,74.5247846 L289.141615,79.5483871 L290.229814,79.5483871 L292.182609,72.9297536 L291.09441,72.9297536 L289.63354,77.9831697 L288.277019,72.9297536 Z M292.92795,78.8179523 C292.92795,79.2800641 293.285714,79.6229213 293.732919,79.6229213 C294.165217,79.6229213 294.522981,79.2800641 294.522981,78.8179523 C294.522981,78.3558405 294.165217,77.9980765 293.732919,77.9980765 C293.285714,77.9980765 292.92795,78.3558405 292.92795,78.8179523 Z" id="Last-seen,-just-now." fill="#FFFFFF" opacity="0.600000024"></path>
                <g id="Group-12" transform="translate(0.000000, 45.951613)">
                    <g id="Oval-3">
                        <use fill="#FFFFFF" fill-rule="evenodd" xlink:href="#path-1"></use>
                        <ellipse stroke="#0095FF" stroke-width="4.9689441" cx="19.8757764" cy="19.8709677" rx="22.3602484" ry="22.3554398"></ellipse>
                    </g>
                    <path d="M8.69565217,16.766129 C8.69565217,13.6795699 11.1984082,11.1774194 14.2857143,11.1774194 C17.3730203,11.1774194 19.8757764,13.6795699 19.8757764,16.766129 C19.8757764,16.9760218 19.8757764,16.766129 19.8757764,16.766129 C19.856934,17.10908 18.7323362,17.3870968 17.3573976,17.3870968 L19.8134428,17.3870968 C18.4414231,17.3870968 17.3913043,16.766129 17.3913043,16.766129 C17.3913043,16.766129 17.3913043,16.9787893 17.3913043,16.766129 C17.3913043,15.051374 16.0008843,13.6612903 14.2857143,13.6612903 C12.5705443,13.6612903 11.1801242,15.051374 11.1801242,16.766129 C11.1801242,16.9787893 11.1801242,16.766129 11.1801242,16.766129 C11.2144338,17.10908 10.1329243,17.3870968 8.75798573,17.3870968 L11.214031,17.3870968 C9.84201121,17.3870968 8.69565217,16.766129 8.69565217,16.766129 C8.69565217,16.766129 8.69565217,16.9760218 8.69565217,16.766129 Z" id="Combined-Shape" fill="#0095FF"></path>
                    <path d="M21.1180124,16.766129 C21.1180124,13.6795699 23.6207685,11.1774194 26.7080745,11.1774194 C29.7953806,11.1774194 32.2981366,13.6795699 32.2981366,16.766129 C32.2981366,16.9760218 32.2981366,16.766129 32.2981366,16.766129 C32.2792942,17.10908 31.1546965,17.3870968 29.7797578,17.3870968 L32.2358031,17.3870968 C30.8637833,17.3870968 29.8136646,16.766129 29.8136646,16.766129 C29.8136646,16.766129 29.8136646,16.9787893 29.8136646,16.766129 C29.8136646,15.051374 28.4232446,13.6612903 26.7080745,13.6612903 C24.9929045,13.6612903 23.6024845,15.051374 23.6024845,16.766129 C23.6024845,16.9787893 23.6024845,16.766129 23.6024845,16.766129 C23.6367941,17.10908 22.5552846,17.3870968 21.180346,17.3870968 L23.6363912,17.3870968 C22.2643715,17.3870968 21.1180124,16.766129 21.1180124,16.766129 C21.1180124,16.766129 21.1180124,16.9760218 21.1180124,16.766129 Z" id="Combined-Shape" fill="#0095FF"></path>
                    <path d="M20.4968944,31.0483871 C25.0042694,31.0483871 28.7640588,27.848367 29.6272954,23.5967742 L29.6293884,23.5828267 C29.7311614,22.9046276 29.2622797,22.3548387 28.5714286,22.3548387 L28.5714286,22.3548387 C27.8853606,22.3548387 27.2156396,22.9031848 27.0783667,23.5660745 L27.0720093,23.5967742 C26.2609175,26.4637882 23.624291,28.5645161 20.4968944,28.5645161 C17.3694978,28.5645161 14.7328713,26.4637882 13.9217795,23.5967742 L13.9217795,23.5967742 C13.7797411,22.9108722 12.5531614,22.3548387 11.1801242,22.3548387 L13.6645963,22.3548387 C12.2924602,22.3548387 11.3465486,23.4638653 11.3664934,23.5967742 L11.3664934,23.5967742 C12.22973,27.848367 15.9895194,31.0483871 20.4968944,31.0483871 Z" id="Combined-Shape" fill="#0095FF"></path>
                </g>
            </g>
        </g>
    </g>
</svg>