<?xml version="1.0" encoding="UTF-8"?>
<svg width="400px" height="231px" viewBox="0 0 400 231" version="1.1" xmlns="http://www.w3.org/2000/svg" xmlns:xlink="http://www.w3.org/1999/xlink">
    <!-- Generator: Sketch 43.1 (39012) - http://www.bohemiancoding.com/sketch -->
    <title>Group 6</title>
    <desc>Created with Sketch.</desc>
    <defs>
        <path d="M18.5949485,20.8294498 C18.578428,19.5217503 19.7557335,18.7919527 20.6426253,18.3580897 C21.5538632,17.9128783 21.8599279,17.6274191 21.8564499,17.2293477 C21.8494939,16.6200191 21.1295463,16.3511463 20.4556824,16.3406707 C19.280116,16.3223385 18.5966875,16.6593025 18.0532489,16.9142078 L17.6298015,14.9247237 C18.1749792,14.6724372 19.1844708,14.4524504 20.231351,14.4428478 C22.6885631,14.4428478 24.296272,15.6606321 24.304967,17.5488524 C24.3145315,19.9451376 21.0034686,20.0778281 21.0260756,21.1489545 C21.0339011,21.473697 21.3425743,21.8202635 22.0190467,21.9084329 C22.3538049,21.952954 23.2780853,21.9869996 24.325835,21.5025048 L24.7371094,23.4273896 C24.1736722,23.633409 23.4493772,23.8306988 22.5477038,23.8306988 C20.234829,23.8306988 18.6079911,22.5963282 18.5949485,20.8294498 M28.6889952,23.6648357 C28.2403322,23.6648357 27.8620989,23.4020737 27.6934156,22.9987645 L24.1832367,14.5842679 L26.6387099,14.5842679 L27.1273699,15.9399804 L30.1280207,15.9399804 L30.4114783,14.5842679 L32.5756683,14.5842679 L30.6871103,23.6648357 L28.6889952,23.6648357 M29.0324484,21.2118079 L29.7410924,17.8020119 L27.8003643,17.8020119 L29.0324484,21.2118079 M15.6177743,23.6648357 L13.6822633,14.5842679 L16.0220927,14.5842679 L17.9567342,23.6648357 L15.6177743,23.6648357 M12.1562876,23.6648357 L9.72081297,17.4842531 L8.73566741,22.7394943 C8.62002367,23.3261258 8.16353521,23.6648357 7.65661565,23.6648357 L3.67516682,23.6648357 L3.6195187,23.4012007 C4.43685041,23.2231161 5.36547835,22.9359111 5.92804603,22.6286279 C6.27236875,22.4409407 6.37062246,22.2768235 6.48365769,21.8307391 L8.3496086,14.5842679 L10.8224718,14.5842679 L14.6134997,23.6648357 L12.1562876,23.6648357" id="path-1"></path>
        <radialGradient cx="32.9223633%" cy="32.800293%" fx="32.9223633%" fy="32.800293%" r="66.8945313%" gradientTransform="translate(0.329224,0.328003),scale(0.997567,1.000000),rotate(90.000000),translate(-0.329224,-0.328003)" id="radialGradient-3">
            <stop stop-color="#34BBF2" offset="0%"></stop>
            <stop stop-color="#004DCF" offset="100%"></stop>
        </radialGradient>
        <rect id="path-4" x="0" y="0" width="37.6429945" height="37.5514042" rx="9.41074862"></rect>
        <linearGradient x1="100%" y1="0%" x2="0%" y2="100%" id="linearGradient-6">
            <stop stop-color="#083969" offset="0%"></stop>
            <stop stop-color="#007B9D" offset="49.1699219%"></stop>
            <stop stop-color="#00A84A" offset="100%"></stop>
        </linearGradient>
        <path d="M0,0 L10.5838508,0 C15.1333773,0 18.8214972,3.68692978 18.8214972,8.21436967 C18.8214972,12.7510408 15.1435899,16.4287393 10.5838508,16.4287393 L0,16.4287393 L0,0 Z" id="path-7"></path>
        <rect id="path-8" x="0" y="0" width="37.6429945" height="37.6429945" rx="9.41074862"></rect>
        <rect id="path-9" x="0" y="0" width="37.6429945" height="37.6429945" rx="9.41074862"></rect>
        <path d="M18.5949485,20.8802542 C18.578428,19.5693651 19.7557335,18.8377874 20.6426253,18.4028663 C21.5538632,17.9565689 21.8599279,17.6704136 21.8564499,17.2713712 C21.8494939,16.6605564 21.1295463,16.3910278 20.4556824,16.3805267 C19.280116,16.3621497 18.5966875,16.6999356 18.0532489,16.9554627 L17.6298015,14.9611261 C18.1749792,14.7082242 19.1844708,14.4877008 20.231351,14.4780748 C22.6885631,14.4780748 24.296272,15.6988293 24.304967,17.5916552 C24.3145315,19.9937851 21.0034686,20.1267992 21.0260756,21.2005382 C21.0339011,21.5260727 21.3425743,21.8734846 22.0190467,21.9618689 C22.3538049,22.0064987 23.2780853,22.0406273 24.325835,21.5549508 L24.7371094,23.4845305 C24.1736722,23.6910524 23.4493772,23.8888234 22.5477038,23.8888234 C20.234829,23.8888234 18.6079911,22.6514421 18.5949485,20.8802542 M28.6889952,23.7225558 C28.2403322,23.7225558 27.8620989,23.4591528 27.6934156,23.0548599 L24.1832367,14.6198398 L26.6387099,14.6198398 L27.1273699,15.9788591 L30.1280207,15.9788591 L30.4114783,14.6198398 L32.5756683,14.6198398 L30.6871103,23.7225558 L28.6889952,23.7225558 M29.0324484,21.2635448 L29.7410924,17.8454321 L27.8003643,17.8454321 L29.0324484,21.2635448 M15.6177743,23.7225558 L13.6822633,14.6198398 L16.0220927,14.6198398 L17.9567342,23.7225558 L15.6177743,23.7225558 M12.1562876,23.7225558 L9.72081297,17.5268983 L8.73566741,22.7949573 C8.62002367,23.3830197 8.16353521,23.7225558 7.65661565,23.7225558 L3.67516682,23.7225558 L3.6195187,23.4582777 C4.43685041,23.2797588 5.36547835,22.9918532 5.92804603,22.6838206 C6.27236875,22.4956756 6.37062246,22.3311581 6.48365769,21.8839857 L8.3496086,14.6198398 L10.8224718,14.6198398 L14.6134997,23.7225558 L12.1562876,23.7225558" id="path-10"></path>
    </defs>
    <g id="Features" stroke="none" stroke-width="1" fill="none" fill-rule="evenodd">
        <g id="Group-6">
            <rect id="Rectangle" fill="#F3F7FF" x="0" y="0" width="400" height="231"></rect>
            <g id="Group-2" transform="translate(36.024845, 34.774194)">
                <g id="Group-3">
                    <g id="icon-32x32-mastercard" transform="translate(0.000000, 0.058140)">
                        <rect id="Rectangle-15" fill="#000000" x="0" y="0" width="37.6429945" height="37.5514042" rx="9.41074862"></rect>
                        <g id="Group-7" transform="translate(7.058061, 11.734814)">
                            <ellipse id="Oval-2" fill="#E7001A" cx="7.05806147" cy="7.04088829" rx="7.05806147" ry="7.04088829"></ellipse>
                            <ellipse id="Oval-2" fill="#F49B1C" cx="16.4688101" cy="7.04088829" rx="7.05806147" ry="7.04088829"></ellipse>
                            <path d="M11.7775714,1.80194903 C13.207396,3.10172934 14.1161229,4.99801701 14.1161229,7.13232839 C14.1161229,9.16856896 13.207396,11.019377 11.7775714,12.2980664 C10.3194755,11.019377 9.41074862,9.16856896 9.41074862,7.13232839 C9.41074862,4.99801701 10.3194755,3.10172934 11.7775714,1.80194903 Z" id="Combined-Shape" fill="#E7001A" opacity="0.300000012"></path>
                        </g>
                    </g>
                    <g id="icon-32x32-visa" transform="translate(72.903979, 0.000000)">
                        <rect id="Rectangle-15" fill="#1D18F5" x="0" y="0" width="37.6429945" height="37.5514042" rx="9.41074862"></rect>
                        <mask id="mask-2" fill="white">
                            <use xlink:href="#path-1"></use>
                        </mask>
                        <use id="path10273" fill="#FFFFFF" transform="translate(18.097594, 19.136773) scale(1, -1) translate(-18.097594, -19.136773) " xlink:href="#path-1"></use>
                    </g>
                    <g id="icon-32x32-americanexpress" transform="translate(146.983829, 0.000000)">
                        <mask id="mask-5" fill="white">
                            <use xlink:href="#path-4"></use>
                        </mask>
                        <use id="Mask" fill="url(#radialGradient-3)" xlink:href="#path-4"></use>
                        <g id="Group-17" mask="url(#mask-5)" fill-rule="nonzero" fill="#FFFFFF">
                            <g transform="translate(-1.447807, 11.554278)" id="Shape">
                                <path d="M3.67085939,3.50554557 L2.82373799,1.68266188 L2.11780349,3.50554557 L3.67085939,3.50554557 Z M20.3309135,2.66421464 C20.2335337,2.80150406 20.0538412,2.80443646 19.9073529,2.80443646 L18.4954839,2.80443646 L18.4954839,1.8228837 L19.9073529,1.8228837 C20.0495163,1.8228837 20.2505542,1.83114772 20.3309135,1.96310552 C20.5245572,1.96697095 20.6132873,2.1039938 20.6132873,2.24354917 C20.6132873,2.48640483 20.5288821,2.6418218 20.3309135,2.66421464 Z M30.2139965,3.50554557 L29.3668751,1.68266188 L28.6609406,3.50554557 L30.2139965,3.50554557 Z M12.1420734,5.60887292 L11.0125782,5.60887292 L11.0125782,1.96310552 L9.31833538,5.60887292 L8.33002708,5.60887292 L6.77697118,1.96310552 L6.77697118,5.60887292 L4.37679389,5.60887292 L3.95323319,4.62732016 L1.6942428,4.62732016 L1.2706821,5.60887292 L0,5.60887292 L1.9766166,0.981552761 L3.67085939,0.981552761 L5.64747599,5.32842927 L5.64747599,0.981552761 L7.48290568,0.981552761 L8.89477468,4.06643287 L10.3066437,0.981552761 L12.1420734,0.981552761 L12.1420734,5.60887292 L12.1420734,5.60887292 Z M16.6600542,5.60887292 L12.9891948,5.60887292 L12.9891948,0.981552761 L16.6600542,0.981552761 L16.6600542,1.96310552 L14.11869,1.96310552 L14.11869,2.80443646 L16.6600542,2.80443646 L16.6600542,3.78598922 L14.11869,3.78598922 L14.11869,4.62732016 L16.6600542,4.62732016 L16.6600542,5.60887292 L16.6600542,5.60887292 Z M22.0251563,2.24354917 C22.0251563,2.96554733 21.5244358,3.34671435 21.1780349,3.50554557 C21.4787351,3.55327868 21.6889299,3.71601788 21.7427825,3.78598922 C21.9478058,4.08099472 21.9751978,4.28658206 22.0251563,4.76754198 L22.0251563,5.60887292 L20.8956611,5.60887292 L20.8956611,5.04798563 C20.8365128,4.74688555 20.863621,4.3464578 20.6132873,4.06643287 C20.4946093,3.96110367 20.2441071,3.92579233 19.9073529,3.92621104 L18.6366708,3.92621104 L18.6366708,5.60887292 L17.5071756,5.60887292 L17.5071756,0.981552761 L20.0485397,0.981552761 C20.6688963,0.981552761 21.0924083,0.996486804 21.4604087,1.26199641 C21.8118392,1.40989461 22.0251563,1.71164601 22.0251563,2.24354917 Z M23.7193991,5.60887292 L22.5899039,5.60887292 L22.5899039,0.981552761 L23.7193991,0.981552761 L23.7193991,5.60887292 Z M36.9909677,5.60887292 L35.4379118,5.60887292 L33.3201083,2.10332734 L33.3201083,5.60887292 L31.0611179,5.60887292 L30.4963703,4.62732016 L28.2373799,4.62732016 L27.8138192,5.60887292 L26.5431371,5.60887292 C25.9618382,5.60887292 25.2727031,5.48995886 24.8488943,5.04798563 C24.4888949,4.70417698 24.2841467,4.17199468 24.2841467,3.36532375 C24.2841467,2.64425606 24.4065152,2.01688669 24.8488943,1.54244005 C25.249812,1.15182876 25.81672,0.981552761 26.5431371,0.981552761 L27.6726323,0.981552761 L27.6726323,1.96310552 L26.5431371,1.96310552 C26.2024774,1.97306155 25.9717294,2.03307686 25.6960157,2.24354917 C25.5585592,2.44201841 25.4275713,2.81034494 25.4136419,3.36532375 C25.4275713,3.79110681 25.5273313,4.14854684 25.6960157,4.34687651 C25.9078605,4.56516476 26.2211294,4.62071382 26.5431371,4.62732016 L26.9666978,4.62732016 L28.6609406,0.981552761 L30.2139965,0.981552761 L32.1906131,5.32842927 L32.1906131,0.981552761 L33.8848559,0.981552761 L35.8614725,4.20665469 L35.8614725,0.981552761 L36.9909677,0.981552761 L36.9909677,5.60887292 Z M0,6.45020386 L1.9766166,6.45020386 L2.40017729,5.4686511 L3.24729869,5.4686511 L3.67085939,6.45020386 L7.48290568,6.45020386 L7.48290568,5.60887292 L7.90646638,6.45020386 L9.74189608,6.45020386 L10.1654568,5.60887292 L10.1654568,6.45020386 L19.4837922,6.45020386 L19.4837922,4.76754198 L19.6249791,4.76754198 C19.7871658,4.76585074 19.8241812,4.77742273 19.766166,5.04798563 L19.766166,6.45020386 L24.7077074,6.45020386 L24.7077074,6.02953839 C25.0522619,6.26086924 25.6592025,6.44685774 26.4019502,6.45020386 L28.5197537,6.45020386 L28.9433144,5.4686511 L29.9316227,5.4686511 L30.3551834,6.45020386 L34.3084166,6.45020386 L34.3084166,5.4686511 L34.8731642,6.45020386 L37.979276,6.45020386 L37.979276,0 L34.8731642,0 L34.8731642,0.701109115 L34.4496035,0 L31.2023048,0 L31.2023048,0.701109115 L30.7787441,0 L26.5431371,0 C25.8088184,0 25.1744695,0.0994076463 24.7077074,0.420665469 L24.7077074,0 L21.7427825,0 L21.7427825,0.420665469 C21.360888,0.0909029248 20.9165612,0 20.4721004,0 L9.60070918,0 L8.75358778,1.68266188 L8.04765328,0 L4.65916769,0 L4.65916769,0.701109115 L4.23560699,0 L1.411869,0 L0,3.08488011 L0,6.45020386 L0,6.45020386 Z"></path>
                                <path d="M39.8147057,9.95574943 L37.6969022,9.95574943 C37.5490568,9.95574943 37.412419,9.96297154 37.2733415,10.0959713 C37.1780809,10.1076812 37.1321546,10.2142741 37.1321546,10.3764149 C37.1321546,10.5222836 37.2328501,10.6360987 37.4145284,10.6568585 C37.4985664,10.7242352 37.6266466,10.7356033 37.8380891,10.7970804 L38.4028367,10.7970804 C39.0456545,10.7652942 39.4582778,10.8649325 39.6735188,11.077524 C39.7556576,11.14178 39.7831849,11.1797629 39.8147057,11.2177458 L39.8147057,9.95574943 Z M39.8147057,12.9004077 C39.5427741,13.3333765 39.012896,13.532198 38.2616498,13.6015168 L36.1438463,13.6015168 L36.1438463,12.4797422 L38.2616498,12.4797422 C38.5003933,12.5414344 38.6498497,12.5137081 38.6852105,12.4797422 C38.8178116,12.3555704 38.8721979,12.2517709 38.8263974,12.0590768 C38.8721979,11.9910876 38.8178116,11.8842228 38.6852105,11.7786331 C38.6542289,11.7496316 38.5359916,11.7175861 38.4028367,11.7786331 C37.2899093,11.6823361 35.9785634,11.7496316 36.0026594,10.2361931 C35.9785634,9.61735127 36.4099811,8.91193206 37.5557153,8.97419667 L39.8147057,8.97419667 L39.8147057,7.99264391 L37.6969022,7.99264391 C37.1175682,7.99264391 36.6634072,8.14033191 36.2850332,8.41330938 L36.2850332,7.99264391 L33.3201083,7.99264391 C32.7872874,7.99264391 32.2120639,8.11246625 31.9082393,8.41330938 L31.9082393,7.99264391 L26.4019502,7.99264391 L26.4019502,8.41330938 C26.0322245,8.06007881 25.2973736,7.99264391 24.9900812,7.99264391 L21.3192218,7.99264391 L21.3192218,8.41330938 C21.0041037,8.0408515 20.2378924,7.99264391 19.766166,7.99264391 L15.6717459,7.99264391 L14.8246245,8.97419667 L13.9775031,7.99264391 L7.90646638,7.99264391 L7.90646638,14.4428478 L13.8363162,14.4428478 L14.8246245,13.461295 L15.6717459,14.4428478 L19.3426053,14.4428478 L19.3426053,12.9004077 L19.6249791,12.9004077 C20.1699448,12.9336436 20.7410717,12.9144163 21.1780349,12.7601859 L21.1780349,14.4428478 L24.2841467,14.4428478 L24.2841467,12.7601859 L24.4253336,12.7601859 C24.5858311,12.7592045 24.604054,12.7667283 24.5665205,12.9004077 L24.5665205,14.4428478 L33.743669,14.4428478 C34.3294573,14.4393646 34.9363238,14.2927912 35.2967249,14.0221823 L35.2967249,14.4428478 L38.1204629,14.4428478 C38.776704,14.4393646 39.3661952,14.3559069 39.8147057,14.1624041 L39.8147057,12.9004077 Z M35.4379118,11.2177458 C35.6027907,11.3837912 35.7202856,11.6651059 35.7202856,12.1992986 C35.7202856,13.1368452 35.0870634,13.6015168 33.8848559,13.6015168 L31.7670524,13.6015168 L31.7670524,12.6199641 L33.8848559,12.6199641 C34.156339,12.6092406 34.3077895,12.5814719 34.4496035,12.4797422 C34.4801248,12.4230928 34.5356756,12.3191347 34.5907904,12.1992986 C34.5356756,12.0580535 34.4755785,11.9510255 34.4496035,11.918855 C34.3121938,11.8162289 34.1934203,11.7841344 34.0260428,11.7786331 C32.9444509,11.7488305 31.6258655,11.8162289 31.6258655,10.3764149 C31.6258655,9.68069292 32.055212,8.97419667 33.1789214,8.97419667 L35.4379118,8.97419667 L35.4379118,9.95574943 L33.4612952,9.95574943 C33.2226311,9.95907727 33.0895081,9.96661249 33.0377345,10.0959713 C32.8529555,10.1175959 32.8072078,10.2288101 32.7553607,10.3764149 C32.8072078,10.5501731 32.9119161,10.6689225 33.0377345,10.6568585 C33.172337,10.76088 33.2999192,10.772741 33.4612952,10.7970804 L34.1672297,10.7970804 C34.7090055,10.8034401 35.1285489,10.9072586 35.4379118,11.2177458 Z M25.1312681,10.6568585 C25.0368428,10.7899638 24.8539537,10.7970804 24.7077074,10.7970804 L23.2958384,10.7970804 L23.2958384,9.81552761 L24.7077074,9.81552761 C24.8539537,9.81552761 25.0509327,9.81948123 25.1312681,9.95574943 C25.3279868,9.96523813 25.4136419,10.1005838 25.4136419,10.2361931 C25.4136419,10.4745965 25.3279868,10.6252296 25.1312681,10.6568585 Z M25.8372026,11.4981895 C26.1387111,11.5419533 26.3429088,11.7047928 26.4019502,11.7786331 C26.5970939,12.0654955 26.6200343,12.2763356 26.684324,12.6199641 L26.684324,13.6015168 L25.5548288,13.6015168 L25.5548288,13.0406295 C25.4979381,12.7442026 25.5251267,12.3320108 25.272455,12.0590768 C25.1525579,11.9510753 24.902621,11.9114468 24.4253336,11.918855 L23.2958384,11.918855 L23.2958384,13.6015168 L22.1663432,13.6015168 L22.1663432,8.97419667 L24.7077074,8.97419667 C25.3253188,8.97419667 25.7390953,8.99889469 26.1195764,9.25464032 C26.4615758,9.40341194 26.684324,9.69225317 26.684324,10.2361931 C26.6841824,10.9586894 26.1843087,11.3355783 25.8372026,11.4981895 Z M27.3902585,8.97419667 L31.0611179,8.97419667 L31.0611179,9.95574943 L28.5197537,9.95574943 L28.5197537,10.7970804 L31.0611179,10.7970804 L31.0611179,11.7786331 L28.5197537,11.7786331 L28.5197537,12.6199641 L31.0611179,12.6199641 L31.0611179,13.6015168 L27.3902585,13.6015168 L27.3902585,8.97419667 L27.3902585,8.97419667 Z M19.766166,10.9373022 L18.354297,10.9373022 L18.354297,9.81552761 L19.766166,9.81552761 C20.1950281,9.81552761 20.4721004,9.97041087 20.4721004,10.3764149 C20.4721004,10.7365915 20.2078633,10.9373022 19.766166,10.9373022 Z M17.2248018,13.0406295 L15.530559,11.2177458 L17.2248018,9.39486214 L17.2248018,13.0406295 Z M12.8480079,12.4797422 L10.0242699,12.4797422 L10.0242699,11.6384113 L12.5656341,11.6384113 L12.5656341,10.6568585 L10.0242699,10.6568585 L10.0242699,9.81552761 L12.8480079,9.81552761 L14.11869,11.077524 L12.8480079,12.4797422 Z M21.6015956,10.5166367 C21.6015956,11.7840497 20.635298,12.0494487 19.6249791,12.0590768 L18.2131101,12.0590768 L18.2131101,13.6015168 L16.0953066,13.6015168 L14.6834376,12.0590768 L13.2715686,13.6015168 L8.89477468,13.6015168 L8.89477468,8.97419667 L13.4127555,8.97419667 L14.6834376,10.5166367 L16.0953066,8.97419667 L19.766166,8.97419667 C20.6081635,8.97419667 21.6015956,9.21713028 21.6015956,10.5166367 Z"></path>
                            </g>
                        </g>
                    </g>
                    <g id="icon-32x32-cartasi" transform="translate(292.791788, 0.000000)">
                        <path d="M0,9.40312754 C0,4.2099236 4.20855823,0 9.40181478,0 L28.2411797,0 C33.4336586,0 37.6429945,4.21645769 37.6429945,9.40312754 L37.6429945,28.1482767 C37.6429945,33.3414806 33.4344362,37.5514042 28.2411797,37.5514042 L9.40181478,37.5514042 C4.20933586,37.5514042 0,33.3349465 0,28.1482767 L0,9.40312754 Z" id="Mask" fill="#FF6200"></path>
                        <path d="M17.8758468,9.62359537 C18.2099372,9.52984119 18.5575611,9.48642348 18.9039996,9.48642348 L18.9283007,9.48642348 C19.3780681,9.48913082 19.7995831,9.56573851 20.1635065,9.69759599 C20.4574902,9.80418496 20.7137381,9.94697206 20.9171361,10.1161307 C21.0017947,10.1864212 21.0805263,10.2655357 21.1496757,10.3518698 C21.2002535,10.4149408 21.2455958,10.4818221 21.2842206,10.5522129 C21.3891302,10.7434313 21.4435606,10.959116 21.4158021,11.1876356 C21.3943658,11.3635124 21.3269945,11.5313675 21.2212947,11.6862875 C21.1408838,11.8040066 21.0384439,11.9144059 20.9171361,12.0152794 C20.8216112,12.0946947 20.7145284,12.1682942 20.5972708,12.2350753 C20.1514547,12.485454 19.5625982,12.637767 18.9170392,12.637767 C17.5258521,12.637767 16.3980254,11.9306499 16.3980254,11.0584854 C16.3980254,10.5968339 16.7139394,10.1815079 17.2175446,9.89272499 C17.2647637,9.86595241 17.3136622,9.84038309 17.3640425,9.81591676 C17.5210116,9.73981043 17.6926009,9.67503482 17.8758468,9.62359537 Z M9.75662094,19.0622842 C9.75662094,15.5441463 15.9133869,14.3496079 19.0423972,14.3496079 C20.812029,14.3496079 24.5619021,14.7289363 26.8334598,16.7071995 C27.1262581,16.9685079 27.3934711,17.2571905 27.6273937,17.5759547 C27.6893318,17.6601831 27.7488002,17.7465171 27.8057991,17.8349569 C27.9428137,18.0476335 28.0658008,18.2726435 28.1724885,18.5108894 C28.2666305,18.7211594 28.2413415,18.8735726 28.1536206,18.9563972 C28.1395931,18.9697333 28.1238863,18.9812646 28.1067966,18.990991 C28.0692583,19.0122486 28.0251015,19.024582 27.9766969,19.0275902 C27.8344467,19.0361133 27.706224,18.971839 27.5994376,18.881093 C27.5783964,18.8597351 27.5577503,18.8366726 27.5377958,18.8117049 C27.4356523,18.6840588 27.3135542,18.5596215 27.1737736,18.4387939 C26.0124589,17.3899504 23.5219939,16.6117407 21.2402614,16.510065 C18.754143,16.3992646 16.5158758,17.091742 16.5158758,19.1126207 L16.5158758,21.7195884 C16.5158758,21.8456301 16.5120232,21.9630484 16.5042192,22.0721442 C16.4524559,22.7973101 16.2272264,23.1600937 15.8048224,23.302981 C15.6079442,23.3696618 15.3682921,23.3885129 15.0834954,23.374174 C14.31001,23.3348675 12.3412279,22.9559402 11.0112874,21.8097327 C11.008225,21.8071257 11.0051627,21.8045186 11.0021992,21.8019115 C10.2763281,21.1515484 9.75662094,20.2626385 9.75662094,19.0622842 Z M21.4632188,18.3253865 C21.6699755,18.0968669 21.9753195,18.0095302 22.3880426,18.0095302 C22.4432633,18.0095302 22.5002622,18.0110342 22.5593355,18.0140424 C23.7749819,18.0758098 27.9433076,18.9764515 27.9433076,22.3759678 C27.9433076,25.8940055 21.7864428,27.0886442 18.6574326,27.0886442 C16.4347734,27.0886442 11.0884383,26.4902218 9.47054001,22.8772268 C9.22347909,22.3257316 9.79880207,22.1728171 10.1619352,22.6265472 C11.8239904,24.702776 18.7804197,25.9580792 20.6581222,23.655236 C20.6663214,23.6458105 20.6745205,23.6360841 20.6826209,23.6265583 C20.7438675,23.5533598 20.7999773,23.4765516 20.8504564,23.3960333 C21.0552374,23.0693476 21.1690375,22.6811953 21.1690375,22.2254598 L21.1690375,19.6184922 C21.1690375,18.9933975 21.263871,18.5820824 21.4632188,18.3253865 Z" id="Combined-Shape" fill="#FFFFFF"></path>
                    </g>
                    <g id="icon-32x32-cartebancare" transform="translate(219.887809, 0.000000)">
                        <rect id="Mask" fill="url(#linearGradient-6)" x="0" y="0" width="37.6429945" height="37.5514042" rx="9.41074862"></rect>
                        <g id="Page-1" transform="translate(7.058061, 12.908295)" fill="#FFFFFF">
                            <path d="M5.88171789,5.86740691 L11.7634358,5.86740691 C11.7016611,4.72661496 11.4051429,3.40637755 10.5870922,2.34696276 C9.43453186,1.54818165 7.55812717,1.17348138 5.88171789,1.17348138 C4.13632692,1.17348138 2.20638422,1.58446125 1.17634358,2.34696276 C0.200767579,3.60194728 0,5.10414957 0,5.86740691 C0,7.86763492 0.392783751,9.51212128 1.17634358,10.5613324 C2.47150038,11.4672517 4.20736776,11.7348138 5.88171789,11.7348138 C7.50767788,11.7348138 9.2692847,11.4326727 10.5870922,10.5613324 C11.3963915,9.52005745 11.7634358,8.61315556 11.7634358,7.04088829 L5.88171789,7.04088829 L5.88171789,5.86740691 Z" id="Fill-1"></path>
                            <path d="M12.9397794,7.04088829 L12.9397794,11.7348138 L21.1741844,11.7348138 L21.1741844,11.7348138 C22.5508987,11.6674193 23.5268716,10.657554 23.5268716,9.38785105 C23.5268716,8.17711838 22.5508987,7.10249112 21.1741844,7.04088829 L21.1741844,7.04088829 L12.9397794,7.04088829 Z" id="Fill-4"></path>
                            <path d="M23.5268716,3.52044414 C23.5268716,2.21724661 22.5638253,1.18394396 21.1741844,1.17348138 C21.2665736,1.18394396 21.163371,1.16671267 21.1741844,1.17348138 L12.9397794,1.17348138 L12.9397794,5.86740691 L21.1741844,5.86740691 C22.6424304,5.76344483 23.5268716,4.75541472 23.5268716,3.52044414" id="Fill-7"></path>
                        </g>
                    </g>
                </g>
                <g id="Group-10" transform="translate(0.000000, 61.280904)">
                    <g id="icon-32x32-kbccbc">
                        <rect id="Rectangle-15" fill="#1A5698" x="0" y="0" width="37.6429945" height="37.5514042" rx="9.41074862"></rect>
                        <path d="M15.393716,21.4335231 L5.88171789,22.2961462 L5.88171789,24.643109 L31.7612766,24.643109 L31.7612766,19.9491835 L21.9769282,20.8365055 C21.0676154,21.7236415 19.8512147,22.2961462 18.5862285,22.2961462 C17.3730044,22.2961462 16.2840649,21.9719812 15.393716,21.4335231 Z M19.409669,19.9491835 C17.1358009,19.9491835 15.2924665,18.1103342 15.2924665,15.8419986 C15.2924665,13.5736631 17.1358009,11.7348138 19.409669,11.7348138 C21.6835372,11.7348138 23.5268716,13.5736631 23.5268716,15.8419986 C23.5268716,18.1103342 21.6835372,19.9491835 19.409669,19.9491835 Z" id="Combined-Shape" fill="#FFFFFF"></path>
                    </g>
                    <g id="icon-32x32-belfius" transform="translate(72.903979, 0.000000)">
                        <rect id="Rectangle-15" fill="#D50043" x="0" y="0" width="37.6429945" height="37.5514042" rx="9.41074862"></rect>
                        <g id="Group" transform="translate(10.587092, 10.561332)" fill="#FFFFFF">
                            <path d="M0,2.78691168 C0,1.24774286 1.23783743,0 2.77508629,0 L13.6937238,0 C15.2263616,0 16.4688101,1.23482561 16.4688101,2.78691168 L16.4688101,16.4287393 L2.77508629,16.4287393 C1.24244845,16.4287393 0,15.1939137 0,13.6418277 L0,2.78691168 Z M3.52903073,5.73016934 L3.52903073,6.00464447 C3.52903073,6.56594535 3.99602967,7.04088829 4.57210206,7.04088829 L11.896708,7.04088829 C12.4730989,7.04088829 12.9397794,6.57694613 12.9397794,6.00464447 L12.9397794,5.73016934 C12.9397794,5.16886846 12.4727804,4.69392552 11.896708,4.69392552 L4.57210206,4.69392552 C3.99571122,4.69392552 3.52903073,5.15786768 3.52903073,5.73016934 Z M3.52903073,10.4240949 L3.52903073,10.69857 C3.52903073,11.2598709 3.99602967,11.7348138 4.57210206,11.7348138 L11.896708,11.7348138 C12.4730989,11.7348138 12.9397794,11.2708717 12.9397794,10.69857 L12.9397794,10.4240949 C12.9397794,9.86279398 12.4727804,9.38785105 11.896708,9.38785105 L4.57210206,9.38785105 C3.99571122,9.38785105 3.52903073,9.85179321 3.52903073,10.4240949 Z" id="Combined-Shape"></path>
                        </g>
                    </g>
                    <g id="icon-32x32-sofort" transform="translate(146.983829, 0.000000)">
                        <rect id="Rectangle-15" fill="#FF9500" x="0" y="0" width="37.6429945" height="37.5514042" rx="9.41074862"></rect>
                        <path d="M23.5064672,10.5613324 C22.0193939,10.5613324 20.5748008,10.5612166 19.2802165,11.217179 C17.986575,11.873168 16.8438562,13.1861145 15.964444,15.8119506 C15.7738428,16.3765155 15.6730283,16.8629272 15.6598191,17.2851732 C15.6466134,17.7083609 15.7202362,18.0683537 15.8806433,18.381267 C16.0787936,18.7629839 16.3996148,19.1221021 16.800635,19.4246486 C17.202598,19.7281368 17.6827549,19.9742239 18.200779,20.1316241 C18.2205933,20.1372766 18.4924603,20.2145114 18.8227127,20.3087629 C19.151076,20.4030144 19.5350464,20.5160015 19.7784877,20.589517 C19.9209673,20.6328725 20.0774688,20.6894847 20.2190056,20.775254 C20.3614851,20.8591374 20.4889522,20.9721709 20.5691546,21.1286282 C20.6219959,21.2323036 20.6503508,21.3463923 20.6531814,21.4679753 C20.6569502,21.5905022 20.636076,21.7225806 20.5879531,21.8620721 C20.467177,22.2183409 20.2841133,22.4482951 19.9349905,22.5887295 C19.5877544,22.7291627 19.0754472,22.7742394 18.2979419,22.7798954 L8.59228584,22.7798954 L7.05806147,26.9900718 L17.4468023,26.9900718 C18.4243457,26.9900718 20.2114507,26.9901876 21.9287573,26.2607005 C23.6460627,25.5321388 25.2937299,24.0759398 25.9910315,21.1607527 C26.2533456,20.0655542 26.1721285,19.1729889 25.7428022,18.4717598 C25.3115879,17.7714736 24.5321949,17.2626198 23.3970738,16.9374539 C23.3970738,16.9374539 23.1433316,16.8637287 22.8442184,16.7779607 C22.5469918,16.6921926 22.2025573,16.5942542 22.0270532,16.5433582 C21.7364318,16.4604176 21.5127584,16.2926286 21.3806586,16.0786776 C21.2495015,15.8656706 21.209859,15.606461 21.2844013,15.3416139 C21.362717,15.0664012 21.5514663,14.8467872 21.823215,14.6950431 C22.0968515,14.5442395 22.455395,14.4613452 22.8743417,14.4613452 L28.9131691,14.4613452 C28.9556295,14.4000823 28.9943711,14.3332515 29.0368315,14.2719886 C30.1398695,12.7130743 31.4750797,11.4520062 32.9376202,10.5613324 L23.5064672,10.5613324 L23.5064672,10.5613324 Z" id="path66-path" fill="#FFFFFF"></path>
                    </g>
                    <g id="icon-32x32-ideal" transform="translate(219.887809, 0.000000)">
                        <g id="Group-4" fill="#FD6EB6">
                            <rect id="Rectangle-15" x="0" y="0" width="37.6429945" height="37.5514042" rx="9.41074862"></rect>
                        </g>
                        <g id="Group-5" transform="translate(9.410749, 10.561332)">
                            <g id="Combined-Shape">
                                <use fill="#FFFFFF" fill-rule="evenodd" xlink:href="#path-7"></use>
                                <path stroke="#000000" stroke-width="1.17634358" d="M0.588171789,0.588171789 L10.5838508,0.588171789 C14.8056143,0.588171789 18.2333255,4.0088506 18.2333255,8.21436967 C18.2333255,12.4294626 14.8154839,15.8405675 10.5838508,15.8405675 L0.588171789,15.8405675 L0.588171789,0.588171789 Z"></path>
                            </g>
                            <path d="M5.88171789,2.34696276 L10.6587904,2.34696276 C13.217899,2.34696276 16.4688101,3.52044414 16.4688101,8.21436967 C16.4688101,12.9082952 13.2236436,14.0817766 10.6587904,14.0817766 L5.88171789,14.0817766 L5.88171789,2.34696276 Z" id="Combined-Shape" fill="#EE4A9C"></path>
                            <rect id="Rectangle-3" fill="#000000" x="2.35268716" y="8.21436967" width="2.35268716" height="5.86740691"></rect>
                            <ellipse id="Oval" fill="#000000" cx="3.52903073" cy="5.86740691" rx="1.17634358" ry="1.17348138"></ellipse>
                        </g>
                    </g>
                    <g id="icon-32x32-sepa" transform="translate(292.791788, 0.000000)">
                        <rect id="Rectangle-15" fill="#007AFF" x="0" y="0" width="37.6429945" height="37.5514042" rx="9.41074862"></rect>
                        <path d="M20.3824834,12.7585057 C22.2135743,12.7585057 23.8479265,13.6110404 24.922484,14.9463748 L25.8795587,12.8725815 C24.3825033,11.4427907 22.3454673,10.5613324 20.0984832,10.5613324 C16.6000169,10.5613324 13.6071069,12.6966135 12.3790412,15.7192183 L10.5127255,15.7192183 L9.41074862,18.1067202 L11.8116412,18.1067202 C11.7936285,18.3281972 11.7818202,18.5498765 11.7818202,18.7760055 C11.7818202,19.0496661 11.7960302,19.3200905 11.8226489,19.5872788 L10.6161984,19.5872788 L9.51442171,21.9755897 L12.4362815,21.9755897 C13.699372,24.9217395 16.6548555,26.9900718 20.0984832,26.9900718 C21.8339066,26.9900718 23.4442419,26.4645948 24.7775818,25.5669556 L24.7775818,22.6400207 C23.7038249,23.8754376 22.1333177,24.6561694 20.3824834,24.6561694 C18.3356404,24.6561694 16.5353713,23.5896413 15.4872324,21.9755897 L21.6055456,21.9755897 L22.7075225,19.5872788 L14.5869977,19.5872788 C14.5451683,19.2998643 14.5227525,19.0061798 14.5227525,18.7070341 C14.5227525,18.504772 14.5329596,18.3045325 14.5523733,18.1067202 L23.3904039,18.1067202 L24.4921806,15.7192183 L15.316512,15.7192183 C16.3314275,13.9494249 18.2195586,12.7585057 20.3824834,12.7585057" id="Fill-1" fill="#FFCC00"></path>
                    </g>
                </g>
                <g id="Group-11" transform="translate(0.000000, 122.561808)">
                    <g id="icon-32x32-bancontact" transform="translate(146.983829, 0.000000)">
                        <g id="Group-8">
                            <g id="Rectangle-15">
                                <use fill="#FFFFFF" fill-rule="evenodd" xlink:href="#path-8"></use>
                                <rect stroke-opacity="0.1" stroke="#000000" stroke-width="1.17634358" x="0.588171789" y="0.588171789" width="36.4666509" height="36.4666509" rx="9.41074862"></rect>
                            </g>
                            <g id="Group-9" transform="translate(3.619519, 13.030267)">
                                <path d="M0,7.95367156 C0,7.15918902 0.641890045,6.51513366 1.43154033,6.51513366 L5.79122992,6.51513366 L3.6195187,8.68684488 L12.3063636,8.68684488 L16.649786,3.6195187 L26.0605346,3.6195187 L19.7827855,10.5250427 C19.2518807,11.1090381 18.1736187,11.5824598 17.3913776,11.5824598 L1.43011959,11.5824598 C0.640286351,11.5824598 0,10.9406795 0,10.1439219 L0,7.95367156 Z" id="Path-4" fill="#00549D"></path>
                                <path d="M3.6195187,4.32715529 C3.6195187,3.5365374 4.26803352,2.89561496 5.04929243,2.89561496 L10.1346524,2.89561496 L7.96294114,5.06732618 L17.3736898,5.06732618 L20.9932085,1.35891298e-13 L30.4039571,1.35891298e-13 L24.0817488,7.58664997 C23.575398,8.19427084 22.5257215,8.68684488 21.7276997,8.68684488 L5.0567387,8.68684488 C4.26298401,8.68684488 3.6195187,8.04495484 3.6195187,7.25530455 L3.6195187,4.32715529 Z" id="Path-4" fill="#FFD800" transform="translate(17.011738, 4.343422) scale(-1, -1) translate(-17.011738, -4.343422) "></path>
                            </g>
                        </g>
                    </g>
                    <g id="icon-32x32-bitcoin">
                        <rect id="Rectangle-15" fill="#FF821E" x="0" y="0" width="37.6429945" height="37.6429945" rx="9.41074862"></rect>
                        <path d="M25.8395916,17.4502527 C26.157789,15.348957 24.5383287,14.2193502 22.3239339,13.4657855 L23.042251,10.6193144 L21.2884184,10.1875075 L20.5890832,12.9589675 C20.1280216,12.845464 19.6544718,12.7383759 19.1839191,12.6322748 L19.8882495,9.84255551 L18.135416,9.41074862 L17.4165993,12.2562327 C17.0349622,12.1703648 16.6603183,12.0854839 16.2966641,11.9961615 L16.2986622,11.9872787 L13.8799616,11.3906449 L13.4134052,13.2412459 C13.4134052,13.2412459 14.7146681,13.5358616 14.6871942,13.5541208 C15.3975189,13.729311 15.5258968,14.1936885 15.5044173,14.5618347 L14.6861952,17.8045811 C14.7351486,17.8169185 14.7985883,17.8346842 14.8685218,17.8623199 C14.8100774,17.8480086 14.7476367,17.8322168 14.683198,17.8169185 L13.5362884,22.359527 C13.449371,22.5727162 13.2290804,22.8925001 12.7325525,22.7711006 C12.7500359,22.7962688 11.4577644,22.4567452 11.4577644,22.4567452 L10.5870922,24.440096 L12.8694224,25.0021852 C13.2940187,25.1072993 13.7101231,25.2173484 14.1197337,25.320982 L13.3939237,28.2000236 L15.1457582,28.6318305 L15.8645749,25.7833855 C16.3431199,25.9116938 16.8076782,26.0301323 17.2622461,26.1416619 L16.5459271,28.9767825 L18.2997597,29.4085894 L19.0255697,26.5349763 C22.0162264,27.0941045 24.2650884,26.8685779 25.2116885,24.1963101 C25.9744633,22.0446781 25.1737246,20.8035417 23.6002205,19.9942122 C24.7461311,19.7331541 25.6093105,18.9884722 25.8395916,17.4502527 L25.8395916,17.4502527 Z M21.8324012,23.0015621 C21.2904165,25.1531942 17.6234027,23.9900298 16.434533,23.6983751 L17.3976174,19.8841631 C18.5864871,20.1772983 22.3988627,20.7576468 21.8324012,23.0015621 Z M22.3748855,17.4191626 C21.8803556,19.3763582 18.8282573,18.3819686 17.8381985,18.1381828 L18.7113684,14.6787927 C19.7014271,14.9225785 22.8898958,15.3775796 22.3748855,17.4191626 Z" id="Shape" fill="#FFFFFF" fill-rule="nonzero"></path>
                    </g>
                    <g id="icon-32x32-paypal" transform="translate(219.887809, 0.000000)">
                        <g id="Rectangle-15">
                            <use fill="#FFFFFF" fill-rule="evenodd" xlink:href="#path-9"></use>
                            <rect stroke-opacity="0.1" stroke="#000000" stroke-width="1.17634358" x="0.588171789" y="0.588171789" width="36.4666509" height="36.4666509" rx="9.41074862"></rect>
                        </g>
                        <g id="Group-16" transform="translate(10.587092, 8.234405)" fill-rule="nonzero">
                            <path d="M15.5139358,5.16073311 L15.5139358,5.16073311 L15.5139358,5.16073311 C15.4949333,5.28555883 15.4732162,5.41317394 15.4487844,5.54427581 C14.6092823,9.97314788 11.7371942,11.5031345 8.06903826,11.5031345 L6.20136661,11.5031345 C5.75277251,11.5031345 5.37475902,11.8378627 5.30485707,12.2925351 L5.30485707,12.2925351 L5.30485707,12.2925351 L4.34862547,18.5240579 L4.07784023,20.2904463 C4.03237003,20.5889123 4.25632774,20.8580895 4.54950876,20.8580895 L7.86204703,20.8580895 C8.25431237,20.8580895 8.58753431,20.5652023 8.64929235,20.1677126 L8.68186802,19.9947698 L9.30555633,15.9278225 L9.34559726,15.7046704 C9.40667664,15.305786 9.74057724,15.0128989 10.1328426,15.0128989 L10.6282642,15.0128989 C13.8376462,15.0128989 16.3500446,13.6739862 17.0843545,9.79950764 C17.3911087,8.18095748 17.2323023,6.8294925 16.4206252,5.87900397 C16.1749504,5.59239298 15.8702322,5.35459651 15.5139358,5.16073311 Z" id="Shape" fill="#009DDD"></path>
                            <path d="M14.6434143,3.57469848 C14.4980943,3.5261094 14.3481609,3.48193751 14.1943831,3.44218281 C14.0398364,3.40331154 13.8814452,3.36885747 13.7184408,3.33882058 C13.1479251,3.23280804 12.5228183,3.18245209 11.8531159,3.18245209 L6.20024347,3.18245209 C6.06107455,3.18245209 5.92882563,3.21867304 5.81041672,3.28404744 C5.54976332,3.4280478 5.35600328,3.71163134 5.30910105,4.05882241 L4.10655855,12.8101575 L4.07195854,13.065471 C4.15115411,12.4894696 4.57942532,12.0654194 5.08766099,12.0654194 L7.2036437,12.0654194 C11.3594891,12.0654194 14.6134276,10.1262734 15.5645434,4.5164432 C15.5929923,4.35035689 15.6168279,4.18868777 15.6383568,4.0305524 C15.3976945,3.88390172 15.1370411,3.75845355 14.8563966,3.65155757 C14.7871966,3.62505444 14.7156899,3.59943474 14.6434143,3.57469848 Z" id="Shape" fill="#202C69"></path>
                            <path d="M6.52462731,4.96656053 C6.56602556,4.71303952 6.73704782,4.5059651 6.96711347,4.40146025 C7.07230574,4.35372347 7.18835655,4.32727472 7.31119397,4.32727472 L12.3007005,4.32727472 C12.8918131,4.32727472 13.4435635,4.36404494 13.9471291,4.44145594 C14.0910049,4.46338905 14.2308088,4.48854763 14.3672195,4.51693166 C14.5029514,4.54596078 14.6352901,4.57821536 14.7635568,4.6136954 C14.8273508,4.63175797 14.8904661,4.65046563 14.9522242,4.66917329 C15.199935,4.74722937 15.4300006,4.83947748 15.6424211,4.9459176 C15.8921679,3.43188752 15.6403852,2.40103108 14.7791659,1.46758348 C13.8297209,0.439952498 12.116105,0 9.92335537,0 L3.55752686,0 C3.10961142,0 2.72752598,0.309643987 2.65830268,0.730888827 L0.00677901273,16.7065833 C-0.0454777885,17.0226782 0.211055599,17.3078087 0.546313519,17.3078087 L4.47643217,17.3078087 L5.46320345,11.3568383 L6.52462731,4.96656053 Z" id="Shape" fill="#1F3A85"></path>
                        </g>
                    </g>
                    <g id="icon-32x32-visa" transform="translate(292.791788, 1.246810)">
                        <rect id="Rectangle-15" fill="#1D18F5" x="0" y="0" width="37.6429945" height="37.6429945" rx="9.41074862"></rect>
                        <mask id="mask-11" fill="white">
                            <use xlink:href="#path-10"></use>
                        </mask>
                        <use id="path10273" fill="#FFFFFF" transform="translate(18.097594, 19.183449) scale(1, -1) translate(-18.097594, -19.183449) " xlink:href="#path-10"></use>
                    </g>
                    <g id="icon-32x32-paysafecard" transform="translate(74.079850, 0.000000)">
                        <rect id="Rectangle-15" fill="#A4E3FF" x="0" y="0" width="37.6429945" height="37.6429945" rx="9.41074862"></rect>
                        <g id="icon" transform="translate(12.939779, 10.587092)" fill-rule="nonzero" fill="#E3001B">
                            <path d="M1.0942731,5.40176971 C1.35956348,5.30799608 1.57239727,5.23679119 1.77819378,5.13826875 C2.17631265,3.37446057 3.830431,2.01121249 5.74493375,1.97625721 C7.7971203,2.01121249 9.45190338,3.37640273 9.84845786,5.13826875 C10.4508914,5.30605393 10.9543765,5.54556094 11.3530834,5.92877163 C11.3627517,5.55332824 11.3481197,5.21737095 11.3530834,4.87476779 C11.0548081,2.1549175 8.6890267,0 5.74493375,0 C2.83476796,0 0.417108204,2.29085387 0.273568274,5.13826875 C0.274111138,5.40185594 0.268790633,5.65948798 0.273568274,5.92877163 C0.527516159,5.72421946 0.812182208,5.54038141 1.0942731,5.40176971" id="path2513"></path>
                            <path d="M9.16453717,5.79702115 L2.46211446,5.79702115 C2.13593909,5.79702115 1.80310096,5.86863061 1.50462551,6.06052211 C1.12936993,6.15506978 0.858268208,6.32280416 0.683920685,6.58752403 C0.226813459,7.00212888 0.0147627541,7.70209918 0,8.56378124 L0,13.70205 C0.0147627541,14.5643768 0.226813459,15.263701 0.683920685,15.6783072 C0.858268208,15.9436718 1.12936993,16.1114062 1.50462551,16.2053091 C1.80310096,16.3959098 2.13593909,16.4688101 2.46211446,16.4688101 L9.16453717,16.4688101 C10.858866,16.4539713 11.7359236,15.5443334 11.7634358,13.70205 L11.7634358,8.56378124 C11.7359236,6.71762532 10.858866,5.81121383 9.16453717,5.79702115" id="path2515"></path>
                        </g>
                    </g>
                </g>
            </g>
        </g>
    </g>
</svg>