<?xml version="1.0" encoding="UTF-8"?>
<svg width="42px" height="42px" viewBox="0 0 42 42" version="1.1" xmlns="http://www.w3.org/2000/svg" xmlns:xlink="http://www.w3.org/1999/xlink">
    <!-- Generator: Sketch 42 (36781) - http://www.bohemiancoding.com/sketch -->
    <title>Combined Shape</title>
    <desc>Created with Sketch.</desc>
    <defs></defs>
    <g id="Design:-Icons" stroke="none" stroke-width="1" fill="none" fill-rule="evenodd">
        <g id="Artboard-3" transform="translate(-7282.000000, -4182.000000)" fill="#FFFFFF">
            <path d="M7312,4182 L7294,4182 L7294,4184 L7292,4184 L7292,4182 L7286.00811,4182 C7283.79125,4182 7282,4183.79449 7282,4186.00811 L7282,4187 L7324,4187 L7324,4186.00811 C7324,4183.79125 7322.20551,4182 7319.99189,4182 L7314,4182 L7314,4184 L7312,4184 L7312,4182 Z M7324,4189 L7324,4219.99189 C7324,4222.20551 7322.20875,4224 7319.99189,4224 L7286.00811,4224 C7283.79449,4224 7282,4222.20875 7282,4219.99189 L7282,4189 L7324,4189 Z M7299.876,4202.122 C7299.876,4203.398 7298.776,4204.52 7297.368,4206.06 L7293.012,4210.856 L7293.012,4212 L7301.834,4212 L7301.834,4210.46 L7295.388,4210.46 L7298.82,4206.698 C7300.184,4205.158 7301.548,4203.816 7301.548,4202.1 C7301.548,4199.79 7300.008,4198.294 7297.434,4198.294 C7294.948,4198.294 7293.276,4200.032 7293.012,4202.54 L7294.794,4202.54 C7294.926,4200.978 7295.806,4199.834 7297.434,4199.834 C7298.93,4199.834 7299.876,4200.736 7299.876,4202.122 Z M7309.864,4198.492 L7308.104,4198.492 L7302.912,4207.71 L7302.912,4208.942 L7309.138,4208.942 L7309.138,4212 L7310.744,4212 L7310.744,4208.942 L7313.12,4208.942 L7313.12,4207.49 L7310.744,4207.49 L7310.744,4204.234 L7309.138,4204.234 L7309.138,4207.49 L7304.826,4207.49 L7309.864,4198.492 Z" id="Combined-Shape"></path>
        </g>
    </g>
</svg>