<?xml version="1.0" encoding="UTF-8"?>
<svg width="42px" height="42px" viewBox="0 0 42 42" version="1.1" xmlns="http://www.w3.org/2000/svg" xmlns:xlink="http://www.w3.org/1999/xlink">
    <!-- Generator: Sketch 42 (36781) - http://www.bohemiancoding.com/sketch -->
    <title>Combined Shape</title>
    <desc>Created with Sketch.</desc>
    <defs></defs>
    <g id="Design:-Icons" stroke="none" stroke-width="1" fill="none" fill-rule="evenodd">
        <g id="Artboard-3" transform="translate(-6456.000000, -4182.000000)" fill="#FFFFFF">
            <path d="M6480,4182 L6480,4195.00258 C6480,4196.10907 6480.77039,4196.53777 6481.72072,4195.96757 L6485,4194 L6488.27928,4195.96757 C6489.24061,4196.54436 6490,4196.10572 6490,4195.00258 L6490,4182 L6493.99189,4182 C6496.20551,4182 6498,4183.79125 6498,4186.00811 L6498,4219.99189 C6498,4222.20551 6496.20875,4224 6493.99189,4224 L6460.00811,4224 C6457.79449,4224 6456,4222.20875 6456,4219.99189 L6456,4186.00811 C6456,4183.79449 6457.79125,4182 6460.00811,4182 L6480,4182 Z M6482,4182 L6488,4182 L6488,4193.46762 L6485,4191.66762 L6482,4193.46762 L6482,4182 Z M6461,4182 L6463,4182 L6463,4224 L6461,4224 L6461,4182 Z" id="Combined-Shape"></path>
        </g>
    </g>
</svg>