<?xml version="1.0" encoding="UTF-8"?>
<svg width="42px" height="42px" viewBox="0 0 42 42" version="1.1" xmlns="http://www.w3.org/2000/svg" xmlns:xlink="http://www.w3.org/1999/xlink">
    <!-- Generator: Sketch 42 (36781) - http://www.bohemiancoding.com/sketch -->
    <title>Group</title>
    <desc>Created with Sketch.</desc>
    <defs></defs>
    <g id="Design:-Icons" stroke="none" stroke-width="1" fill="none" fill-rule="evenodd">
        <g id="Artboard-3" transform="translate(-6050.000000, -4182.000000)" fill="#FFFFFF">
            <g id="Group" transform="translate(6050.000000, 4182.000000)">
                <path d="M0,3.99922997 C0,1.79051625 1.79246765,0 3.99922997,0 L16.00077,0 C18.2094838,0 20,1.79246765 20,3.99922997 L20,20 L3.99922997,20 C1.79051625,20 0,18.2075324 0,16.00077 L0,3.99922997 Z M0,25.99923 C0,23.7905162 1.79246765,22 3.99922997,22 L20,22 L20,38.00077 C20,40.2094838 18.2075324,42 16.00077,42 L3.99922997,42 C1.79051625,42 0,40.2075324 0,38.00077 L0,25.99923 Z M22,3.99922997 C22,1.79051625 23.7924676,0 25.99923,0 L38.00077,0 C40.2094838,0 42,1.79246765 42,3.99922997 L42,16.00077 C42,18.2094838 40.2075324,20 38.00077,20 L22,20 L22,3.99922997 Z M22,22 L38.00077,22 C40.2094838,22 42,23.7924676 42,25.99923 L42,38.00077 C42,40.2094838 40.2075324,42 38.00077,42 L25.99923,42 C23.7905162,42 22,40.2075324 22,38.00077 L22,22 Z" id="Combined-Shape"></path>
            </g>
        </g>
    </g>
</svg>