<?xml version="1.0" encoding="UTF-8"?>
<svg width="42px" height="42px" viewBox="0 0 42 42" version="1.1" xmlns="http://www.w3.org/2000/svg" xmlns:xlink="http://www.w3.org/1999/xlink">
    <!-- Generator: Sketch 42 (36781) - http://www.bohemiancoding.com/sketch -->
    <title>Group 2</title>
    <desc>Created with Sketch.</desc>
    <defs></defs>
    <g id="Design:-Icons" stroke="none" stroke-width="1" fill="none" fill-rule="evenodd">
        <g id="Artboard-3" transform="translate(-6870.000000, -4182.000000)" fill="#FFFFFF">
            <g id="Group-2" transform="translate(6870.000000, 4182.000000)">
                <path d="M42,5 L42,4.00811116 C42,1.79125179 40.2055075,0 37.9918888,0 L4.00811116,0 C1.79125179,0 0,1.79449249 0,4.00811116 L0,5 L42,5 Z M42,7 L42,37.9918888 C42,40.2055075 40.2087482,42 37.9918888,42 L4.00811116,42 C1.79449249,42 0,40.2087482 0,37.9918888 L0,7 L42,7 Z M9.395,24.368 L15.907,27.69 L15.907,26.128 L10.671,23.51 L15.907,20.892 L15.907,19.33 L9.395,22.652 L9.395,24.368 Z M17.447,31.848 L19.097,31.848 L24.553,15.7 L22.903,15.7 L17.447,31.848 Z M32.627,22.652 L26.093,19.33 L26.093,20.892 L31.329,23.51 L26.093,26.128 L26.093,27.69 L32.627,24.368 L32.627,22.652 Z" id="Combined-Shape"></path>
            </g>
        </g>
    </g>
</svg>