<?xml version="1.0" encoding="UTF-8"?>
<svg width="584px" height="292px" viewBox="0 0 584 292" version="1.1" xmlns="http://www.w3.org/2000/svg" xmlns:xlink="http://www.w3.org/1999/xlink">
    <!-- Generator: Sketch 43.1 (39012) - http://www.bohemiancoding.com/sketch -->
    <title>product-cover-recurring-homepage</title>
    <desc>Created with Sketch.</desc>
    <defs>
        <rect id="path-1" x="0" y="0" width="537" height="69" rx="5.72000044"></rect>
        <filter x="-9.8%" y="-54.3%" width="119.6%" height="252.2%" filterUnits="objectBoundingBox" id="filter-3">
            <feOffset dx="0" dy="15" in="SourceAlpha" result="shadowOffsetOuter1"></feOffset>
            <feGaussianBlur stdDeviation="15" in="shadowOffsetOuter1" result="shadowBlurOuter1"></feGaussianBlur>
            <feColorMatrix values="0 0 0 0 0.770966199   0 0 0 0 0.432278771   0 0 0 0 0.112599881  0 0 0 0.4 0" type="matrix" in="shadowBlurOuter1"></feColorMatrix>
        </filter>
    </defs>
    <g id="Assets" stroke="none" stroke-width="1" fill="none" fill-rule="evenodd">
        <g id="product-cover-recurring-homepage">
            <g id="Group-3" transform="translate(24.000000, 16.000000)">
                <g id="Group-9" opacity="0.900000036" transform="translate(27.000000, 0.000000)">
                    <g id="Group-68" transform="translate(0.000000, 174.000000)">
                        <rect id="Mask" fill="#FFFFFF" x="0" y="0" width="483" height="65" rx="6"></rect>
                        <g id="Group-2" opacity="0.5" transform="translate(41.000000, 22.000000)" fill="#000000">
                            <g id="Group-69">
                                <path d="M0.24,7.136 C0.384,8.88 1.456,10.16 3.568,10.16 C5.584,10.16 6.864,8.944 6.864,6.608 L6.864,0.176 L5.2,0.176 L5.2,6.608 C5.2,8 4.656,8.64 3.536,8.64 C2.592,8.64 2.08,8.08 1.968,7.136 L0.24,7.136 Z M8.272,9.008 C8.272,9.632 8.752,10.112 9.36,10.112 C9.968,10.112 10.448,9.632 10.448,9.008 C10.448,8.384 9.968,7.904 9.36,7.904 C8.752,7.904 8.272,8.384 8.272,9.008 Z M14.736,7.136 C14.88,8.88 15.952,10.16 18.064,10.16 C20.08,10.16 21.36,8.944 21.36,6.608 L21.36,0.176 L19.696,0.176 L19.696,6.608 C19.696,8 19.152,8.64 18.032,8.64 C17.088,8.64 16.576,8.08 16.464,7.136 L14.736,7.136 Z M28.72,10 L27.2,10 L27.2,9.6 C26.96,9.84 26.24,10.128 25.44,10.128 C23.984,10.128 22.784,9.264 22.784,7.808 C22.784,6.464 23.984,5.52 25.552,5.52 C26.192,5.52 26.912,5.744 27.2,5.952 L27.2,5.376 C27.2,4.656 26.752,4.096 25.84,4.096 C25.2,4.096 24.8,4.368 24.624,4.864 L23.088,4.864 C23.296,3.648 24.416,2.736 25.872,2.736 C27.664,2.736 28.72,3.728 28.72,5.344 L28.72,10 Z M27.2,8.112 L27.2,7.52 C27.024,7.072 26.384,6.8 25.744,6.8 C25.024,6.8 24.272,7.104 24.272,7.808 C24.272,8.528 25.024,8.832 25.744,8.832 C26.384,8.832 27.024,8.56 27.2,8.112 Z M30.608,10 L32.208,10 L32.208,5.328 C32.384,4.624 33.008,4.192 33.696,4.192 C34.608,4.192 35.04,4.768 35.04,5.648 L35.04,10 L36.64,10 L36.64,5.376 C36.64,3.808 35.744,2.736 34.128,2.736 C33.296,2.736 32.592,3.12 32.208,3.568 L32.208,2.896 L30.608,2.896 L30.608,10 Z M38.032,7.952 C38.24,9.328 39.392,10.16 41.056,10.16 C42.656,10.16 43.824,9.296 43.824,7.888 C43.824,6.848 43.216,6.16 42,5.872 L40.496,5.52 C39.984,5.392 39.76,5.184 39.76,4.864 C39.76,4.304 40.336,4.048 40.896,4.048 C41.632,4.048 42.048,4.368 42.192,4.832 L43.76,4.832 C43.52,3.536 42.576,2.736 40.912,2.736 C39.36,2.736 38.224,3.68 38.224,4.96 C38.224,6.128 38.976,6.672 39.984,6.912 L41.456,7.264 C42.048,7.408 42.288,7.616 42.288,8 C42.288,8.56 41.808,8.848 41.072,8.848 C40.368,8.848 39.84,8.544 39.664,7.952 L38.032,7.952 Z M49.776,7.792 L51.248,7.792 C51.008,9.2 49.968,10.16 48.256,10.16 C46.272,10.16 44.896,8.656 44.896,6.464 C44.896,4.336 46.288,2.736 48.224,2.736 C50.224,2.736 51.312,4.16 51.312,6.24 L51.312,6.816 L46.464,6.816 C46.512,8.064 47.232,8.816 48.256,8.816 C49.024,8.816 49.6,8.48 49.776,7.792 Z M48.24,4.08 C47.36,4.08 46.704,4.624 46.512,5.648 L49.728,5.648 C49.712,4.784 49.216,4.08 48.24,4.08 Z M52.784,10 L54.384,10 L54.384,5.328 C54.56,4.624 55.184,4.192 55.872,4.192 C56.784,4.192 57.216,4.768 57.216,5.648 L57.216,10 L58.816,10 L58.816,5.376 C58.816,3.808 57.92,2.736 56.304,2.736 C55.472,2.736 54.768,3.12 54.384,3.568 L54.384,2.896 L52.784,2.896 L52.784,10 Z" id="J.-Jansen" opacity="0.600000024"></path>
                                <path d="M3.08,21.436 L1.133,18.246 L0.187,18.246 L2.629,22.217 L2.629,25 L3.487,25 L3.487,22.217 L5.951,18.246 L5.027,18.246 L3.08,21.436 Z M11,22.558 C11,24.054 10.087,25.099 8.756,25.099 C7.414,25.099 6.512,24.054 6.512,22.558 C6.512,21.062 7.414,20.017 8.756,20.017 C10.087,20.017 11,21.062 11,22.558 Z M10.164,22.558 C10.164,21.491 9.636,20.743 8.756,20.743 C7.876,20.743 7.348,21.491 7.348,22.558 C7.348,23.625 7.876,24.373 8.756,24.373 C9.636,24.373 10.164,23.625 10.164,22.558 Z M15.323,24.67 L15.323,24.307 C15.081,24.648 14.564,24.967 13.959,24.967 C12.529,24.967 11.77,23.779 11.77,22.492 C11.77,21.194 12.529,20.017 13.959,20.017 C14.564,20.017 15.081,20.325 15.323,20.666 L15.323,20.116 L16.159,20.116 L16.159,24.615 C16.159,26.221 15.235,26.98 13.981,26.98 C12.793,26.98 12.045,26.364 11.891,25.363 L12.705,25.363 C12.848,25.979 13.31,26.276 13.981,26.276 C14.861,26.276 15.323,25.726 15.323,24.67 Z M15.323,23.46 L15.323,21.513 C15.07,21.051 14.608,20.754 14.08,20.754 C13.156,20.754 12.617,21.48 12.617,22.492 C12.617,23.493 13.156,24.219 14.08,24.219 C14.608,24.219 15.07,23.922 15.323,23.46 Z M21.175,25 L20.383,25 L20.383,24.637 C20.196,24.835 19.679,25.088 19.096,25.088 C18.106,25.088 17.281,24.494 17.281,23.526 C17.281,22.613 18.106,21.997 19.151,21.997 C19.657,21.997 20.174,22.206 20.383,22.393 L20.383,21.777 C20.383,21.172 20.009,20.732 19.305,20.732 C18.788,20.732 18.458,20.952 18.304,21.403 L17.49,21.403 C17.655,20.578 18.381,20.017 19.316,20.017 C20.482,20.017 21.175,20.677 21.175,21.744 L21.175,25 Z M20.383,23.79 L20.383,23.284 C20.24,22.921 19.745,22.679 19.239,22.679 C18.645,22.679 18.073,22.943 18.073,23.526 C18.073,24.12 18.645,24.395 19.239,24.395 C19.745,24.395 20.24,24.153 20.383,23.79 Z M29.689,24.219 L25.817,24.219 L29.645,18.862 L29.645,18.246 L24.783,18.246 L24.783,19.016 L28.567,19.016 L24.728,24.373 L24.728,25 L29.689,25 L29.689,24.219 Z M33.968,23.537 L34.749,23.537 C34.573,24.461 33.88,25.099 32.78,25.099 C31.449,25.099 30.536,24.076 30.536,22.569 C30.536,21.106 31.427,20.017 32.758,20.017 C34.1,20.017 34.815,20.996 34.815,22.415 L34.815,22.712 L31.361,22.712 C31.372,23.757 31.955,24.395 32.78,24.395 C33.385,24.395 33.836,24.087 33.968,23.537 Z M32.769,20.721 C32.032,20.721 31.504,21.227 31.383,22.085 L33.979,22.085 C33.968,21.359 33.583,20.721 32.769,20.721 Z M35.915,25 L36.74,25 L36.74,21.689 C36.916,21.161 37.411,20.776 37.983,20.776 C38.72,20.776 39.061,21.249 39.061,21.931 L39.061,25 L39.897,25 L39.897,21.799 C39.897,20.732 39.292,20.017 38.181,20.017 C37.554,20.017 37.026,20.347 36.74,20.732 L36.74,20.116 L35.915,20.116 L35.915,25 Z" id="Yoga-Zen"></path>
                            </g>
                        </g>
                        <g id="Group" transform="translate(372.000000, 20.000000)" opacity="0.5" fill="#000000">
                            <g id="Group-21">
                                <path d="M4.926,3.77 C4.926,4.512 4.184,5.24 3.302,6.22 L0.754,9.048 L0.754,10 L6.48,10 L6.48,8.726 L2.742,8.726 L4.59,6.668 C5.472,5.674 6.34,4.806 6.34,3.756 C6.34,2.23 5.332,1.264 3.61,1.264 C2.014,1.264 0.908,2.384 0.74,3.98 L2.238,3.98 C2.294,3.168 2.756,2.552 3.61,2.552 C4.422,2.552 4.926,3.056 4.926,3.77 Z M11.926,1.404 L10.456,1.404 L7.222,7.2 L7.222,8.208 L11.1,8.208 L11.1,10 L12.444,10 L12.444,8.208 L13.858,8.208 L13.858,7.004 L12.444,7.004 L12.444,4.988 L11.1,4.988 L11.1,7.004 L8.804,7.004 L11.926,1.404 Z M20.816,1.404 L22.216,1.404 L25.52,10 L24.036,10 L23.154,7.62 L19.864,7.62 L18.982,10 L17.512,10 L20.816,1.404 Z M21.502,3.182 L20.326,6.36 L22.678,6.36 L21.502,3.182 Z M28.068,9.468 L28.068,12.38 L26.668,12.38 L26.668,3.784 L28.068,3.784 L28.068,4.316 C28.348,3.966 28.964,3.644 29.65,3.644 C31.47,3.644 32.534,5.156 32.534,6.892 C32.534,8.628 31.47,10.14 29.65,10.14 C28.964,10.14 28.348,9.818 28.068,9.468 Z M28.068,5.716 L28.068,8.068 C28.306,8.558 28.838,8.894 29.412,8.894 C30.49,8.894 31.134,8.04 31.134,6.892 C31.134,5.744 30.49,4.89 29.412,4.89 C28.838,4.89 28.306,5.226 28.068,5.716 Z M37.308,3.756 C37.21,3.7 36.93,3.644 36.622,3.644 C36.02,3.644 35.474,3.966 35.236,4.428 L35.236,3.784 L33.836,3.784 L33.836,10 L35.236,10 L35.236,5.982 C35.376,5.31 35.908,4.988 36.482,4.988 C36.776,4.988 37.112,5.058 37.308,5.198 L37.308,3.756 Z M39.996,3.784 L38.596,3.784 L38.596,10 L39.996,10 L39.996,3.784 Z M40.164,1.908 C40.164,1.432 39.758,1.054 39.296,1.054 C38.834,1.054 38.428,1.432 38.428,1.908 C38.428,2.384 38.834,2.762 39.296,2.762 C39.758,2.762 40.164,2.384 40.164,1.908 Z M43.132,0.9 L41.732,0.9 L41.732,10 L43.132,10 L43.132,0.9 Z" id="24-April" opacity="0.600000024"></path>
                                <path d="M10.319,20.271 L10.902,20.271 C10.891,20.392 10.891,20.502 10.891,20.623 C10.891,20.766 10.891,20.898 10.902,21.03 L10.319,21.03 L10.319,21.69 L10.99,21.69 C11.309,23.186 12.277,24.099 13.52,24.099 C14.642,24.099 15.434,23.417 15.687,22.251 L14.895,22.251 C14.697,22.922 14.224,23.34 13.52,23.34 C12.673,23.34 12.079,22.702 11.837,21.69 L13.707,21.69 L13.839,21.03 L11.738,21.03 C11.727,20.898 11.727,20.766 11.727,20.623 C11.727,20.502 11.727,20.392 11.738,20.271 L13.949,20.271 L14.081,19.611 L11.826,19.611 C12.057,18.577 12.662,17.906 13.52,17.906 C14.224,17.906 14.697,18.324 14.895,18.995 L15.687,18.995 C15.434,17.829 14.642,17.147 13.52,17.147 C12.266,17.147 11.276,18.082 10.979,19.611 L10.319,19.611 L10.319,20.271 Z M22.155,19.061 C22.155,19.699 21.605,20.26 20.901,21.03 L18.723,23.428 L18.723,24 L23.134,24 L23.134,23.23 L19.911,23.23 L21.627,21.349 C22.309,20.579 22.991,19.908 22.991,19.05 C22.991,17.895 22.221,17.147 20.934,17.147 C19.691,17.147 18.855,18.016 18.723,19.27 L19.614,19.27 C19.68,18.489 20.12,17.917 20.934,17.917 C21.682,17.917 22.155,18.368 22.155,19.061 Z M26.39,24.099 C24.883,24.099 23.871,22.68 23.871,20.623 C23.871,18.566 24.883,17.147 26.39,17.147 C27.897,17.147 28.909,18.566 28.909,20.623 C28.909,22.68 27.897,24.099 26.39,24.099 Z M26.39,17.928 C25.29,17.928 24.718,19.05 24.718,20.623 C24.718,22.196 25.29,23.318 26.39,23.318 C27.479,23.318 28.062,22.196 28.062,20.623 C28.062,19.05 27.479,17.928 26.39,17.928 Z M29.492,25.177 L30.053,25.177 L30.636,24.209 C30.768,24 30.878,23.747 30.878,23.516 C30.878,23.109 30.625,22.878 30.295,22.878 C29.965,22.878 29.701,23.12 29.701,23.461 C29.701,23.78 29.91,23.967 30.185,24.011 L29.492,25.177 Z M34.189,24.099 C32.682,24.099 31.67,22.68 31.67,20.623 C31.67,18.566 32.682,17.147 34.189,17.147 C35.696,17.147 36.708,18.566 36.708,20.623 C36.708,22.68 35.696,24.099 34.189,24.099 Z M34.189,17.928 C33.089,17.928 32.517,19.05 32.517,20.623 C32.517,22.196 33.089,23.318 34.189,23.318 C35.278,23.318 35.861,22.196 35.861,20.623 C35.861,19.05 35.278,17.928 34.189,17.928 Z M40.107,24.099 C38.6,24.099 37.588,22.68 37.588,20.623 C37.588,18.566 38.6,17.147 40.107,17.147 C41.614,17.147 42.626,18.566 42.626,20.623 C42.626,22.68 41.614,24.099 40.107,24.099 Z M40.107,17.928 C39.007,17.928 38.435,19.05 38.435,20.623 C38.435,22.196 39.007,23.318 40.107,23.318 C41.196,23.318 41.779,22.196 41.779,20.623 C41.779,19.05 41.196,17.928 40.107,17.928 Z" id="€-20,00"></path>
                            </g>
                        </g>
                        <ellipse id="Oval-4" fill="#E5E5EA" opacity="0.900000036" cx="23" cy="33" rx="3" ry="3"></ellipse>
                        <g id="Group-7" transform="translate(432.000000, 14.000000)">
                            <rect id="Rectangle-15" fill="#000000" x="0" y="0" width="37" height="37" rx="5.72000044"></rect>
                            <ellipse id="Oval-2" fill="#E7001A" cx="14.5" cy="19" rx="7.5" ry="7"></ellipse>
                            <ellipse id="Oval-2" fill="#F49B1C" cx="23.5" cy="19" rx="7.5" ry="7"></ellipse>
                            <path d="M19,12.5424378 C20.828925,13.8348247 22,15.8283405 22,18.0909091 C22,20.2495135 20.828925,22.1985121 19,23.471837 C17.171075,22.1985121 16,20.2495135 16,18.0909091 C16,15.8283405 17.171075,13.8348247 19,12.5424378 Z" id="Combined-Shape" fill="#FF5F00"></path>
                        </g>
                    </g>
                    <g id="Group-68">
                        <rect id="Mask" fill="#FFFFFF" x="0" y="0" width="483" height="65" rx="6"></rect>
                        <g id="Group-2" opacity="0.5" transform="translate(41.000000, 22.000000)" fill="#000000">
                            <g id="Group-69">
                                <path d="M0.24,7.136 C0.384,8.88 1.456,10.16 3.568,10.16 C5.584,10.16 6.864,8.944 6.864,6.608 L6.864,0.176 L5.2,0.176 L5.2,6.608 C5.2,8 4.656,8.64 3.536,8.64 C2.592,8.64 2.08,8.08 1.968,7.136 L0.24,7.136 Z M8.272,9.008 C8.272,9.632 8.752,10.112 9.36,10.112 C9.968,10.112 10.448,9.632 10.448,9.008 C10.448,8.384 9.968,7.904 9.36,7.904 C8.752,7.904 8.272,8.384 8.272,9.008 Z M14.736,7.136 C14.88,8.88 15.952,10.16 18.064,10.16 C20.08,10.16 21.36,8.944 21.36,6.608 L21.36,0.176 L19.696,0.176 L19.696,6.608 C19.696,8 19.152,8.64 18.032,8.64 C17.088,8.64 16.576,8.08 16.464,7.136 L14.736,7.136 Z M28.72,10 L27.2,10 L27.2,9.6 C26.96,9.84 26.24,10.128 25.44,10.128 C23.984,10.128 22.784,9.264 22.784,7.808 C22.784,6.464 23.984,5.52 25.552,5.52 C26.192,5.52 26.912,5.744 27.2,5.952 L27.2,5.376 C27.2,4.656 26.752,4.096 25.84,4.096 C25.2,4.096 24.8,4.368 24.624,4.864 L23.088,4.864 C23.296,3.648 24.416,2.736 25.872,2.736 C27.664,2.736 28.72,3.728 28.72,5.344 L28.72,10 Z M27.2,8.112 L27.2,7.52 C27.024,7.072 26.384,6.8 25.744,6.8 C25.024,6.8 24.272,7.104 24.272,7.808 C24.272,8.528 25.024,8.832 25.744,8.832 C26.384,8.832 27.024,8.56 27.2,8.112 Z M30.608,10 L32.208,10 L32.208,5.328 C32.384,4.624 33.008,4.192 33.696,4.192 C34.608,4.192 35.04,4.768 35.04,5.648 L35.04,10 L36.64,10 L36.64,5.376 C36.64,3.808 35.744,2.736 34.128,2.736 C33.296,2.736 32.592,3.12 32.208,3.568 L32.208,2.896 L30.608,2.896 L30.608,10 Z M38.032,7.952 C38.24,9.328 39.392,10.16 41.056,10.16 C42.656,10.16 43.824,9.296 43.824,7.888 C43.824,6.848 43.216,6.16 42,5.872 L40.496,5.52 C39.984,5.392 39.76,5.184 39.76,4.864 C39.76,4.304 40.336,4.048 40.896,4.048 C41.632,4.048 42.048,4.368 42.192,4.832 L43.76,4.832 C43.52,3.536 42.576,2.736 40.912,2.736 C39.36,2.736 38.224,3.68 38.224,4.96 C38.224,6.128 38.976,6.672 39.984,6.912 L41.456,7.264 C42.048,7.408 42.288,7.616 42.288,8 C42.288,8.56 41.808,8.848 41.072,8.848 C40.368,8.848 39.84,8.544 39.664,7.952 L38.032,7.952 Z M49.776,7.792 L51.248,7.792 C51.008,9.2 49.968,10.16 48.256,10.16 C46.272,10.16 44.896,8.656 44.896,6.464 C44.896,4.336 46.288,2.736 48.224,2.736 C50.224,2.736 51.312,4.16 51.312,6.24 L51.312,6.816 L46.464,6.816 C46.512,8.064 47.232,8.816 48.256,8.816 C49.024,8.816 49.6,8.48 49.776,7.792 Z M48.24,4.08 C47.36,4.08 46.704,4.624 46.512,5.648 L49.728,5.648 C49.712,4.784 49.216,4.08 48.24,4.08 Z M52.784,10 L54.384,10 L54.384,5.328 C54.56,4.624 55.184,4.192 55.872,4.192 C56.784,4.192 57.216,4.768 57.216,5.648 L57.216,10 L58.816,10 L58.816,5.376 C58.816,3.808 57.92,2.736 56.304,2.736 C55.472,2.736 54.768,3.12 54.384,3.568 L54.384,2.896 L52.784,2.896 L52.784,10 Z" id="J.-Jansen" opacity="0.600000024"></path>
                                <path d="M3.08,21.436 L1.133,18.246 L0.187,18.246 L2.629,22.217 L2.629,25 L3.487,25 L3.487,22.217 L5.951,18.246 L5.027,18.246 L3.08,21.436 Z M11,22.558 C11,24.054 10.087,25.099 8.756,25.099 C7.414,25.099 6.512,24.054 6.512,22.558 C6.512,21.062 7.414,20.017 8.756,20.017 C10.087,20.017 11,21.062 11,22.558 Z M10.164,22.558 C10.164,21.491 9.636,20.743 8.756,20.743 C7.876,20.743 7.348,21.491 7.348,22.558 C7.348,23.625 7.876,24.373 8.756,24.373 C9.636,24.373 10.164,23.625 10.164,22.558 Z M15.323,24.67 L15.323,24.307 C15.081,24.648 14.564,24.967 13.959,24.967 C12.529,24.967 11.77,23.779 11.77,22.492 C11.77,21.194 12.529,20.017 13.959,20.017 C14.564,20.017 15.081,20.325 15.323,20.666 L15.323,20.116 L16.159,20.116 L16.159,24.615 C16.159,26.221 15.235,26.98 13.981,26.98 C12.793,26.98 12.045,26.364 11.891,25.363 L12.705,25.363 C12.848,25.979 13.31,26.276 13.981,26.276 C14.861,26.276 15.323,25.726 15.323,24.67 Z M15.323,23.46 L15.323,21.513 C15.07,21.051 14.608,20.754 14.08,20.754 C13.156,20.754 12.617,21.48 12.617,22.492 C12.617,23.493 13.156,24.219 14.08,24.219 C14.608,24.219 15.07,23.922 15.323,23.46 Z M21.175,25 L20.383,25 L20.383,24.637 C20.196,24.835 19.679,25.088 19.096,25.088 C18.106,25.088 17.281,24.494 17.281,23.526 C17.281,22.613 18.106,21.997 19.151,21.997 C19.657,21.997 20.174,22.206 20.383,22.393 L20.383,21.777 C20.383,21.172 20.009,20.732 19.305,20.732 C18.788,20.732 18.458,20.952 18.304,21.403 L17.49,21.403 C17.655,20.578 18.381,20.017 19.316,20.017 C20.482,20.017 21.175,20.677 21.175,21.744 L21.175,25 Z M20.383,23.79 L20.383,23.284 C20.24,22.921 19.745,22.679 19.239,22.679 C18.645,22.679 18.073,22.943 18.073,23.526 C18.073,24.12 18.645,24.395 19.239,24.395 C19.745,24.395 20.24,24.153 20.383,23.79 Z M29.689,24.219 L25.817,24.219 L29.645,18.862 L29.645,18.246 L24.783,18.246 L24.783,19.016 L28.567,19.016 L24.728,24.373 L24.728,25 L29.689,25 L29.689,24.219 Z M33.968,23.537 L34.749,23.537 C34.573,24.461 33.88,25.099 32.78,25.099 C31.449,25.099 30.536,24.076 30.536,22.569 C30.536,21.106 31.427,20.017 32.758,20.017 C34.1,20.017 34.815,20.996 34.815,22.415 L34.815,22.712 L31.361,22.712 C31.372,23.757 31.955,24.395 32.78,24.395 C33.385,24.395 33.836,24.087 33.968,23.537 Z M32.769,20.721 C32.032,20.721 31.504,21.227 31.383,22.085 L33.979,22.085 C33.968,21.359 33.583,20.721 32.769,20.721 Z M35.915,25 L36.74,25 L36.74,21.689 C36.916,21.161 37.411,20.776 37.983,20.776 C38.72,20.776 39.061,21.249 39.061,21.931 L39.061,25 L39.897,25 L39.897,21.799 C39.897,20.732 39.292,20.017 38.181,20.017 C37.554,20.017 37.026,20.347 36.74,20.732 L36.74,20.116 L35.915,20.116 L35.915,25 Z" id="Yoga-Zen"></path>
                            </g>
                        </g>
                        <g id="Group" transform="translate(372.000000, 21.000000)" opacity="0.5" fill="#000000">
                            <g id="Group-21">
                                <path d="M4.604,2.77 C4.604,3.512 3.862,4.24 2.98,5.22 L0.432,8.048 L0.432,9 L6.158,9 L6.158,7.726 L2.42,7.726 L4.268,5.668 C5.15,4.674 6.018,3.806 6.018,2.756 C6.018,1.23 5.01,0.264 3.288,0.264 C1.692,0.264 0.586,1.384 0.418,2.98 L1.916,2.98 C1.972,2.168 2.434,1.552 3.288,1.552 C4.1,1.552 4.604,2.056 4.604,2.77 Z M11.604,0.404 L10.134,0.404 L6.9,6.2 L6.9,7.208 L10.778,7.208 L10.778,9 L12.122,9 L12.122,7.208 L13.536,7.208 L13.536,6.004 L12.122,6.004 L12.122,3.988 L10.778,3.988 L10.778,6.004 L8.482,6.004 L11.604,0.404 Z M17.12,6.494 C17.246,8.02 18.184,9.14 20.032,9.14 C21.796,9.14 22.916,8.076 22.916,6.032 L22.916,0.404 L21.46,0.404 L21.46,6.032 C21.46,7.25 20.984,7.81 20.004,7.81 C19.178,7.81 18.73,7.32 18.632,6.494 L17.12,6.494 Z M29.734,2.784 L28.334,2.784 L28.334,6.872 C28.18,7.488 27.648,7.866 27.046,7.866 C26.248,7.866 25.884,7.362 25.884,6.592 L25.884,2.784 L24.484,2.784 L24.484,6.83 C24.484,8.202 25.254,9.14 26.668,9.14 C27.396,9.14 27.998,8.804 28.334,8.412 L28.334,9 L29.734,9 L29.734,2.784 Z M31.47,9 L32.87,9 L32.87,4.912 C33.024,4.296 33.57,3.918 34.172,3.918 C34.97,3.918 35.348,4.422 35.348,5.192 L35.348,9 L36.748,9 L36.748,4.954 C36.748,3.582 35.964,2.644 34.55,2.644 C33.822,2.644 33.206,2.98 32.87,3.372 L32.87,2.784 L31.47,2.784 L31.47,9 Z M42.236,7.068 L43.524,7.068 C43.314,8.3 42.404,9.14 40.906,9.14 C39.17,9.14 37.966,7.824 37.966,5.906 C37.966,4.044 39.184,2.644 40.878,2.644 C42.628,2.644 43.58,3.89 43.58,5.71 L43.58,6.214 L39.338,6.214 C39.38,7.306 40.01,7.964 40.906,7.964 C41.578,7.964 42.082,7.67 42.236,7.068 Z M40.892,3.82 C40.122,3.82 39.548,4.296 39.38,5.192 L42.194,5.192 C42.18,4.436 41.746,3.82 40.892,3.82 Z" id="24-June" opacity="0.600000024"></path>
                                <path d="M10.319,19.271 L10.902,19.271 C10.891,19.392 10.891,19.502 10.891,19.623 C10.891,19.766 10.891,19.898 10.902,20.03 L10.319,20.03 L10.319,20.69 L10.99,20.69 C11.309,22.186 12.277,23.099 13.52,23.099 C14.642,23.099 15.434,22.417 15.687,21.251 L14.895,21.251 C14.697,21.922 14.224,22.34 13.52,22.34 C12.673,22.34 12.079,21.702 11.837,20.69 L13.707,20.69 L13.839,20.03 L11.738,20.03 C11.727,19.898 11.727,19.766 11.727,19.623 C11.727,19.502 11.727,19.392 11.738,19.271 L13.949,19.271 L14.081,18.611 L11.826,18.611 C12.057,17.577 12.662,16.906 13.52,16.906 C14.224,16.906 14.697,17.324 14.895,17.995 L15.687,17.995 C15.434,16.829 14.642,16.147 13.52,16.147 C12.266,16.147 11.276,17.082 10.979,18.611 L10.319,18.611 L10.319,19.271 Z M22.155,18.061 C22.155,18.699 21.605,19.26 20.901,20.03 L18.723,22.428 L18.723,23 L23.134,23 L23.134,22.23 L19.911,22.23 L21.627,20.349 C22.309,19.579 22.991,18.908 22.991,18.05 C22.991,16.895 22.221,16.147 20.934,16.147 C19.691,16.147 18.855,17.016 18.723,18.27 L19.614,18.27 C19.68,17.489 20.12,16.917 20.934,16.917 C21.682,16.917 22.155,17.368 22.155,18.061 Z M26.39,23.099 C24.883,23.099 23.871,21.68 23.871,19.623 C23.871,17.566 24.883,16.147 26.39,16.147 C27.897,16.147 28.909,17.566 28.909,19.623 C28.909,21.68 27.897,23.099 26.39,23.099 Z M26.39,16.928 C25.29,16.928 24.718,18.05 24.718,19.623 C24.718,21.196 25.29,22.318 26.39,22.318 C27.479,22.318 28.062,21.196 28.062,19.623 C28.062,18.05 27.479,16.928 26.39,16.928 Z M29.492,24.177 L30.053,24.177 L30.636,23.209 C30.768,23 30.878,22.747 30.878,22.516 C30.878,22.109 30.625,21.878 30.295,21.878 C29.965,21.878 29.701,22.12 29.701,22.461 C29.701,22.78 29.91,22.967 30.185,23.011 L29.492,24.177 Z M34.189,23.099 C32.682,23.099 31.67,21.68 31.67,19.623 C31.67,17.566 32.682,16.147 34.189,16.147 C35.696,16.147 36.708,17.566 36.708,19.623 C36.708,21.68 35.696,23.099 34.189,23.099 Z M34.189,16.928 C33.089,16.928 32.517,18.05 32.517,19.623 C32.517,21.196 33.089,22.318 34.189,22.318 C35.278,22.318 35.861,21.196 35.861,19.623 C35.861,18.05 35.278,16.928 34.189,16.928 Z M40.107,23.099 C38.6,23.099 37.588,21.68 37.588,19.623 C37.588,17.566 38.6,16.147 40.107,16.147 C41.614,16.147 42.626,17.566 42.626,19.623 C42.626,21.68 41.614,23.099 40.107,23.099 Z M40.107,16.928 C39.007,16.928 38.435,18.05 38.435,19.623 C38.435,21.196 39.007,22.318 40.107,22.318 C41.196,22.318 41.779,21.196 41.779,19.623 C41.779,18.05 41.196,16.928 40.107,16.928 Z" id="€-20,00"></path>
                            </g>
                        </g>
                        <ellipse id="Oval-4" fill="#E5E5EA" opacity="0.900000036" cx="23" cy="33" rx="3" ry="3"></ellipse>
                        <g id="Group-7" transform="translate(432.000000, 14.000000)">
                            <rect id="Rectangle-15" fill="#000000" x="0" y="0" width="37" height="37" rx="5.72000044"></rect>
                            <ellipse id="Oval-2" fill="#E7001A" cx="14.5" cy="19" rx="7.5" ry="7"></ellipse>
                            <ellipse id="Oval-2" fill="#F49B1C" cx="23.5" cy="19" rx="7.5" ry="7"></ellipse>
                            <path d="M19,12.5424378 C20.828925,13.8348247 22,15.8283405 22,18.0909091 C22,20.2495135 20.828925,22.1985121 19,23.471837 C17.171075,22.1985121 16,20.2495135 16,18.0909091 C16,15.8283405 17.171075,13.8348247 19,12.5424378 Z" id="Combined-Shape" fill="#FF5F00"></path>
                        </g>
                    </g>
                </g>
                <g id="Group-4" transform="translate(0.000000, 85.000000)">
                    <g id="Group-13">
                        <mask id="mask-2" fill="white">
                            <use xlink:href="#path-1"></use>
                        </mask>
                        <g id="Mask">
                            <use fill="black" fill-opacity="1" filter="url(#filter-3)" xlink:href="#path-1"></use>
                            <use fill="#FFFFFF" fill-rule="evenodd" xlink:href="#path-1"></use>
                        </g>
                    </g>
                    <g id="Group-2" transform="translate(42.000000, 19.000000)" fill="#000000">
                        <path d="M0.33,10.062 C0.528,12.46 2.002,14.22 4.906,14.22 C7.678,14.22 9.438,12.548 9.438,9.336 L9.438,0.492 L7.15,0.492 L7.15,9.336 C7.15,11.25 6.402,12.13 4.862,12.13 C3.564,12.13 2.86,11.36 2.706,10.062 L0.33,10.062 Z M11.374,12.636 C11.374,13.494 12.034,14.154 12.87,14.154 C13.706,14.154 14.366,13.494 14.366,12.636 C14.366,11.778 13.706,11.118 12.87,11.118 C12.034,11.118 11.374,11.778 11.374,12.636 Z M20.262,10.062 C20.46,12.46 21.934,14.22 24.838,14.22 C27.61,14.22 29.37,12.548 29.37,9.336 L29.37,0.492 L27.082,0.492 L27.082,9.336 C27.082,11.25 26.334,12.13 24.794,12.13 C23.496,12.13 22.792,11.36 22.638,10.062 L20.262,10.062 Z M39.49,14 L37.4,14 L37.4,13.45 C37.07,13.78 36.08,14.176 34.98,14.176 C32.978,14.176 31.328,12.988 31.328,10.986 C31.328,9.138 32.978,7.84 35.134,7.84 C36.014,7.84 37.004,8.148 37.4,8.434 L37.4,7.642 C37.4,6.652 36.784,5.882 35.53,5.882 C34.65,5.882 34.1,6.256 33.858,6.938 L31.746,6.938 C32.032,5.266 33.572,4.012 35.574,4.012 C38.038,4.012 39.49,5.376 39.49,7.598 L39.49,14 Z M37.4,11.404 L37.4,10.59 C37.158,9.974 36.278,9.6 35.398,9.6 C34.408,9.6 33.374,10.018 33.374,10.986 C33.374,11.976 34.408,12.394 35.398,12.394 C36.278,12.394 37.158,12.02 37.4,11.404 Z M42.086,14 L44.286,14 L44.286,7.576 C44.528,6.608 45.386,6.014 46.332,6.014 C47.586,6.014 48.18,6.806 48.18,8.016 L48.18,14 L50.38,14 L50.38,7.642 C50.38,5.486 49.148,4.012 46.926,4.012 C45.782,4.012 44.814,4.54 44.286,5.156 L44.286,4.232 L42.086,4.232 L42.086,14 Z M52.294,11.184 C52.58,13.076 54.164,14.22 56.452,14.22 C58.652,14.22 60.258,13.032 60.258,11.096 C60.258,9.666 59.422,8.72 57.75,8.324 L55.682,7.84 C54.978,7.664 54.67,7.378 54.67,6.938 C54.67,6.168 55.462,5.816 56.232,5.816 C57.244,5.816 57.816,6.256 58.014,6.894 L60.17,6.894 C59.84,5.112 58.542,4.012 56.254,4.012 C54.12,4.012 52.558,5.31 52.558,7.07 C52.558,8.676 53.592,9.424 54.978,9.754 L57.002,10.238 C57.816,10.436 58.146,10.722 58.146,11.25 C58.146,12.02 57.486,12.416 56.474,12.416 C55.506,12.416 54.78,11.998 54.538,11.184 L52.294,11.184 Z M68.442,10.964 L70.466,10.964 C70.136,12.9 68.706,14.22 66.352,14.22 C63.624,14.22 61.732,12.152 61.732,9.138 C61.732,6.212 63.646,4.012 66.308,4.012 C69.058,4.012 70.554,5.97 70.554,8.83 L70.554,9.622 L63.888,9.622 C63.954,11.338 64.944,12.372 66.352,12.372 C67.408,12.372 68.2,11.91 68.442,10.964 Z M66.33,5.86 C65.12,5.86 64.218,6.608 63.954,8.016 L68.376,8.016 C68.354,6.828 67.672,5.86 66.33,5.86 Z M72.578,14 L74.778,14 L74.778,7.576 C75.02,6.608 75.878,6.014 76.824,6.014 C78.078,6.014 78.672,6.806 78.672,8.016 L78.672,14 L80.872,14 L80.872,7.642 C80.872,5.486 79.64,4.012 77.418,4.012 C76.274,4.012 75.306,4.54 74.778,5.156 L74.778,4.232 L72.578,4.232 L72.578,14 Z" id="J.-Jansen" opacity="0.600000024"></path>
                        <path d="M3.92,26.464 L1.442,22.404 L0.238,22.404 L3.346,27.458 L3.346,31 L4.438,31 L4.438,27.458 L7.574,22.404 L6.398,22.404 L3.92,26.464 Z M14,27.892 C14,29.796 12.838,31.126 11.144,31.126 C9.436,31.126 8.288,29.796 8.288,27.892 C8.288,25.988 9.436,24.658 11.144,24.658 C12.838,24.658 14,25.988 14,27.892 Z M12.936,27.892 C12.936,26.534 12.264,25.582 11.144,25.582 C10.024,25.582 9.352,26.534 9.352,27.892 C9.352,29.25 10.024,30.202 11.144,30.202 C12.264,30.202 12.936,29.25 12.936,27.892 Z M19.502,30.58 L19.502,30.118 C19.194,30.552 18.536,30.958 17.766,30.958 C15.946,30.958 14.98,29.446 14.98,27.808 C14.98,26.156 15.946,24.658 17.766,24.658 C18.536,24.658 19.194,25.05 19.502,25.484 L19.502,24.784 L20.566,24.784 L20.566,30.51 C20.566,32.554 19.39,33.52 17.794,33.52 C16.282,33.52 15.33,32.736 15.134,31.462 L16.17,31.462 C16.352,32.246 16.94,32.624 17.794,32.624 C18.914,32.624 19.502,31.924 19.502,30.58 Z M19.502,29.04 L19.502,26.562 C19.18,25.974 18.592,25.596 17.92,25.596 C16.744,25.596 16.058,26.52 16.058,27.808 C16.058,29.082 16.744,30.006 17.92,30.006 C18.592,30.006 19.18,29.628 19.502,29.04 Z M26.95,31 L25.942,31 L25.942,30.538 C25.704,30.79 25.046,31.112 24.304,31.112 C23.044,31.112 21.994,30.356 21.994,29.124 C21.994,27.962 23.044,27.178 24.374,27.178 C25.018,27.178 25.676,27.444 25.942,27.682 L25.942,26.898 C25.942,26.128 25.466,25.568 24.57,25.568 C23.912,25.568 23.492,25.848 23.296,26.422 L22.26,26.422 C22.47,25.372 23.394,24.658 24.584,24.658 C26.068,24.658 26.95,25.498 26.95,26.856 L26.95,31 Z M25.942,29.46 L25.942,28.816 C25.76,28.354 25.13,28.046 24.486,28.046 C23.73,28.046 23.002,28.382 23.002,29.124 C23.002,29.88 23.73,30.23 24.486,30.23 C25.13,30.23 25.76,29.922 25.942,29.46 Z M37.786,30.006 L32.858,30.006 L37.73,23.188 L37.73,22.404 L31.542,22.404 L31.542,23.384 L36.358,23.384 L31.472,30.202 L31.472,31 L37.786,31 L37.786,30.006 Z M43.232,29.138 L44.226,29.138 C44.002,30.314 43.12,31.126 41.72,31.126 C40.026,31.126 38.864,29.824 38.864,27.906 C38.864,26.044 39.998,24.658 41.692,24.658 C43.4,24.658 44.31,25.904 44.31,27.71 L44.31,28.088 L39.914,28.088 C39.928,29.418 40.67,30.23 41.72,30.23 C42.49,30.23 43.064,29.838 43.232,29.138 Z M41.706,25.554 C40.768,25.554 40.096,26.198 39.942,27.29 L43.246,27.29 C43.232,26.366 42.742,25.554 41.706,25.554 Z M45.71,31 L46.76,31 L46.76,26.786 C46.984,26.114 47.614,25.624 48.342,25.624 C49.28,25.624 49.714,26.226 49.714,27.094 L49.714,31 L50.778,31 L50.778,26.926 C50.778,25.568 50.008,24.658 48.594,24.658 C47.796,24.658 47.124,25.078 46.76,25.568 L46.76,24.784 L45.71,24.784 L45.71,31 Z" id="Yoga-Zen" opacity="0.300000012"></path>
                    </g>
                    <g id="Group" transform="translate(410.000000, 17.000000)" fill="#000000">
                        <g id="Group-54">
                            <path d="M5.956,3.99 C5.956,4.944 5.002,5.88 3.868,7.14 L0.592,10.776 L0.592,12 L7.954,12 L7.954,10.362 L3.148,10.362 L5.524,7.716 C6.658,6.438 7.774,5.322 7.774,3.972 C7.774,2.01 6.478,0.768 4.264,0.768 C2.212,0.768 0.79,2.208 0.574,4.26 L2.5,4.26 C2.572,3.216 3.166,2.424 4.264,2.424 C5.308,2.424 5.956,3.072 5.956,3.99 Z M14.956,0.948 L13.066,0.948 L8.908,8.4 L8.908,9.696 L13.894,9.696 L13.894,12 L15.622,12 L15.622,9.696 L17.44,9.696 L17.44,8.148 L15.622,8.148 L15.622,5.556 L13.894,5.556 L13.894,8.148 L10.942,8.148 L14.956,0.948 Z M29.158,12 L32.128,4.314 L32.128,12 L33.928,12 L33.928,0.948 L31.84,0.948 L28.51,9.444 L25.144,0.948 L23.002,0.948 L23.002,12 L24.784,12 L24.784,4.314 L27.826,12 L29.158,12 Z M42.424,12 L40.714,12 L40.714,11.55 C40.444,11.82 39.634,12.144 38.734,12.144 C37.096,12.144 35.746,11.172 35.746,9.534 C35.746,8.022 37.096,6.96 38.86,6.96 C39.58,6.96 40.39,7.212 40.714,7.446 L40.714,6.798 C40.714,5.988 40.21,5.358 39.184,5.358 C38.464,5.358 38.014,5.664 37.816,6.222 L36.088,6.222 C36.322,4.854 37.582,3.828 39.22,3.828 C41.236,3.828 42.424,4.944 42.424,6.762 L42.424,12 Z M40.714,9.876 L40.714,9.21 C40.516,8.706 39.796,8.4 39.076,8.4 C38.266,8.4 37.42,8.742 37.42,9.534 C37.42,10.344 38.266,10.686 39.076,10.686 C39.796,10.686 40.516,10.38 40.714,9.876 Z M47.464,15.06 L51.676,4.008 L49.822,4.008 L47.77,9.894 L45.682,4.008 L43.756,4.008 L46.852,12.216 L45.718,15.06 L47.464,15.06 Z" id="24-May" opacity="0.600000024"></path>
                            <path d="M9.406,25.254 L10.148,25.254 C10.134,25.408 10.134,25.548 10.134,25.702 C10.134,25.884 10.134,26.052 10.148,26.22 L9.406,26.22 L9.406,27.06 L10.26,27.06 C10.666,28.964 11.898,30.126 13.48,30.126 C14.908,30.126 15.916,29.258 16.238,27.774 L15.23,27.774 C14.978,28.628 14.376,29.16 13.48,29.16 C12.402,29.16 11.646,28.348 11.338,27.06 L13.718,27.06 L13.886,26.22 L11.212,26.22 C11.198,26.052 11.198,25.884 11.198,25.702 C11.198,25.548 11.198,25.408 11.212,25.254 L14.026,25.254 L14.194,24.414 L11.324,24.414 C11.618,23.098 12.388,22.244 13.48,22.244 C14.376,22.244 14.978,22.776 15.23,23.63 L16.238,23.63 C15.916,22.146 14.908,21.278 13.48,21.278 C11.884,21.278 10.624,22.468 10.246,24.414 L9.406,24.414 L9.406,25.254 Z M24.47,23.714 C24.47,24.526 23.77,25.24 22.874,26.22 L20.102,29.272 L20.102,30 L25.716,30 L25.716,29.02 L21.614,29.02 L23.798,26.626 C24.666,25.646 25.534,24.792 25.534,23.7 C25.534,22.23 24.554,21.278 22.916,21.278 C21.334,21.278 20.27,22.384 20.102,23.98 L21.236,23.98 C21.32,22.986 21.88,22.258 22.916,22.258 C23.868,22.258 24.47,22.832 24.47,23.714 Z M29.86,30.126 C27.942,30.126 26.654,28.32 26.654,25.702 C26.654,23.084 27.942,21.278 29.86,21.278 C31.778,21.278 33.066,23.084 33.066,25.702 C33.066,28.32 31.778,30.126 29.86,30.126 Z M29.86,22.272 C28.46,22.272 27.732,23.7 27.732,25.702 C27.732,27.704 28.46,29.132 29.86,29.132 C31.246,29.132 31.988,27.704 31.988,25.702 C31.988,23.7 31.246,22.272 29.86,22.272 Z M33.808,31.498 L34.522,31.498 L35.264,30.266 C35.432,30 35.572,29.678 35.572,29.384 C35.572,28.866 35.25,28.572 34.83,28.572 C34.41,28.572 34.074,28.88 34.074,29.314 C34.074,29.72 34.34,29.958 34.69,30.014 L33.808,31.498 Z M39.786,30.126 C37.868,30.126 36.58,28.32 36.58,25.702 C36.58,23.084 37.868,21.278 39.786,21.278 C41.704,21.278 42.992,23.084 42.992,25.702 C42.992,28.32 41.704,30.126 39.786,30.126 Z M39.786,22.272 C38.386,22.272 37.658,23.7 37.658,25.702 C37.658,27.704 38.386,29.132 39.786,29.132 C41.172,29.132 41.914,27.704 41.914,25.702 C41.914,23.7 41.172,22.272 39.786,22.272 Z M47.318,30.126 C45.4,30.126 44.112,28.32 44.112,25.702 C44.112,23.084 45.4,21.278 47.318,21.278 C49.236,21.278 50.524,23.084 50.524,25.702 C50.524,28.32 49.236,30.126 47.318,30.126 Z M47.318,22.272 C45.918,22.272 45.19,23.7 45.19,25.702 C45.19,27.704 45.918,29.132 47.318,29.132 C48.704,29.132 49.446,27.704 49.446,25.702 C49.446,23.7 48.704,22.272 47.318,22.272 Z" id="€-20,00" opacity="0.5"></path>
                        </g>
                    </g>
                    <ellipse id="Oval-4" fill="#4CD964" opacity="0.900000036" cx="23" cy="35" rx="3" ry="3"></ellipse>
                    <g id="Group-67" transform="translate(482.000000, 16.000000)">
                        <rect id="Rectangle-15" fill="#000000" x="0" y="0" width="37" height="35" rx="5.72000044"></rect>
                        <g id="Group-66" transform="translate(6.000000, 10.000000)">
                            <ellipse id="Oval-2" fill="#E7001A" cx="8.5" cy="7.5" rx="7.5" ry="6.5"></ellipse>
                            <ellipse id="Oval-2" fill="#F49B1C" cx="17.5" cy="7.5" rx="7.5" ry="6.5"></ellipse>
                            <path d="M13,1.54243779 C14.828925,2.83482474 16,4.8283405 16,7.09090909 C16,9.24951351 14.828925,11.1985121 13,12.471837 C11.171075,11.1985121 10,9.24951351 10,7.09090909 C10,4.8283405 11.171075,2.83482474 13,1.54243779 Z" id="Combined-Shape" fill="#FF5F00"></path>
                        </g>
                    </g>
                </g>
            </g>
        </g>
    </g>
</svg>