<?xml version="1.0" encoding="UTF-8"?>
<svg width="584px" height="292px" viewBox="0 0 584 292" version="1.1" xmlns="http://www.w3.org/2000/svg" xmlns:xlink="http://www.w3.org/1999/xlink">
    <!-- Generator: Sketch 43.1 (39012) - http://www.bohemiancoding.com/sketch -->
    <title>product-cover-payments-homepage</title>
    <desc>Created with Sketch.</desc>
    <defs></defs>
    <g id="Assets" stroke="none" stroke-width="1" fill="none" fill-rule="evenodd">
        <g id="product-cover-payments-homepage">
            <g id="Group-19" transform="translate(20.000000, 16.000000)">
                <g id="Group-20" opacity="0.900000036" transform="translate(350.000000, 20.000000)">
                    <rect id="Rectangle" fill="#FFFFFF" opacity="0.800000012" x="0" y="0" width="194" height="194" rx="8"></rect>
                    <ellipse id="Oval-10" fill="#0094FF" cx="97.4695043" cy="119.46" rx="26.4695043" ry="26.46"></ellipse>
                    <polygon id="Combined-Shape" fill="#FFFFFF" points="93.8559407 124.346677 88.5273506 119.018087 87 120.545437 93.4935719 127.039009 93.6214434 126.911138 93.9843608 127.274055 107.730517 113.527899 106.202617 112"></polygon>
                    <path d="M0,7.99694132 C0,3.58035259 3.57482502,0 7.99718944,0 L186.002811,0 C190.419536,0 194,3.58491065 194,7.99694132 L194,54 L0,54 L0,7.99694132 Z" id="Rectangle" fill="#FFFFFF" opacity="0.800000012"></path>
                    <path d="M76.802,25.384 L79.798,25.384 L79.798,33 L80.904,33 L80.904,25.384 L83.9,25.384 L83.9,24.404 L76.802,24.404 L76.802,25.384 Z M86.308,26.784 L85.258,26.784 L85.258,33 L86.308,33 L86.308,26.784 Z M86.462,24.908 C86.462,24.53 86.154,24.236 85.776,24.236 C85.412,24.236 85.104,24.53 85.104,24.908 C85.104,25.272 85.412,25.58 85.776,25.58 C86.154,25.58 86.462,25.272 86.462,24.908 Z M87.736,29.892 C87.736,31.824 88.898,33.126 90.564,33.126 C91.964,33.126 92.846,32.314 93.056,31.124 L91.978,31.124 C91.838,31.796 91.306,32.202 90.564,32.202 C89.5,32.202 88.8,31.25 88.8,29.892 C88.8,28.534 89.5,27.582 90.564,27.582 C91.306,27.582 91.838,27.988 91.978,28.66 L93.056,28.66 C92.846,27.47 91.964,26.658 90.564,26.658 C88.898,26.658 87.736,27.96 87.736,29.892 Z M98.516,33 L99.804,33 L96.906,29.472 L99.706,26.784 L98.32,26.784 L95.478,29.542 L95.478,23.9 L94.428,23.9 L94.428,33 L95.478,33 L95.478,30.774 L96.15,30.13 L98.516,33 Z M104.844,31.138 L105.838,31.138 C105.614,32.314 104.732,33.126 103.332,33.126 C101.638,33.126 100.476,31.824 100.476,29.906 C100.476,28.044 101.61,26.658 103.304,26.658 C105.012,26.658 105.922,27.904 105.922,29.71 L105.922,30.088 L101.526,30.088 C101.54,31.418 102.282,32.23 103.332,32.23 C104.102,32.23 104.676,31.838 104.844,31.138 Z M103.318,27.554 C102.38,27.554 101.708,28.198 101.554,29.29 L104.858,29.29 C104.844,28.366 104.354,27.554 103.318,27.554 Z M107.616,31.432 C107.616,32.58 108.316,33.126 109.324,33.126 C109.702,33.126 110.066,33.042 110.304,32.916 L110.304,31.936 C110.094,32.076 109.786,32.188 109.492,32.188 C108.96,32.188 108.666,31.922 108.666,31.32 L108.666,27.68 L110.164,27.68 L110.164,26.784 L108.666,26.784 L108.666,25.146 L107.616,25.146 L107.616,26.784 L106.608,26.784 L106.608,27.68 L107.616,27.68 L107.616,31.432 Z M111.242,31.292 C111.438,32.44 112.432,33.126 113.79,33.126 C115.12,33.126 116.1,32.426 116.1,31.25 C116.1,30.382 115.582,29.794 114.518,29.514 L113.314,29.22 C112.726,29.052 112.446,28.856 112.446,28.436 C112.446,27.834 113.02,27.54 113.636,27.54 C114.392,27.54 114.826,27.862 115.008,28.422 L116.058,28.422 C115.834,27.33 115.022,26.658 113.65,26.658 C112.39,26.658 111.424,27.386 111.424,28.492 C111.424,29.458 112.04,29.906 112.922,30.13 L114.154,30.452 C114.798,30.62 115.078,30.886 115.078,31.32 C115.078,31.95 114.546,32.244 113.804,32.244 C113.076,32.244 112.53,31.936 112.334,31.292 L111.242,31.292 Z" id="Tickets" fill="#000000" opacity="0.400000006"></path>
                </g>
                <g id="Group-17" opacity="0.900000036" transform="translate(0.000000, 20.000000)">
                    <rect id="Rectangle" fill="#FFFFFF" opacity="0.800000012" x="0" y="0" width="194" height="194" rx="8"></rect>
                    <path d="M0,150 L234,150 L234,186.006422 C234,190.421153 230.418057,194 225.995985,194 L8.00401486,194 C3.58351951,194 0,190.417951 0,186.006422 L0,150 Z" id="Rectangle" fill="#FAFCFF"></path>
                    <path d="M110.754,172.562 C111.566,172.828 112.154,173.626 112.154,174.536 C112.154,176.146 111.034,177 109.242,177 L105.952,177 L105.952,168.404 L108.962,168.404 C110.754,168.404 111.874,169.202 111.874,170.742 C111.874,171.666 111.384,172.338 110.754,172.562 Z M107.366,172.016 L108.948,172.016 C109.942,172.016 110.474,171.638 110.474,170.826 C110.474,170.014 109.942,169.664 108.948,169.664 L107.366,169.664 L107.366,172.016 Z M107.366,173.22 L107.366,175.74 L109.214,175.74 C110.194,175.74 110.726,175.25 110.726,174.48 C110.726,173.696 110.194,173.22 109.214,173.22 L107.366,173.22 Z M116.97,177.14 C119.028,177.14 120.414,175.936 120.414,173.584 L120.414,168.404 L118.958,168.404 L118.958,173.416 C118.958,175.068 118.258,175.838 116.97,175.838 C115.682,175.838 114.982,175.068 114.982,173.416 L114.982,168.404 L113.526,168.404 L113.526,173.57 C113.526,175.936 114.926,177.14 116.97,177.14 Z M125.3,172.254 L123.018,168.404 L121.436,168.404 L124.544,173.57 L124.544,177 L125.986,177 L125.986,173.57 L129.108,168.404 L127.568,168.404 L125.3,172.254 Z" id="BUY" fill="#0095FF"></path>
                    <path d="M0,7.99694132 C0,3.58035259 3.57482502,0 7.99718944,0 L186.002811,0 C190.419536,0 194,3.58491065 194,7.99694132 L194,54 L0,54 L0,7.99694132 Z" id="Rectangle" fill="#FFFFFF" opacity="0.800000012"></path>
                    <g id="Page-1" transform="translate(32.000000, 54.000000)">
                        <path d="M74.6487257,81.1103433 C73.5390772,84.0490155 74.9787827,87.3298392 77.8770112,88.5020751 L74.2905915,98 L0,69.8250281 L3.58522491,60.3306954 C6.56111393,61.4595262 9.88528022,59.9544184 11.0101621,56.9753347 C12.1362387,53.9926588 10.6379893,50.6627424 7.66210027,49.5342109 L11.2482213,40.0365854 L85.5388128,68.2112579 L81.9511983,77.7124756 C79.0045813,76.6683594 75.759569,78.1683784 74.6487257,81.1103433" id="Fill-1" fill="#0094FF"></path>
                        <polygon id="Stroke-4" stroke="#FFFFFF" stroke-width="0.599999964" points="74.7716895 69.1508662 69.3054133 67.0699274 18.697582 47.804878 10.7671233 68.8857192 66.8412308 90.2317073"></polygon>
                        <polygon id="Stroke-6" fill="#FFFFFF" fill-rule="nonzero" points="60.0986588 87.9429426 67.8749145 66.4307474 67.3123001 66.2277892 59.5360444 87.7399843"></polygon>
                        <polygon id="Stroke-8" fill="#FFFFFF" fill-rule="nonzero" points="18.2265127 71.8087962 26.0027684 50.2966011 25.440154 50.0936428 17.6638983 71.6058379"></polygon>
                        <path d="M131,55.4646333 L128.742924,57.7916889 C128.018393,57.1066449 126.876438,57.1338672 126.181724,57.8515181 C125.484028,58.5697673 125.489991,59.7154959 126.19365,60.4244716 L123.945519,62.742852 L123.733825,62.9612285 C123.009295,62.2761845 121.867339,62.3028084 121.169643,63.0210577 C120.471947,63.7390077 120.480892,64.8844372 121.18157,65.5934129 L118.721744,68.1304689 C117.997214,67.4454249 116.855259,67.472348 116.157563,68.1902981 C115.462848,68.907949 115.468812,70.0566691 116.169489,70.7656447 L115.933942,71.008252 L113.712645,73.2997093 C112.985133,72.6146653 111.843178,72.6415884 111.148464,73.3592393 C110.450768,74.0774885 110.459713,75.2232171 111.16039,75.9321928 L108.882443,78.2804878 L52.0410959,22.8155554 L54.3309697,20.4526022 C54.3846386,20.5243972 54.4442708,20.5932008 54.5098661,20.6560214 C55.2373781,21.3649971 56.397223,21.3470483 57.1008822,20.6201239 C57.8075229,19.8931995 57.7896333,18.7295221 57.0651029,18.0205464 C56.9995075,17.9577258 56.9309306,17.8978966 56.859372,17.8470418 L59.0925953,15.5436187 L59.3460319,15.2833618 C59.3967192,15.3551568 59.4563513,15.4236612 59.5219467,15.4864819 C60.2464771,16.1954575 61.406322,16.1778079 62.1129627,15.4505844 C62.8166219,14.7239591 62.8017139,13.5602817 62.0771835,12.851306 C62.0115881,12.7884854 61.9430112,12.7286562 61.8714526,12.6778014 L64.3581125,10.1138223 C64.4087998,10.1859164 64.4684319,10.25472 64.5340272,10.3175406 C65.2585576,11.0265163 66.4184026,11.0085675 67.1220617,10.2816431 C67.8287025,9.55441952 67.8137944,8.39104128 67.0862824,7.6820656 C67.0206871,7.61924497 66.9521101,7.55911666 66.8805516,7.51155246 L67.1101353,7.27522724 L69.3672114,4.94787247 C69.4178987,5.01637687 69.4775309,5.08547957 69.5431262,5.1483002 C70.2676566,5.85727588 71.4275015,5.83902798 72.1341423,5.11240269 C72.840783,4.38547826 72.8228934,3.22150173 72.098363,2.51252605 C72.0327677,2.44970542 71.9641907,2.3901754 71.8926322,2.34231206 L74.1616347,0 L131,55.4646333 Z" id="Fill-10" fill="#0094FF"></path>
                        <polygon id="Stroke-13" stroke="#FFFFFF" stroke-width="0.599999964" points="120.83105 51.4341566 116.639804 47.3522428 77.837934 9.56097561 62.2100457 25.6506112 105.203461 67.5243902"></polygon>
                        <polygon id="Stroke-15" fill="#FFFFFF" fill-rule="nonzero" points="100.110415 62.3535881 115.662927 46.2194417 115.23205 45.8049485 99.6795389 61.9390949"></polygon>
                        <polygon id="Stroke-17" fill="#FFFFFF" fill-rule="nonzero" points="67.8090455 31.2804173 83.361557 15.146271 82.9306805 14.7317778 67.3781691 30.8659241"></polygon>
                    </g>
                    <path d="M17.42,19.384 L20.416,19.384 L20.416,27 L21.522,27 L21.522,19.384 L24.518,19.384 L24.518,18.404 L17.42,18.404 L17.42,19.384 Z M26.926,20.784 L25.876,20.784 L25.876,27 L26.926,27 L26.926,20.784 Z M27.08,18.908 C27.08,18.53 26.772,18.236 26.394,18.236 C26.03,18.236 25.722,18.53 25.722,18.908 C25.722,19.272 26.03,19.58 26.394,19.58 C26.772,19.58 27.08,19.272 27.08,18.908 Z M28.354,23.892 C28.354,25.824 29.516,27.126 31.182,27.126 C32.582,27.126 33.464,26.314 33.674,25.124 L32.596,25.124 C32.456,25.796 31.924,26.202 31.182,26.202 C30.118,26.202 29.418,25.25 29.418,23.892 C29.418,22.534 30.118,21.582 31.182,21.582 C31.924,21.582 32.456,21.988 32.596,22.66 L33.674,22.66 C33.464,21.47 32.582,20.658 31.182,20.658 C29.516,20.658 28.354,21.96 28.354,23.892 Z M39.134,27 L40.422,27 L37.524,23.472 L40.324,20.784 L38.938,20.784 L36.096,23.542 L36.096,17.9 L35.046,17.9 L35.046,27 L36.096,27 L36.096,24.774 L36.768,24.13 L39.134,27 Z M45.462,25.138 L46.456,25.138 C46.232,26.314 45.35,27.126 43.95,27.126 C42.256,27.126 41.094,25.824 41.094,23.906 C41.094,22.044 42.228,20.658 43.922,20.658 C45.63,20.658 46.54,21.904 46.54,23.71 L46.54,24.088 L42.144,24.088 C42.158,25.418 42.9,26.23 43.95,26.23 C44.72,26.23 45.294,25.838 45.462,25.138 Z M43.936,21.554 C42.998,21.554 42.326,22.198 42.172,23.29 L45.476,23.29 C45.462,22.366 44.972,21.554 43.936,21.554 Z M48.234,25.432 C48.234,26.58 48.934,27.126 49.942,27.126 C50.32,27.126 50.684,27.042 50.922,26.916 L50.922,25.936 C50.712,26.076 50.404,26.188 50.11,26.188 C49.578,26.188 49.284,25.922 49.284,25.32 L49.284,21.68 L50.782,21.68 L50.782,20.784 L49.284,20.784 L49.284,19.146 L48.234,19.146 L48.234,20.784 L47.226,20.784 L47.226,21.68 L48.234,21.68 L48.234,25.432 Z M51.86,25.292 C52.056,26.44 53.05,27.126 54.408,27.126 C55.738,27.126 56.718,26.426 56.718,25.25 C56.718,24.382 56.2,23.794 55.136,23.514 L53.932,23.22 C53.344,23.052 53.064,22.856 53.064,22.436 C53.064,21.834 53.638,21.54 54.254,21.54 C55.01,21.54 55.444,21.862 55.626,22.422 L56.676,22.422 C56.452,21.33 55.64,20.658 54.268,20.658 C53.008,20.658 52.042,21.386 52.042,22.492 C52.042,23.458 52.658,23.906 53.54,24.13 L54.772,24.452 C55.416,24.62 55.696,24.886 55.696,25.32 C55.696,25.95 55.164,26.244 54.422,26.244 C53.694,26.244 53.148,25.936 52.952,25.292 L51.86,25.292 Z" id="Tickets" fill="#000000" opacity="0.400000006"></path>
                    <path d="M20.751,35.061 C20.751,35.699 20.201,36.26 19.497,37.03 L17.319,39.428 L17.319,40 L21.73,40 L21.73,39.23 L18.507,39.23 L20.223,37.349 C20.905,36.579 21.587,35.908 21.587,35.05 C21.587,33.895 20.817,33.147 19.53,33.147 C18.287,33.147 17.451,34.016 17.319,35.27 L18.21,35.27 C18.276,34.489 18.716,33.917 19.53,33.917 C20.278,33.917 20.751,34.368 20.751,35.061 Z M25.426,38.768 C25.426,39.67 25.976,40.099 26.768,40.099 C27.065,40.099 27.351,40.033 27.538,39.934 L27.538,39.164 C27.373,39.274 27.131,39.362 26.9,39.362 C26.482,39.362 26.251,39.153 26.251,38.68 L26.251,35.82 L27.428,35.82 L27.428,35.116 L26.251,35.116 L26.251,33.829 L25.426,33.829 L25.426,35.116 L24.634,35.116 L24.634,35.82 L25.426,35.82 L25.426,38.768 Z M29.507,35.116 L28.682,35.116 L28.682,40 L29.507,40 L29.507,35.116 Z M29.628,33.642 C29.628,33.345 29.386,33.114 29.089,33.114 C28.803,33.114 28.561,33.345 28.561,33.642 C28.561,33.928 28.803,34.17 29.089,34.17 C29.386,34.17 29.628,33.928 29.628,33.642 Z M30.629,37.558 C30.629,39.076 31.542,40.099 32.851,40.099 C33.951,40.099 34.644,39.461 34.809,38.526 L33.962,38.526 C33.852,39.054 33.434,39.373 32.851,39.373 C32.015,39.373 31.465,38.625 31.465,37.558 C31.465,36.491 32.015,35.743 32.851,35.743 C33.434,35.743 33.852,36.062 33.962,36.59 L34.809,36.59 C34.644,35.655 33.951,35.017 32.851,35.017 C31.542,35.017 30.629,36.04 30.629,37.558 Z M39.099,40 L40.111,40 L37.834,37.228 L40.034,35.116 L38.945,35.116 L36.712,37.283 L36.712,32.85 L35.887,32.85 L35.887,40 L36.712,40 L36.712,38.251 L37.24,37.745 L39.099,40 Z M44.071,38.537 L44.852,38.537 C44.676,39.461 43.983,40.099 42.883,40.099 C41.552,40.099 40.639,39.076 40.639,37.569 C40.639,36.106 41.53,35.017 42.861,35.017 C44.203,35.017 44.918,35.996 44.918,37.415 L44.918,37.712 L41.464,37.712 C41.475,38.757 42.058,39.395 42.883,39.395 C43.488,39.395 43.939,39.087 44.071,38.537 Z M42.872,35.721 C42.135,35.721 41.607,36.227 41.486,37.085 L44.082,37.085 C44.071,36.359 43.686,35.721 42.872,35.721 Z M46.249,38.768 C46.249,39.67 46.799,40.099 47.591,40.099 C47.888,40.099 48.174,40.033 48.361,39.934 L48.361,39.164 C48.196,39.274 47.954,39.362 47.723,39.362 C47.305,39.362 47.074,39.153 47.074,38.68 L47.074,35.82 L48.251,35.82 L48.251,35.116 L47.074,35.116 L47.074,33.829 L46.249,33.829 L46.249,35.116 L45.457,35.116 L45.457,35.82 L46.249,35.82 L46.249,38.768 Z M49.098,38.658 C49.252,39.56 50.033,40.099 51.1,40.099 C52.145,40.099 52.915,39.549 52.915,38.625 C52.915,37.943 52.508,37.481 51.672,37.261 L50.726,37.03 C50.264,36.898 50.044,36.744 50.044,36.414 C50.044,35.941 50.495,35.71 50.979,35.71 C51.573,35.71 51.914,35.963 52.057,36.403 L52.882,36.403 C52.706,35.545 52.068,35.017 50.99,35.017 C50,35.017 49.241,35.589 49.241,36.458 C49.241,37.217 49.725,37.569 50.418,37.745 L51.386,37.998 C51.892,38.13 52.112,38.339 52.112,38.68 C52.112,39.175 51.694,39.406 51.111,39.406 C50.539,39.406 50.11,39.164 49.956,38.658 L49.098,38.658 Z" id="2-tickets" fill="#000000" opacity="0.400000006"></path>
                </g>
                <g id="Group-18" transform="translate(155.000000, 0.000000)">
                    <rect id="Rectangle" fill="#FFFFFF" x="0" y="0" width="234" height="234" rx="8"></rect>
                    <polygon id="Rectangle-30" fill="#0094FF" opacity="0.100000001" points="122 53 229 53 229 136 122 136"></polygon>
                    <path d="M38.64,24.088 C38.64,27.112 40.576,29.16 43.104,29.16 C45.312,29.16 46.736,27.88 47.104,25.896 L45.472,25.896 C45.088,26.952 44.416,27.656 43.104,27.656 C41.36,27.656 40.32,26.136 40.32,24.088 C40.32,22.024 41.376,20.52 43.104,20.52 C44.416,20.52 45.088,21.224 45.472,22.264 L47.104,22.264 C46.736,20.296 45.328,19.016 43.104,19.016 C40.576,19.016 38.64,21.064 38.64,24.088 Z M48.624,29 L50.224,29 L50.224,24.328 C50.4,23.624 51.024,23.192 51.712,23.192 C52.624,23.192 53.056,23.768 53.056,24.648 L53.056,29 L54.656,29 L54.656,24.376 C54.656,22.808 53.76,21.736 52.144,21.736 C51.312,21.736 50.608,22.12 50.224,22.568 L50.224,18.6 L48.624,18.6 L48.624,29 Z M62.8,25.448 C62.8,27.624 61.424,29.16 59.424,29.16 C57.424,29.16 56.048,27.624 56.048,25.448 C56.048,23.272 57.424,21.736 59.424,21.736 C61.424,21.736 62.8,23.272 62.8,25.448 Z M61.2,25.448 C61.2,24.104 60.576,23.112 59.424,23.112 C58.272,23.112 57.648,24.104 57.648,25.448 C57.648,26.792 58.272,27.784 59.424,27.784 C60.576,27.784 61.2,26.792 61.2,25.448 Z M70.544,25.448 C70.544,27.624 69.168,29.16 67.168,29.16 C65.168,29.16 63.792,27.624 63.792,25.448 C63.792,23.272 65.168,21.736 67.168,21.736 C69.168,21.736 70.544,23.272 70.544,25.448 Z M68.944,25.448 C68.944,24.104 68.32,23.112 67.168,23.112 C66.016,23.112 65.392,24.104 65.392,25.448 C65.392,26.792 66.016,27.784 67.168,27.784 C68.32,27.784 68.944,26.792 68.944,25.448 Z M71.536,26.952 C71.744,28.328 72.896,29.16 74.56,29.16 C76.16,29.16 77.328,28.296 77.328,26.888 C77.328,25.848 76.72,25.16 75.504,24.872 L74,24.52 C73.488,24.392 73.264,24.184 73.264,23.864 C73.264,23.304 73.84,23.048 74.4,23.048 C75.136,23.048 75.552,23.368 75.696,23.832 L77.264,23.832 C77.024,22.536 76.08,21.736 74.416,21.736 C72.864,21.736 71.728,22.68 71.728,23.96 C71.728,25.128 72.48,25.672 73.488,25.912 L74.96,26.264 C75.552,26.408 75.792,26.616 75.792,27 C75.792,27.56 75.312,27.848 74.576,27.848 C73.872,27.848 73.344,27.544 73.168,26.952 L71.536,26.952 Z M83.28,26.792 L84.752,26.792 C84.512,28.2 83.472,29.16 81.76,29.16 C79.776,29.16 78.4,27.656 78.4,25.464 C78.4,23.336 79.792,21.736 81.728,21.736 C83.728,21.736 84.816,23.16 84.816,25.24 L84.816,25.816 L79.968,25.816 C80.016,27.064 80.736,27.816 81.76,27.816 C82.528,27.816 83.104,27.48 83.28,26.792 Z M81.744,23.08 C80.864,23.08 80.208,23.624 80.016,24.648 L83.232,24.648 C83.216,23.784 82.72,23.08 81.744,23.08 Z M91.424,28.392 L91.424,31.72 L89.824,31.72 L89.824,21.896 L91.424,21.896 L91.424,22.504 C91.744,22.104 92.448,21.736 93.232,21.736 C95.312,21.736 96.528,23.464 96.528,25.448 C96.528,27.432 95.312,29.16 93.232,29.16 C92.448,29.16 91.744,28.792 91.424,28.392 Z M91.424,24.104 L91.424,26.792 C91.696,27.352 92.304,27.736 92.96,27.736 C94.192,27.736 94.928,26.76 94.928,25.448 C94.928,24.136 94.192,23.16 92.96,23.16 C92.304,23.16 91.696,23.544 91.424,24.104 Z M103.488,29 L101.968,29 L101.968,28.6 C101.728,28.84 101.008,29.128 100.208,29.128 C98.752,29.128 97.552,28.264 97.552,26.808 C97.552,25.464 98.752,24.52 100.32,24.52 C100.96,24.52 101.68,24.744 101.968,24.952 L101.968,24.376 C101.968,23.656 101.52,23.096 100.608,23.096 C99.968,23.096 99.568,23.368 99.392,23.864 L97.856,23.864 C98.064,22.648 99.184,21.736 100.64,21.736 C102.432,21.736 103.488,22.728 103.488,24.344 L103.488,29 Z M101.968,27.112 L101.968,26.52 C101.792,26.072 101.152,25.8 100.512,25.8 C99.792,25.8 99.04,26.104 99.04,26.808 C99.04,27.528 99.792,27.832 100.512,27.832 C101.152,27.832 101.792,27.56 101.968,27.112 Z M107.968,31.72 L111.712,21.896 L110.064,21.896 L108.24,27.128 L106.384,21.896 L104.672,21.896 L107.424,29.192 L106.416,31.72 L107.968,31.72 Z M118.24,22.68 C117.872,22.136 117.168,21.736 116.368,21.736 C115.568,21.736 114.928,22.04 114.592,22.488 L114.592,21.896 L112.992,21.896 L112.992,29 L114.592,29 L114.592,24.232 C114.736,23.528 115.28,23.176 115.856,23.176 C116.64,23.176 117.024,23.752 117.024,24.632 L117.024,29 L118.624,29 L118.624,24.232 C118.768,23.528 119.312,23.176 119.888,23.176 C120.672,23.176 121.056,23.752 121.056,24.632 L121.056,29 L122.656,29 L122.656,24.376 C122.656,22.76 121.808,21.736 120.352,21.736 C119.392,21.736 118.736,22.104 118.24,22.68 Z M128.928,26.792 L130.4,26.792 C130.16,28.2 129.12,29.16 127.408,29.16 C125.424,29.16 124.048,27.656 124.048,25.464 C124.048,23.336 125.44,21.736 127.376,21.736 C129.376,21.736 130.464,23.16 130.464,25.24 L130.464,25.816 L125.616,25.816 C125.664,27.064 126.384,27.816 127.408,27.816 C128.176,27.816 128.752,27.48 128.928,26.792 Z M127.392,23.08 C126.512,23.08 125.856,23.624 125.664,24.648 L128.88,24.648 C128.864,23.784 128.368,23.08 127.392,23.08 Z M131.936,29 L133.536,29 L133.536,24.328 C133.712,23.624 134.336,23.192 135.024,23.192 C135.936,23.192 136.368,23.768 136.368,24.648 L136.368,29 L137.968,29 L137.968,24.376 C137.968,22.808 137.072,21.736 135.456,21.736 C134.624,21.736 133.92,22.12 133.536,22.568 L133.536,21.896 L131.936,21.896 L131.936,29 Z M140.224,27.08 C140.224,28.488 141.12,29.16 142.384,29.16 C142.88,29.16 143.312,29.064 143.584,28.904 L143.584,27.448 C143.36,27.608 142.992,27.736 142.672,27.736 C142.144,27.736 141.824,27.48 141.824,26.904 L141.824,23.224 L143.424,23.224 L143.424,21.896 L141.824,21.896 L141.824,19.992 L140.224,19.992 L140.224,21.896 L139.104,21.896 L139.104,23.224 L140.224,23.224 L140.224,27.08 Z M154,22.68 C153.632,22.136 152.928,21.736 152.128,21.736 C151.328,21.736 150.688,22.04 150.352,22.488 L150.352,21.896 L148.752,21.896 L148.752,29 L150.352,29 L150.352,24.232 C150.496,23.528 151.04,23.176 151.616,23.176 C152.4,23.176 152.784,23.752 152.784,24.632 L152.784,29 L154.384,29 L154.384,24.232 C154.528,23.528 155.072,23.176 155.648,23.176 C156.432,23.176 156.816,23.752 156.816,24.632 L156.816,29 L158.416,29 L158.416,24.376 C158.416,22.76 157.568,21.736 156.112,21.736 C155.152,21.736 154.496,22.104 154,22.68 Z M164.688,26.792 L166.16,26.792 C165.92,28.2 164.88,29.16 163.168,29.16 C161.184,29.16 159.808,27.656 159.808,25.464 C159.808,23.336 161.2,21.736 163.136,21.736 C165.136,21.736 166.224,23.16 166.224,25.24 L166.224,25.816 L161.376,25.816 C161.424,27.064 162.144,27.816 163.168,27.816 C163.936,27.816 164.512,27.48 164.688,26.792 Z M163.152,23.08 C162.272,23.08 161.616,23.624 161.424,24.648 L164.64,24.648 C164.624,23.784 164.128,23.08 163.152,23.08 Z M168.064,27.08 C168.064,28.488 168.96,29.16 170.224,29.16 C170.72,29.16 171.152,29.064 171.424,28.904 L171.424,27.448 C171.2,27.608 170.832,27.736 170.512,27.736 C169.984,27.736 169.664,27.48 169.664,26.904 L169.664,23.224 L171.264,23.224 L171.264,21.896 L169.664,21.896 L169.664,19.992 L168.064,19.992 L168.064,21.896 L166.944,21.896 L166.944,23.224 L168.064,23.224 L168.064,27.08 Z M173.056,29 L174.656,29 L174.656,24.328 C174.832,23.624 175.456,23.192 176.144,23.192 C177.056,23.192 177.488,23.768 177.488,24.648 L177.488,29 L179.088,29 L179.088,24.376 C179.088,22.808 178.192,21.736 176.576,21.736 C175.744,21.736 175.04,22.12 174.656,22.568 L174.656,18.6 L173.056,18.6 L173.056,29 Z M187.232,25.448 C187.232,27.624 185.856,29.16 183.856,29.16 C181.856,29.16 180.48,27.624 180.48,25.448 C180.48,23.272 181.856,21.736 183.856,21.736 C185.856,21.736 187.232,23.272 187.232,25.448 Z M185.632,25.448 C185.632,24.104 185.008,23.112 183.856,23.112 C182.704,23.112 182.08,24.104 182.08,25.448 C182.08,26.792 182.704,27.784 183.856,27.784 C185.008,27.784 185.632,26.792 185.632,25.448 Z M193.328,29 L193.328,28.392 C193.008,28.792 192.304,29.16 191.52,29.16 C189.44,29.16 188.224,27.496 188.224,25.448 C188.224,23.416 189.44,21.736 191.52,21.736 C192.304,21.736 193.008,22.104 193.328,22.504 L193.328,18.6 L194.928,18.6 L194.928,29 L193.328,29 Z M193.328,26.792 L193.328,24.104 C193.056,23.544 192.448,23.16 191.792,23.16 C190.56,23.16 189.824,24.136 189.824,25.448 C189.824,26.76 190.56,27.736 191.792,27.736 C192.448,27.736 193.056,27.352 193.328,26.792 Z" id="Choose-payment-metho" fill="#000000" opacity="0.600000024"></path>
                    <rect id="Rectangle-20" fill="#000000" opacity="0.100000001" x="0" y="141" width="234" height="1"></rect>
                    <rect id="Rectangle-20" fill="#000000" opacity="0.100000001" x="0" y="47" width="234" height="1"></rect>
                    <g id="Group-36" transform="translate(42.000000, 79.000000)">
                        <rect id="Rectangle-15" fill="#FD6EB6" x="0" y="0" width="32" height="32" rx="4.80000019"></rect>
                        <g id="Group-16" transform="translate(8.000000, 9.000000)">
                            <path d="M8.44170428,1 C10.0799744,1 11.4453495,1.43920468 12.3902406,2.27014548 C13.4584185,3.2094552 14,4.6325737 14,6.5 C14,10.2009121 12.1818595,12 8.44170428,12 L1,12 L1,1 L8.44170428,1 Z" id="Path" fill="#FFFFFF"></path>
                            <polygon id="Fill-1" fill="#000000" points="2 11 4 11 4 7 2 7"></polygon>
                            <path d="M4,4.8 C4,5.5520801 3.55224997,6 2.8,6 C2.44776827,6 2,5.5520801 2,4.8 C2,4.44771927 2.44776827,4 2.8,4 C3.55224997,4 4,4.44771927 4,4.8" id="Fill-2" fill="#000000"></path>
                            <path d="M8.68181818,1 C10.0799744,1 11.4453495,1.43920468 12.2272727,2.15789474 C13.4584185,3.2094552 14,4.6325737 14,6.78947368 C14,10.2009121 12.1818595,12 8.68181818,12 L1,12 L1,1 L8.68181818,1 Z M0,0 L0,13 L8.4,13 C10.5076887,12.9720253 12.000005,12.5068656 13.2,11.8181818 C14.3469844,10.5220921 15,8.80238759 15,6.5 C15,5.39939011 14.8282335,4.41220853 14.4,3.54545455 C14.1654147,2.75617485 13.6864986,2.0677602 13.2,1.77272727 C11.9733999,0.554437014 10.4395628,0.0325138147 8.4,0 L0,0 Z" id="Fill-4" fill="#000000"></path>
                            <path d="M7.85714286,11 L5,11 L5,2 L7.85714286,2 L7.85714286,2 C10.3514432,2 13,2.95759596 13,6.5 C13,10.2692685 10.3514432,11 7.85714286,11 L7.85714286,11 Z" id="Fill-7" fill="#EE499C"></path>
                        </g>
                    </g>
                    <g id="Group-13" transform="translate(42.000000, 172.000000)">
                        <rect id="Rectangle-15" fill="#007AFF" x="0" y="0" width="32" height="32" rx="4.80000019"></rect>
                        <g id="Group" transform="translate(10.000000, 8.000000)" fill="#FFFFFF">
                            <path d="M10.814058,3.8110371 C10.9868397,2.64407505 10.8129042,1.85021084 10.2171101,1.13090509 C9.56117411,0.339179857 8.3762203,0 6.86012555,0 L2.45923941,0 C2.14944379,0 1.88551177,0.238800953 1.83734057,0.56316079 L0.00467162861,12.8732506 C-0.0313846582,13.1161767 0.145868048,13.3357269 0.377782084,13.3357269 L3.09469541,13.3357269 L2.90720272,14.5954287 C2.87561741,14.8079509 3.03051522,15 3.23358422,15 L5.52373534,15 C5.79473439,15 6.02549462,14.7911447 6.06775259,14.5074253 L6.09025171,14.383976 L6.52162913,11.4859745 L6.54946458,11.3258571 C6.59172255,11.0422905 6.82248279,10.8331296 7.09348184,10.8331296 L7.43601656,10.8331296 C9.654632,10.8331296 11.3918239,9.87838416 11.8993522,7.11697122 C12.1115074,5.96314857 12.001752,5 11.4408605,4.32286256 C11.2713959,4.11843794 11.0602503,3.94915358 10.814058,3.8110371 L10.814058,3.8110371" id="Shape" opacity="0.68"></path>
                            <path d="M10.9358256,3.71509423 C11.1105529,2.57751045 10.9346588,1.80363178 10.332156,1.10243455 C9.66883414,0.330641004 8.4705376,0 6.93737143,0 L2.48693076,0 C2.1736468,0 1.90674287,0.232789139 1.85802926,0.548983216 L0.00472423174,12.5491665 C-0.0317380534,12.785977 0.14751054,13 0.382035958,13 L3.12954207,13 L3.8197002,8.53083577 L3.79826038,8.67098585 C3.84711984,8.35494071 4.11154433,8.12200264 4.42497414,8.12200264 L5.73090734,8.12200264 C8.29551863,8.12200264 10.3037154,7.05799393 10.8903207,3.98094747 C10.9078226,3.89009566 10.9225533,3.80177579 10.9358256,3.71509423" id="Shape" opacity="0.7"></path>
                            <path d="M4.56107628,3.73013691 C4.59039118,3.5400928 4.70998431,3.38430429 4.87085164,3.30566535 C4.94392012,3.26992038 5.02573932,3.24996277 5.1113505,3.24996277 L8.59982358,3.24996277 C9.01314909,3.24996277 9.3984723,3.27766512 9.75068863,3.33560176 C9.85132187,3.35213381 9.9493299,3.3711978 10.0445669,3.39279372 C10.139658,3.41438964 10.2321239,3.43836856 10.321527,3.46517729 C10.3663015,3.47843272 10.410201,3.49258177 10.453517,3.50717764 C10.6264895,3.56585897 10.7876485,3.63496592 10.9358273,3.71524317 C11.11055,2.57765939 10.9346606,1.80378072 10.3321737,1.10258349 C9.66857774,0.330641004 8.47031298,0 6.93718747,0 L2.48686481,0 C2.17358916,0 1.90669231,0.232789139 1.85797999,0.548983216 L0.00472410646,12.5491665 C-0.0317372118,12.785977 0.147506629,13 0.382025828,13 L3.12945908,13 L3.81959891,8.53083577 L4.56107628,3.73013691 L4.56107628,3.73013691 Z" id="Shape"></path>
                        </g>
                    </g>
                    <g id="Group-2" transform="translate(160.000000, 79.000000)">
                        <rect id="Rectangle-15" fill="#000000" x="0" y="0" width="32" height="32" rx="4.80000019"></rect>
                        <g id="Group-7" transform="translate(6.000000, 10.000000)">
                            <circle id="Oval-2" fill="#E7001A" cx="6" cy="6" r="6"></circle>
                            <circle id="Oval-2" fill="#F49B1C" cx="14" cy="6" r="6"></circle>
                            <path d="M9.5,1.16974154 C11.0217696,2.18370278 12,3.76889677 12,5.57142857 C12,7.29113471 11.0217696,8.84152368 9.5,9.84085913 C7.9782304,8.84152368 7,7.29113471 7,5.57142857 C7,3.76889677 7.9782304,2.18370278 9.5,1.16974154 Z" id="Combined-Shape" fill="#FF5F00"></path>
                        </g>
                    </g>
                    <g id="Group-14" transform="translate(160.000000, 172.000000)">
                        <rect id="Rectangle-15" fill="#FF821E" x="0" y="0" width="32" height="32" rx="4.80000019"></rect>
                        <g id="Group-15" transform="translate(10.000000, 9.000000)" fill="#FFFFFF">
                            <path d="M11.37429,6.0302791 C11.6115803,4.45413716 10.4038955,3.60684056 8.75254857,3.041606 L9.28822123,0.906522222 L7.98033061,0.582632085 L7.45881341,2.66145152 C7.11498458,2.57631469 6.76184294,2.49598993 6.41093637,2.4164055 L6.93617868,0.323890136 L5.62903309,-1.77635684e-15 L5.09298791,2.13434346 C4.80838853,2.06993559 4.52900432,2.00626805 4.25781538,1.93926906 L4.25930543,1.93260617 L2.45560096,1.48508255 L2.10767449,2.87318313 C2.10767449,2.87318313 3.07806898,3.09416874 3.05758081,3.10786467 C3.58729327,3.23927152 3.68302893,3.58759223 3.6670109,3.86373171 L3.05683578,6.29605409 C3.09334199,6.3053081 3.14065105,6.31863386 3.19280277,6.33936283 C3.14921883,6.32862819 3.10265479,6.31678306 3.05460071,6.3053081 L2.19931251,9.71263233 C2.13449537,9.87254152 1.97021746,10.1124053 1.59994025,10.0213459 C1.61297818,10.0402241 0.649288907,9.78555388 0.649288907,9.78555388 L-8.8817842e-16,11.2732275 L1.70200861,11.69484 C2.01864405,11.7736841 2.32894678,11.8562298 2.63440686,11.9339634 L2.09314651,14.0934778 L3.39954708,14.4173679 L3.93559226,12.2808035 C4.29245902,12.3770451 4.63889544,12.4658836 4.97788162,12.5495398 L4.44369901,14.6761099 L5.75158963,15 L6.29284997,12.8445574 C8.523081,13.2639489 10.2001313,13.0947857 10.9060421,11.0903684 C11.4748683,9.47647015 10.8777311,8.54551736 9.70431745,7.9384547 C10.5588606,7.74263998 11.2025618,7.18406831 11.37429,6.0302791 L11.37429,6.0302791 Z M8.38599648,10.1942107 C7.98182066,11.808109 5.247208,10.9356415 4.36062877,10.7168768 L5.07883245,7.85590899 C5.96541168,8.07578412 8.80842541,8.51109247 8.38599648,10.1942107 Z M8.79054482,6.00695901 C8.42175766,7.47501419 6.14570762,6.72914148 5.40738828,6.54628236 L6.05853975,3.95145966 C6.79685909,4.13431878 9.17460498,4.47560645 8.79054482,6.00695901 Z" id="Shape"></path>
                        </g>
                    </g>
                    <rect id="Rectangle-27" fill="#000000" opacity="0.100000001" x="116" y="48" width="1" height="186"></rect>
                </g>
            </g>
        </g>
    </g>
</svg>